<svg width="19" height="19" viewBox="0 0 19 19" fill="none" xmlns="http://www.w3.org/2000/svg">
<g id="ep:arrow-down-bold">
<path id="Vector" d="M1.9429 6.28567C2.16559 6.06305 2.46758 5.93799 2.78246 5.93799C3.09734 5.93799 3.39933 6.06305 3.62202 6.28567L9.50015 12.1638L15.3783 6.28567C15.6022 6.06936 15.9022 5.94967 16.2136 5.95237C16.5249 5.95508 16.8228 6.07997 17.0429 6.30014C17.2631 6.52031 17.388 6.81815 17.3907 7.12951C17.3934 7.44087 17.2737 7.74083 17.0574 7.9648L10.3397 14.6825C10.117 14.9051 9.81503 15.0302 9.50015 15.0302C9.18527 15.0302 8.88328 14.9051 8.66059 14.6825L1.9429 7.9648C1.72028 7.74211 1.59521 7.44012 1.59521 7.12523C1.59521 6.81035 1.72028 6.50836 1.9429 6.28567Z" fill="#989898"/>
</g>
</svg>
