<svg width="19" height="19" viewBox="0 0 19 19" fill="none" xmlns="http://www.w3.org/2000/svg">
<g id="ep:arrow-down-bold">
<path id="Vector" d="M1.9429 12.7143C2.16559 12.9369 2.46758 13.062 2.78246 13.062C3.09734 13.062 3.39933 12.9369 3.62202 12.7143L9.50015 6.8362L15.3783 12.7143C15.6022 12.9306 15.9022 13.0503 16.2136 13.0476C16.5249 13.0449 16.8228 12.92 17.0429 12.6999C17.2631 12.4797 17.388 12.1819 17.3907 11.8705C17.3934 11.5591 17.2737 11.2592 17.0574 11.0352L10.3397 4.31752C10.117 4.09489 9.81503 3.96983 9.50015 3.96983C9.18527 3.96983 8.88328 4.09489 8.66059 4.31752L1.9429 11.0352C1.72028 11.2579 1.59521 11.5599 1.59521 11.8748C1.59521 12.1896 1.72028 12.4916 1.9429 12.7143Z" fill="#989898"/>
</g>
</svg>
