<svg width="210" height="263" viewBox="0 0 210 263" fill="none" xmlns="http://www.w3.org/2000/svg">
<g clip-path="url(#clip0_763_5783)">
<path d="M27.0252 196.067C26.9458 188.734 28.4036 180.912 30.355 173.141C32.1588 165.961 34.4902 158.975 37.179 152.085C38.6709 148.265 39.3289 144.195 40.1344 140.17C41.2008 134.838 41.7057 129.415 42.7494 124.082C43.3394 121.064 44.0598 118.074 44.9731 115.135C46.1926 111.195 47.0265 107.137 48.6942 103.339C50.0613 100.213 51.3546 97.0463 52.8749 93.9993C53.7541 92.2371 55.0304 90.6681 56.1252 89.0139C59.2394 84.3013 63.3974 80.6689 68.0375 77.5366C69.0416 76.8602 70.0399 76.1666 70.9532 75.3765C75.0715 71.8236 79.8988 70.0159 85.2139 69.0836C90.3192 68.1854 95.4074 67.7818 100.575 68.1172C105.533 68.4412 110.428 69.22 115.318 70.0329C122.834 71.2892 129.567 74.2793 135.342 79.225C139.25 82.5732 142.869 86.2455 145.882 90.4749C149.733 95.8753 153.937 101.043 157.255 106.812C158.764 109.433 160.494 111.934 161.487 114.856C163.676 121.314 165.883 127.772 168.169 134.201C169.615 138.266 170.404 142.529 171.402 146.724C172.497 151.323 174.335 155.695 175.543 160.248C177.682 168.286 180.779 176.051 182.35 184.243C182.997 187.603 183.071 191.025 182.963 194.453C182.838 198.329 183.02 202.229 182.146 206.049C181.545 208.658 180.592 211.148 179.639 213.644C177.449 219.391 174.136 224.416 170.188 229.129C166.558 233.466 162.06 236.752 157.805 240.333C152.32 244.955 146.494 249.127 140.345 252.822C136.369 255.21 132.182 257.046 127.644 258.189C123.498 259.235 119.431 260.57 115.148 260.985C111.654 261.327 108.284 262.367 104.795 262.753C100.002 263.288 95.2486 262.861 90.5404 262.026C84.2893 260.912 77.9928 259.996 71.8211 258.473C67.3568 257.37 63.1138 255.676 58.9502 253.709C56.9194 252.748 54.8943 251.72 52.699 251.106C49.6359 250.253 47.2818 248.269 45.1092 246.069C40.435 241.334 36.4529 236.07 33.5259 230.084C31.2115 225.348 29.8501 220.278 28.9312 215.088C27.8591 209.028 26.787 202.968 27.0365 196.056L27.0252 196.067Z" fill="#010101"/>
<path d="M55.6338 92.6212L54.6465 111.333L56.6212 123.152L61.5579 84.7424L55.6338 92.6212Z" fill="url(#paint0_linear_763_5783)"/>
<path d="M104.063 69.9697L83.2773 70.9545L117.894 96.8551L107.874 69.9697H104.063Z" fill="url(#paint1_linear_763_5783)"/>
<path d="M94.1381 69.9697L83.2773 70.9545L104.063 69.9697H94.1381Z" fill="url(#paint2_linear_763_5783)"/>
<path d="M107.877 69.9697L117.896 96.8551L141.147 93.3316L108.29 69.9697H107.877Z" fill="url(#paint3_linear_763_5783)"/>
<path d="M108.288 69.9697L141.145 93.3316L112.899 70.9545L108.288 69.9697Z" fill="url(#paint4_linear_763_5783)"/>
<path d="M112.899 70.9546L117.836 74.894L128.697 83.7576L129.684 76.8636L123.76 73.9091L117.836 71.9394L112.899 70.9546Z" fill="url(#paint5_linear_763_5783)"/>
<path d="M56.6201 124.136L51.2881 101.708L55.6328 92.6212L56.6201 124.136Z" fill="url(#paint6_linear_763_5783)"/>
<path d="M61.5568 84.7424L56.6201 122.167L85.253 93.6061L66.4935 80.803L61.5568 84.7424Z" fill="url(#paint7_linear_763_5783)"/>
<path d="M44.7725 123.152L56.3958 122.962L51.2905 101.708L48.7218 109.364L44.7725 123.152Z" fill="url(#paint8_linear_763_5783)"/>
<path d="M83.2784 70.9545L76.367 73.9091L66.4936 80.803L56.3984 122.96L88.4916 109.718L83.2784 70.9545Z" fill="url(#paint9_linear_763_5783)"/>
<path d="M83.2773 70.9545L115.642 106.526L88.4873 109.718L83.2773 70.9545Z" fill="url(#paint10_linear_763_5783)"/>
<path d="M83.2773 70.9545L115.642 106.526L117.894 96.8535L83.2773 70.9545Z" fill="url(#paint11_linear_763_5783)"/>
<path d="M141.148 93.3316L115.645 106.528L117.897 96.8551L141.148 93.3316Z" fill="url(#paint12_linear_763_5783)"/>
<path d="M148.443 96.5606L138.411 117.432L142.519 88.6818L148.443 96.5606Z" fill="url(#paint13_linear_763_5783)"/>
<path d="M148.443 96.5606L138.411 117.432L159.303 114.288L156.341 108.379L148.443 96.5606Z" fill="url(#paint14_linear_763_5783)"/>
<path d="M44.7716 124.136L40.8223 146.788L48.7102 123.33L44.7716 124.136Z" fill="url(#paint15_linear_763_5783)"/>
<path d="M44.7725 123.152V124.573L66.494 122.167L44.7725 123.152Z" fill="url(#paint16_linear_763_5783)"/>
<path d="M56.392 122.962L48.709 123.33L50.9307 145.275L56.392 122.962Z" fill="url(#paint17_linear_763_5783)"/>
<path d="M56.3919 122.962L74.9134 142.847L50.9307 145.276L56.3919 122.962Z" fill="url(#paint18_linear_763_5783)"/>
<path d="M56.3955 122.962L74.9169 142.847L88.4887 109.72L56.3955 122.962Z" fill="url(#paint19_linear_763_5783)"/>
<path d="M115.641 106.528L74.915 142.847L121.884 156.577L115.641 106.528Z" fill="url(#paint20_linear_763_5783)"/>
<path d="M115.641 106.528L74.915 142.847L88.4868 109.72L115.641 106.528Z" fill="url(#paint21_linear_763_5783)"/>
<path d="M115.645 106.528L124.637 124.046L121.888 156.579L115.645 106.528Z" fill="url(#paint22_linear_763_5783)"/>
<path d="M115.645 106.528L124.637 124.046L118.659 116.402L115.645 106.528Z" fill="url(#paint23_linear_763_5783)"/>
<path d="M133.633 100.5L140.651 122.943L126.722 117.242L128.696 108.379L133.633 100.5Z" fill="url(#paint24_linear_763_5783)"/>
<path d="M138.411 117.432L124.634 124.045L164.224 144.735L138.411 117.432Z" fill="url(#paint25_linear_763_5783)"/>
<path d="M138.413 117.432L124.635 124.045L118.657 116.401L138.413 117.432Z" fill="url(#paint26_linear_763_5783)"/>
<path d="M135.607 95.5757L115.645 106.528L118.659 116.402L126.721 117.242L135.607 95.5757Z" fill="url(#paint27_linear_763_5783)"/>
<path d="M138.411 117.432L170.164 149.742L164.226 144.735L138.411 117.432Z" fill="url(#paint28_linear_763_5783)"/>
<path d="M159.303 114.288L138.411 117.432L170.164 149.742L167.202 137.924L165.227 132.015L162.265 123.152L160.291 116.258L159.303 114.288Z" fill="url(#paint29_linear_763_5783)"/>
<path d="M129.684 76.8636L128.696 83.7576L142.519 88.6818L138.57 84.7424L134.62 80.803L129.684 76.8636Z" fill="url(#paint30_linear_763_5783)"/>
<path d="M40.8223 146.788L50.6957 163.53L48.7102 123.33L40.8223 146.788Z" fill="url(#paint31_linear_763_5783)"/>
<path d="M43.7845 148.758L50.3111 162.383L34.8984 163.53L40.8225 146.788L43.7845 148.758Z" fill="url(#paint32_linear_763_5783)"/>
<path d="M48.709 123.33L50.31 162.383L50.9307 145.276L48.709 123.33Z" fill="url(#paint33_linear_763_5783)"/>
<path d="M74.9188 142.847L50.3154 162.383L86.1741 162.311L74.9188 142.847Z" fill="url(#paint34_linear_763_5783)"/>
<path d="M74.9188 142.847L50.3154 162.383L50.9361 145.276L74.9188 142.847Z" fill="url(#paint35_linear_763_5783)"/>
<path d="M74.918 142.847L106.734 162.661L86.1732 162.312L74.918 142.847Z" fill="url(#paint36_linear_763_5783)"/>
<path d="M74.918 142.847L106.734 162.661L121.887 156.579L74.918 142.847Z" fill="url(#paint37_linear_763_5783)"/>
<path d="M124.635 124.045L106.732 162.66L141.518 183.42L124.635 124.045Z" fill="url(#paint38_linear_763_5783)"/>
<path d="M124.635 124.045L106.732 162.66L121.886 156.577L124.635 124.045Z" fill="url(#paint39_linear_763_5783)"/>
<path d="M124.634 124.045L167.267 182.145L141.518 183.42L124.634 124.045Z" fill="url(#paint40_linear_763_5783)"/>
<path d="M124.634 124.045L167.267 182.145L164.224 144.735L124.634 124.045Z" fill="url(#paint41_linear_763_5783)"/>
<path d="M177.075 172.394L175.101 165.5L170.164 149.742L167.266 182.145L177.075 172.394Z" fill="url(#paint42_linear_763_5783)"/>
<path d="M170.164 149.742L167.265 182.145L164.223 144.735L170.164 149.742Z" fill="url(#paint43_linear_763_5783)"/>
<path d="M142.519 88.6818L138.57 117.242L128.696 83.7576L142.519 88.6818Z" fill="url(#paint44_linear_763_5783)"/>
<path d="M28.9746 192.091V197.015V203.909L49.1686 184.544L28.9746 192.091Z" fill="url(#paint45_linear_763_5783)"/>
<path d="M28.9746 192.091L49.1686 184.544L30.9493 178.303L29.962 183.227L28.9746 192.091Z" fill="url(#paint46_linear_763_5783)"/>
<path d="M50.314 162.383L49.1709 184.544L75.1714 211.975L50.314 162.383Z" fill="url(#paint47_linear_763_5783)"/>
<path d="M50.3131 162.383L49.17 184.544L30.9492 178.303L34.8986 163.53L50.3131 162.383Z" fill="url(#paint48_linear_763_5783)"/>
<path d="M50.3154 162.383L79.8148 180.339L75.1711 211.975L50.3154 162.383Z" fill="url(#paint49_linear_763_5783)"/>
<path d="M50.3154 162.383L79.8148 180.339L86.1723 162.311L50.3154 162.383Z" fill="url(#paint50_linear_763_5783)"/>
<path d="M106.732 162.66L79.8125 180.339L103.352 200.19L106.732 162.66Z" fill="url(#paint51_linear_763_5783)"/>
<path d="M106.732 162.66L79.8125 180.339L86.17 162.311L106.732 162.66Z" fill="url(#paint52_linear_763_5783)"/>
<path d="M106.732 162.66L129.141 194.721L103.352 200.19L106.732 162.66Z" fill="url(#paint53_linear_763_5783)"/>
<path d="M106.735 162.66L129.144 194.721L141.521 183.42L106.735 162.66Z" fill="url(#paint54_linear_763_5783)"/>
<path d="M167.267 182.145L129.142 194.721L144.633 191.532L167.267 182.145Z" fill="url(#paint55_linear_763_5783)"/>
<path d="M167.267 182.145L129.142 194.721L141.518 183.42L167.267 182.145Z" fill="url(#paint56_linear_763_5783)"/>
<path d="M167.267 182.145L173.029 182.853L144.633 191.532L167.267 182.145Z" fill="url(#paint57_linear_763_5783)"/>
<path d="M177.075 172.394L167.266 182.145L173.027 182.853L178.063 175.348L177.075 172.394Z" fill="url(#paint58_linear_763_5783)"/>
<path d="M180.037 182.242L173.027 182.853L181.023 193.772L181.024 191.106V188.152L180.037 182.242Z" fill="url(#paint59_linear_763_5783)"/>
<path d="M178.062 175.348L173.027 182.853L180.037 182.242L178.062 175.348Z" fill="url(#paint60_linear_763_5783)"/>
<path d="M33.9112 227.545L49.1685 184.544L30.9492 217.697L33.9112 227.545Z" fill="url(#paint61_linear_763_5783)"/>
<path d="M28.9746 203.909L30.9493 217.697L49.1686 184.544L28.9746 203.909Z" fill="url(#paint62_linear_763_5783)"/>
<path d="M35.8858 230.5L75.6948 222.979L49.1684 184.544L33.9111 227.545L35.8858 230.5Z" fill="url(#paint63_linear_763_5783)"/>
<path d="M49.1689 184.544L75.6953 222.979L75.1694 211.975L49.1689 184.544Z" fill="url(#paint64_linear_763_5783)"/>
<path d="M79.8141 180.339L75.6963 222.979L81.3024 213.678L79.8141 180.339Z" fill="url(#paint65_linear_763_5783)"/>
<path d="M79.8147 180.339L75.6968 222.979L75.1709 211.975L79.8147 180.339Z" fill="url(#paint66_linear_763_5783)"/>
<path d="M79.8125 180.339L100.976 222.977L81.3008 213.678L79.8125 180.339Z" fill="url(#paint67_linear_763_5783)"/>
<path d="M79.8125 180.339L100.976 222.977L103.352 200.19L79.8125 180.339Z" fill="url(#paint68_linear_763_5783)"/>
<path d="M129.141 194.721L100.976 222.977L126.361 214.399L129.141 194.721Z" fill="url(#paint69_linear_763_5783)"/>
<path d="M129.141 194.721L100.976 222.977L103.351 200.19L129.141 194.721Z" fill="url(#paint70_linear_763_5783)"/>
<path d="M129.142 194.721L160.125 219.549L126.364 214.399L129.142 194.721Z" fill="url(#paint71_linear_763_5783)"/>
<path d="M129.142 194.721L160.124 219.549L144.633 191.532L129.142 194.721Z" fill="url(#paint72_linear_763_5783)"/>
<path d="M173.028 182.853L160.123 219.549L159.075 236.364L173.028 182.853Z" fill="url(#paint73_linear_763_5783)"/>
<path d="M173.029 182.853L160.124 219.549L144.633 191.532L173.029 182.853Z" fill="url(#paint74_linear_763_5783)"/>
<path d="M181.024 199.246L173.028 182.853L159.075 236.364L170.165 226.561L172.14 223.606L174.115 220.652L175.102 218.682L176.089 216.712L178.064 211.788L180.039 206.864L180.533 204.894L180.779 203.382L181.026 201.939L181.025 201.085L181.024 199.246Z" fill="url(#paint75_linear_763_5783)"/>
<path d="M181.023 193.772L173.027 182.853L181.023 199.246V193.772Z" fill="url(#paint76_linear_763_5783)"/>
<path d="M39.835 237.394L44.7717 244.288L50.9588 242.184L39.835 237.394Z" fill="url(#paint77_linear_763_5783)"/>
<path d="M75.6938 222.979L50.958 242.184L58.6589 251.122L75.6938 222.979Z" fill="url(#paint78_linear_763_5783)"/>
<path d="M33.9111 227.545L39.8352 237.394L50.959 242.184L75.6948 222.979L33.9111 227.545Z" fill="url(#paint79_linear_763_5783)"/>
<path d="M75.6939 222.979L73.8193 236.024L58.6572 251.124L75.6939 222.979Z" fill="url(#paint80_linear_763_5783)"/>
<path d="M75.6969 222.979L73.8223 236.024L81.3031 213.678L75.6969 222.979Z" fill="url(#paint81_linear_763_5783)"/>
<path d="M91.5995 261.03L97.1019 262.015L100.978 222.977L73.8223 236.024L91.5995 261.03Z" fill="url(#paint82_linear_763_5783)"/>
<path d="M100.978 222.977L73.8223 236.024L81.3031 213.678L100.978 222.977Z" fill="url(#paint83_linear_763_5783)"/>
<path d="M97.1016 262.015L125.112 243.024L100.977 222.977L94.5156 261.03L97.1016 262.015Z" fill="url(#paint84_linear_763_5783)"/>
<path d="M100.976 222.977L125.11 243.023L126.362 214.397L100.976 222.977Z" fill="url(#paint85_linear_763_5783)"/>
<path d="M160.123 219.549L125.11 243.023L141.713 240.208L150.417 244.288L156.341 239.364L158.316 237.394L160.123 219.549Z" fill="url(#paint86_linear_763_5783)"/>
<path d="M160.123 219.549L125.11 243.023L126.363 214.397L160.123 219.549Z" fill="url(#paint87_linear_763_5783)"/>
<path d="M170.165 226.561L160.123 219.549L158.317 237.394L158.811 237.025L159.305 236.655L160.292 235.917L162.267 234.439L163.254 233.455L167.203 229.515L168.684 228.038L170.165 226.561Z" fill="url(#paint88_linear_763_5783)"/>
<path d="M50.6955 249.212L56.6196 251.182L50.9599 242.184L44.7715 244.288L50.6955 249.212Z" fill="url(#paint89_linear_763_5783)"/>
<path d="M58.5945 252.167L58.6571 251.124L50.958 242.184L54.6451 250.197L58.5945 252.167Z" fill="url(#paint90_linear_763_5783)"/>
<path d="M90.1893 261.03L73.8199 236.024L68.4678 255.121L71.4298 256.106L77.3538 258.076L85.2526 260.045L90.1893 261.03Z" fill="url(#paint91_linear_763_5783)"/>
<path d="M68.4691 255.121L73.8194 236.024L58.6574 251.124L58.5957 252.167L68.4691 255.121Z" fill="url(#paint92_linear_763_5783)"/>
<path d="M90.1905 261.03L73.8223 236.025L85.2538 260.045L90.1905 261.03Z" fill="url(#paint93_linear_763_5783)"/>
<path d="M93.0521 261.03L73.8223 236.024L78.3424 244.288L82.5001 251.562L86.2412 258.076L90.1905 261.03L93.0521 261.147V261.03Z" fill="url(#paint94_linear_763_5783)"/>
<path d="M132.645 255.121L125.111 243.024L105.829 261.03L111.911 260.045L118.823 259.061L132.645 255.121Z" fill="url(#paint95_linear_763_5783)"/>
<path d="M105.829 261.03L125.111 243.024L98.0879 261.03L97.1006 262.015L105.829 261.03Z" fill="url(#paint96_linear_763_5783)"/>
<path d="M150.417 244.288L141.531 239.364L125.11 243.024L140.543 244.288H150.417Z" fill="url(#paint97_linear_763_5783)"/>
<path d="M150.418 244.288L125.111 243.024L131.658 255.121H132.646L134.62 254.136L138.57 252.167L150.418 244.288Z" fill="url(#paint98_linear_763_5783)"/>
<path d="M86.124 133.885C84.3372 133.407 82.5277 132.998 80.9337 131.998C80.565 131.765 80.4458 132.009 80.287 132.242C80.0374 132.594 79.8219 132.981 79.5212 133.282C79.1638 133.64 78.6987 133.726 78.2562 133.413C77.8251 133.106 77.672 132.668 77.9159 132.191C78.5229 131.003 79.3454 129.951 80.2019 128.939C80.4629 128.632 80.8599 128.473 81.2967 128.638C81.7505 128.809 82.0285 129.138 81.9661 129.627C81.9094 130.088 82.2157 130.213 82.5163 130.366C83.9231 131.094 85.415 131.554 86.9976 131.696C87.9733 131.691 89 131.531 89.9019 131.838C91.2974 132.316 92.6928 132.043 94.0826 132.145C94.2357 132.157 94.3889 132.151 94.5307 132.066C98.683 131.941 102.682 131.082 106.562 129.61C106.971 129.457 107.135 129.297 106.999 128.803C106.857 128.286 107.067 127.797 107.634 127.62C108.145 127.461 108.536 127.672 108.786 128.149C109.291 129.121 110.028 129.923 110.652 130.81C111.06 131.389 111.293 132.02 110.607 132.526C109.915 133.038 109.325 132.674 108.99 132.037C108.587 131.281 108.139 131.315 107.436 131.6C103.057 133.368 98.4674 134.158 93.7649 134.345C93.4302 134.357 93.0899 134.402 92.7552 134.436C92.517 134.647 92.2504 134.544 91.9894 134.505C90.5259 134.379 89.0454 134.698 87.5875 134.362C87.0827 134.249 86.5381 134.289 86.1354 133.879L86.124 133.885Z" fill="#020102"/>
<path d="M79.9363 121.595C79.4258 122.959 78.3707 123.539 76.9923 123.596C75.8634 123.641 75.0466 123.061 74.4566 122.146C73.5037 120.662 73.9461 118.855 75.4663 117.951C77.0206 117.024 78.8642 117.507 79.7094 119.065C79.7945 119.224 79.8739 119.395 79.959 119.554C80.1689 120.236 80.1121 120.913 79.9363 121.589V121.595Z" fill="#020102"/>
<path d="M115.957 120.469C115.968 122.419 114.828 123.573 112.848 123.607C111.328 123.63 109.893 122.112 109.904 120.492C109.916 118.877 111.385 117.485 113.07 117.485C114.709 117.485 115.946 118.764 115.957 120.469Z" fill="#020102"/>
</g>
<defs>
<linearGradient id="paint0_linear_763_5783" x1="7.21355" y1="102.624" x2="32.0649" y2="88.4633" gradientUnits="userSpaceOnUse">
<stop stop-color="#5987DD"/>
<stop offset="1" stop-color="#73A1F7"/>
</linearGradient>
<linearGradient id="paint1_linear_763_5783" x1="103.051" y1="102.672" x2="93.4368" y2="78.1404" gradientUnits="userSpaceOnUse">
<stop stop-color="#A4ADE4"/>
<stop offset="1" stop-color="#D3DCFF"/>
</linearGradient>
<linearGradient id="paint2_linear_763_5783" x1="74.0211" y1="80.4307" x2="104.949" y2="51.0253" gradientUnits="userSpaceOnUse">
<stop stop-color="#9CA6E3"/>
<stop offset="1" stop-color="#A5AFEC"/>
</linearGradient>
<linearGradient id="paint3_linear_763_5783" x1="127.498" y1="91.0007" x2="117.585" y2="65.7089" gradientUnits="userSpaceOnUse">
<stop stop-color="#A4ADE4"/>
<stop offset="1" stop-color="#CBD4FF"/>
</linearGradient>
<linearGradient id="paint4_linear_763_5783" x1="106.811" y1="70.9271" x2="140.771" y2="93.8846" gradientUnits="userSpaceOnUse">
<stop stop-color="#A5AFE4"/>
<stop offset="1" stop-color="#AAB4E9"/>
</linearGradient>
<linearGradient id="paint5_linear_763_5783" x1="143.407" y1="37.6227" x2="127.967" y2="89.401" gradientUnits="userSpaceOnUse">
<stop stop-color="#A6B6E7"/>
<stop offset="1" stop-color="#B0C0F1"/>
</linearGradient>
<linearGradient id="paint6_linear_763_5783" x1="-3.2419" y1="105.749" x2="25.9275" y2="110.421" gradientUnits="userSpaceOnUse">
<stop stop-color="#6B90E0"/>
<stop offset="1" stop-color="#769BEB"/>
</linearGradient>
<linearGradient id="paint7_linear_763_5783" x1="71.0876" y1="114.294" x2="73.9518" y2="79.5257" gradientUnits="userSpaceOnUse">
<stop stop-color="#5B88DD"/>
<stop offset="1" stop-color="#8AB7FF"/>
</linearGradient>
<linearGradient id="paint8_linear_763_5783" x1="27.7069" y1="129.176" x2="55.3461" y2="106.694" gradientUnits="userSpaceOnUse">
<stop stop-color="#6B90E0"/>
<stop offset="1" stop-color="#8FB4FF"/>
</linearGradient>
<linearGradient id="paint9_linear_763_5783" x1="48.442" y1="102.683" x2="80.7561" y2="90.0053" gradientUnits="userSpaceOnUse">
<stop stop-color="#7E9BDF"/>
<stop offset="1" stop-color="#A3C0FF"/>
</linearGradient>
<linearGradient id="paint10_linear_763_5783" x1="113.645" y1="88.6702" x2="87.1016" y2="91.6378" gradientUnits="userSpaceOnUse">
<stop stop-color="#7E9BDF"/>
<stop offset="1" stop-color="#A9C6FF"/>
</linearGradient>
<linearGradient id="paint11_linear_763_5783" x1="88.7266" y1="99.9366" x2="91.6701" y2="87.9154" gradientUnits="userSpaceOnUse">
<stop stop-color="#A3A9E5"/>
<stop offset="1" stop-color="#AEB4F0"/>
</linearGradient>
<linearGradient id="paint12_linear_763_5783" x1="141.877" y1="98.3903" x2="118.321" y2="101.784" gradientUnits="userSpaceOnUse">
<stop stop-color="#B0BFE8"/>
<stop offset="1" stop-color="#C8D7FF"/>
</linearGradient>
<linearGradient id="paint13_linear_763_5783" x1="132.245" y1="92.2692" x2="129.454" y2="115.661" gradientUnits="userSpaceOnUse">
<stop stop-color="#A4B9E8"/>
<stop offset="1" stop-color="#BED3FF"/>
</linearGradient>
<linearGradient id="paint14_linear_763_5783" x1="148.963" y1="94.7418" x2="146.146" y2="118.356" gradientUnits="userSpaceOnUse">
<stop stop-color="#7BB7E9"/>
<stop offset="1" stop-color="#A4E0FF"/>
</linearGradient>
<linearGradient id="paint15_linear_763_5783" x1="-5.7071" y1="123.219" x2="48.5173" y2="126.51" gradientUnits="userSpaceOnUse">
<stop stop-color="#6A8DDE"/>
<stop offset="1" stop-color="#80A3F4"/>
</linearGradient>
<linearGradient id="paint16_linear_763_5783" x1="-5.26066" y1="118.356" x2="24.3714" y2="123.102" gradientUnits="userSpaceOnUse">
<stop stop-color="#6A8DDE"/>
<stop offset="1" stop-color="#81A4F5"/>
</linearGradient>
<linearGradient id="paint17_linear_763_5783" x1="52.1625" y1="122.962" x2="54.498" y2="144.896" gradientUnits="userSpaceOnUse">
<stop stop-color="#94A6E4"/>
<stop offset="1" stop-color="#98AAE8"/>
</linearGradient>
<linearGradient id="paint18_linear_763_5783" x1="73.925" y1="132.573" x2="49.9303" y2="134.883" gradientUnits="userSpaceOnUse">
<stop stop-color="#94A6E4"/>
<stop offset="1" stop-color="#BCCEFF"/>
</linearGradient>
<linearGradient id="paint19_linear_763_5783" x1="60.3082" y1="132.933" x2="92.6223" y2="120.255" gradientUnits="userSpaceOnUse">
<stop stop-color="#A8AFE6"/>
<stop offset="1" stop-color="#BFC6FD"/>
</linearGradient>
<linearGradient id="paint20_linear_763_5783" x1="101.013" y1="159.316" x2="94.4526" y2="109.307" gradientUnits="userSpaceOnUse">
<stop stop-color="#B6BFE8"/>
<stop offset="1" stop-color="#BCC5EE"/>
</linearGradient>
<linearGradient id="paint21_linear_763_5783" x1="113.998" y1="104.588" x2="72.3908" y2="139.868" gradientUnits="userSpaceOnUse">
<stop stop-color="#A8A9E2"/>
<stop offset="1" stop-color="#C4C5FE"/>
</linearGradient>
<linearGradient id="paint22_linear_763_5783" x1="105.46" y1="112.026" x2="115.274" y2="130.205" gradientUnits="userSpaceOnUse">
<stop stop-color="#B6BFE8"/>
<stop offset="1" stop-color="#E2EBFF"/>
</linearGradient>
<linearGradient id="paint23_linear_763_5783" x1="127.117" y1="122.005" x2="120.781" y2="114.302" gradientUnits="userSpaceOnUse">
<stop stop-color="#B2BAE8"/>
<stop offset="1" stop-color="#C9D1FF"/>
</linearGradient>
<linearGradient id="paint24_linear_763_5783" x1="143.131" y1="120.902" x2="136.795" y2="113.198" gradientUnits="userSpaceOnUse">
<stop stop-color="#B2BAE8"/>
<stop offset="1" stop-color="#C9D1FF"/>
</linearGradient>
<linearGradient id="paint25_linear_763_5783" x1="143.959" y1="133.744" x2="131.628" y2="139.371" gradientUnits="userSpaceOnUse">
<stop stop-color="#88B6E7"/>
<stop offset="1" stop-color="#B5E3FF"/>
</linearGradient>
<linearGradient id="paint26_linear_763_5783" x1="129.236" y1="118.535" x2="123.92" y2="112.073" gradientUnits="userSpaceOnUse">
<stop stop-color="#A4B4E5"/>
<stop offset="1" stop-color="#B1C1F2"/>
</linearGradient>
<linearGradient id="paint27_linear_763_5783" x1="115.265" y1="112.922" x2="138.322" y2="90.4333" gradientUnits="userSpaceOnUse">
<stop stop-color="#A4B9E8"/>
<stop offset="1" stop-color="#BFD4FF"/>
</linearGradient>
<linearGradient id="paint28_linear_763_5783" x1="174.753" y1="144.747" x2="167.56" y2="139.699" gradientUnits="userSpaceOnUse">
<stop stop-color="#88B6E7"/>
<stop offset="1" stop-color="#8BB9EA"/>
</linearGradient>
<linearGradient id="paint29_linear_763_5783" x1="140.868" y1="134.44" x2="192.342" y2="127.005" gradientUnits="userSpaceOnUse">
<stop stop-color="#59AFE8"/>
<stop offset="1" stop-color="#80D6FF"/>
</linearGradient>
<linearGradient id="paint30_linear_763_5783" x1="153.006" y1="63.0229" x2="115.213" y2="89.096" gradientUnits="userSpaceOnUse">
<stop stop-color="#58B1EB"/>
<stop offset="1" stop-color="#68C1FB"/>
</linearGradient>
<linearGradient id="paint31_linear_763_5783" x1="51.7492" y1="137.754" x2="14.2315" y2="145.658" gradientUnits="userSpaceOnUse">
<stop stop-color="#658BDE"/>
<stop offset="1" stop-color="#759BEE"/>
</linearGradient>
<linearGradient id="paint32_linear_763_5783" x1="39.0153" y1="123.748" x2="40.6997" y2="162.797" gradientUnits="userSpaceOnUse">
<stop stop-color="#6E8DDD"/>
<stop offset="1" stop-color="#7190E0"/>
</linearGradient>
<linearGradient id="paint33_linear_763_5783" x1="48.5736" y1="162.316" x2="49.2264" y2="145.193" gradientUnits="userSpaceOnUse">
<stop stop-color="#7990DE"/>
<stop offset="1" stop-color="#8299E7"/>
</linearGradient>
<linearGradient id="paint34_linear_763_5783" x1="50.2757" y1="152.651" x2="86.1343" y2="152.583" gradientUnits="userSpaceOnUse">
<stop stop-color="#8F96DA"/>
<stop offset="1" stop-color="#B8BFFF"/>
</linearGradient>
<linearGradient id="paint35_linear_763_5783" x1="75.7621" y1="151.611" x2="51.3976" y2="153.957" gradientUnits="userSpaceOnUse">
<stop stop-color="#8697DD"/>
<stop offset="1" stop-color="#96A7ED"/>
</linearGradient>
<linearGradient id="paint36_linear_763_5783" x1="106.89" y1="152.959" x2="86.2795" y2="152.626" gradientUnits="userSpaceOnUse">
<stop stop-color="#8F96DA"/>
<stop offset="1" stop-color="#B6BDFF"/>
</linearGradient>
<linearGradient id="paint37_linear_763_5783" x1="102.666" y1="149.173" x2="116.975" y2="143.711" gradientUnits="userSpaceOnUse">
<stop stop-color="#C4BCE3"/>
<stop offset="1" stop-color="#CEC6ED"/>
</linearGradient>
<linearGradient id="paint38_linear_763_5783" x1="131.897" y1="186.299" x2="114.211" y2="127.163" gradientUnits="userSpaceOnUse">
<stop stop-color="#98ADE2"/>
<stop offset="1" stop-color="#A4B9EE"/>
</linearGradient>
<linearGradient id="paint39_linear_763_5783" x1="118.363" y1="123.488" x2="115.503" y2="155.67" gradientUnits="userSpaceOnUse">
<stop stop-color="#9EA9E1"/>
<stop offset="1" stop-color="#C5D0FF"/>
</linearGradient>
<linearGradient id="paint40_linear_763_5783" x1="112.944" y1="133.067" x2="156.959" y2="190.1" gradientUnits="userSpaceOnUse">
<stop stop-color="#98ADE2"/>
<stop offset="1" stop-color="#C2D7FF"/>
</linearGradient>
<linearGradient id="paint41_linear_763_5783" x1="149.746" y1="183.644" x2="146.602" y2="146.874" gradientUnits="userSpaceOnUse">
<stop stop-color="#7EAFE7"/>
<stop offset="1" stop-color="#84B5ED"/>
</linearGradient>
<linearGradient id="paint42_linear_763_5783" x1="177.475" y1="150.661" x2="173.378" y2="182.922" gradientUnits="userSpaceOnUse">
<stop stop-color="#57B0EA"/>
<stop offset="1" stop-color="#7CD5FF"/>
</linearGradient>
<linearGradient id="paint43_linear_763_5783" x1="168.03" y1="149.186" x2="163.898" y2="181.718" gradientUnits="userSpaceOnUse">
<stop stop-color="#68B5EB"/>
<stop offset="1" stop-color="#90DDFF"/>
</linearGradient>
<linearGradient id="paint44_linear_763_5783" x1="135.465" y1="88.2083" x2="131.333" y2="120.74" gradientUnits="userSpaceOnUse">
<stop stop-color="#68B5EB"/>
<stop offset="1" stop-color="#90DDFF"/>
</linearGradient>
<linearGradient id="paint45_linear_763_5783" x1="16.0311" y1="173.427" x2="40.5046" y2="194.572" gradientUnits="userSpaceOnUse">
<stop stop-color="#6B85DC"/>
<stop offset="1" stop-color="#87A1F8"/>
</linearGradient>
<linearGradient id="paint46_linear_763_5783" x1="26.4016" y1="159.072" x2="52.0385" y2="181.223" gradientUnits="userSpaceOnUse">
<stop stop-color="#557CD7"/>
<stop offset="1" stop-color="#668DE8"/>
</linearGradient>
<linearGradient id="paint47_linear_763_5783" x1="52.3766" y1="178.941" x2="80.255" y2="206.907" gradientUnits="userSpaceOnUse">
<stop stop-color="#8495DB"/>
<stop offset="1" stop-color="#8798DE"/>
</linearGradient>
<linearGradient id="paint48_linear_763_5783" x1="40.4737" y1="161.594" x2="39.2577" y2="184.006" gradientUnits="userSpaceOnUse">
<stop stop-color="#5A7BD8"/>
<stop offset="1" stop-color="#7596F3"/>
</linearGradient>
<linearGradient id="paint49_linear_763_5783" x1="84.6831" y1="206.962" x2="58.819" y2="157.899" gradientUnits="userSpaceOnUse">
<stop stop-color="#8495DB"/>
<stop offset="1" stop-color="#8E9FE5"/>
</linearGradient>
<linearGradient id="paint50_linear_763_5783" x1="50.311" y1="171.392" x2="86.1696" y2="171.325" gradientUnits="userSpaceOnUse">
<stop stop-color="#7A8AD8"/>
<stop offset="1" stop-color="#A1B1FF"/>
</linearGradient>
<linearGradient id="paint51_linear_763_5783" x1="87.7502" y1="170.441" x2="111.766" y2="189.697" gradientUnits="userSpaceOnUse">
<stop stop-color="#BDB1E1"/>
<stop offset="1" stop-color="#E4D8FF"/>
</linearGradient>
<linearGradient id="paint52_linear_763_5783" x1="106.587" y1="171.627" x2="86.0816" y2="171.296" gradientUnits="userSpaceOnUse">
<stop stop-color="#A59CDF"/>
<stop offset="1" stop-color="#B7AEF1"/>
</linearGradient>
<linearGradient id="paint53_linear_763_5783" x1="125.791" y1="178.111" x2="99.9507" y2="183.321" gradientUnits="userSpaceOnUse">
<stop stop-color="#BDB1E1"/>
<stop offset="1" stop-color="#D5C9F9"/>
</linearGradient>
<linearGradient id="paint54_linear_763_5783" x1="101.764" y1="171.42" x2="136.988" y2="191.408" gradientUnits="userSpaceOnUse">
<stop stop-color="#A9BAE6"/>
<stop offset="1" stop-color="#C8D9FF"/>
</linearGradient>
<linearGradient id="paint55_linear_763_5783" x1="144.377" y1="190.454" x2="167.022" y2="181.525" gradientUnits="userSpaceOnUse">
<stop stop-color="#79BBEB"/>
<stop offset="1" stop-color="#9BDDFF"/>
</linearGradient>
<linearGradient id="paint56_linear_763_5783" x1="167.529" y1="187.712" x2="141.694" y2="188.929" gradientUnits="userSpaceOnUse">
<stop stop-color="#91BDEA"/>
<stop offset="1" stop-color="#B5E1FF"/>
</linearGradient>
<linearGradient id="paint57_linear_763_5783" x1="173.042" y1="182.904" x2="144.532" y2="191.189" gradientUnits="userSpaceOnUse">
<stop stop-color="#79BBEB"/>
<stop offset="1" stop-color="#A1E3FF"/>
</linearGradient>
<linearGradient id="paint58_linear_763_5783" x1="168.107" y1="174.948" x2="173.675" y2="175.599" gradientUnits="userSpaceOnUse">
<stop stop-color="#54AEEA"/>
<stop offset="1" stop-color="#81DBFF"/>
</linearGradient>
<linearGradient id="paint59_linear_763_5783" x1="174.864" y1="181.438" x2="196.569" y2="209.617" gradientUnits="userSpaceOnUse">
<stop stop-color="#61B3EB"/>
<stop offset="1" stop-color="#76C8FF"/>
</linearGradient>
<linearGradient id="paint60_linear_763_5783" x1="185.646" y1="175.614" x2="172.317" y2="177.326" gradientUnits="userSpaceOnUse">
<stop stop-color="#53ADE9"/>
<stop offset="1" stop-color="#7ED8FF"/>
</linearGradient>
<linearGradient id="paint61_linear_763_5783" x1="4.13572" y1="227.138" x2="15.2278" y2="218.254" gradientUnits="userSpaceOnUse">
<stop stop-color="#6F85DA"/>
<stop offset="1" stop-color="#9AB0FF"/>
</linearGradient>
<linearGradient id="paint62_linear_763_5783" x1="41.4128" y1="239.709" x2="39.8416" y2="207.191" gradientUnits="userSpaceOnUse">
<stop stop-color="#647FD8"/>
<stop offset="1" stop-color="#6E89E2"/>
</linearGradient>
<linearGradient id="paint63_linear_763_5783" x1="72.2653" y1="203.458" x2="22.0844" y2="212.275" gradientUnits="userSpaceOnUse">
<stop stop-color="#6F85DA"/>
<stop offset="1" stop-color="#7187DC"/>
</linearGradient>
<linearGradient id="paint64_linear_763_5783" x1="63.7757" y1="223.578" x2="63.2285" y2="212.687" gradientUnits="userSpaceOnUse">
<stop stop-color="#9097DB"/>
<stop offset="1" stop-color="#AAB1F5"/>
</linearGradient>
<linearGradient id="paint65_linear_763_5783" x1="78.4806" y1="213.883" x2="76.9119" y2="180.476" gradientUnits="userSpaceOnUse">
<stop stop-color="#B0A5E1"/>
<stop offset="1" stop-color="#B6ABE7"/>
</linearGradient>
<linearGradient id="paint66_linear_763_5783" x1="80.191" y1="180.378" x2="75.8624" y2="222.996" gradientUnits="userSpaceOnUse">
<stop stop-color="#A6A0DE"/>
<stop offset="1" stop-color="#CEC8FF"/>
</linearGradient>
<linearGradient id="paint67_linear_763_5783" x1="90.8236" y1="213.006" x2="89.2688" y2="179.896" gradientUnits="userSpaceOnUse">
<stop stop-color="#B0A5E1"/>
<stop offset="1" stop-color="#D2C7FF"/>
</linearGradient>
<linearGradient id="paint68_linear_763_5783" x1="81.1248" y1="179.655" x2="103.149" y2="221.844" gradientUnits="userSpaceOnUse">
<stop stop-color="#D5C5E9"/>
<stop offset="1" stop-color="#D6C6EA"/>
</linearGradient>
<linearGradient id="paint69_linear_763_5783" x1="114.92" y1="212.015" x2="117.74" y2="193.028" gradientUnits="userSpaceOnUse">
<stop stop-color="#B0BBE9"/>
<stop offset="1" stop-color="#D7E2FF"/>
</linearGradient>
<linearGradient id="paint70_linear_763_5783" x1="112.539" y1="224.246" x2="114.966" y2="202.101" gradientUnits="userSpaceOnUse">
<stop stop-color="#C5BDE6"/>
<stop offset="1" stop-color="#C9C1EA"/>
</linearGradient>
<linearGradient id="paint71_linear_763_5783" x1="161.641" y1="209.09" x2="127.77" y2="204.177" gradientUnits="userSpaceOnUse">
<stop stop-color="#B0BBE9"/>
<stop offset="1" stop-color="#B3BEEC"/>
</linearGradient>
<linearGradient id="paint72_linear_763_5783" x1="157.431" y1="221.115" x2="142.162" y2="194.858" gradientUnits="userSpaceOnUse">
<stop stop-color="#A9BEE9"/>
<stop offset="1" stop-color="#D0E5FF"/>
</linearGradient>
<linearGradient id="paint73_linear_763_5783" x1="165.024" y1="219.941" x2="163.926" y2="236.682" gradientUnits="userSpaceOnUse">
<stop stop-color="#65B5EA"/>
<stop offset="1" stop-color="#7BCBFF"/>
</linearGradient>
<linearGradient id="paint74_linear_763_5783" x1="174.084" y1="211.431" x2="157.994" y2="183.762" gradientUnits="userSpaceOnUse">
<stop stop-color="#86BAE9"/>
<stop offset="1" stop-color="#B1E5FF"/>
</linearGradient>
<linearGradient id="paint75_linear_763_5783" x1="154.785" y1="192.214" x2="168.195" y2="218.35" gradientUnits="userSpaceOnUse">
<stop stop-color="#65B5EA"/>
<stop offset="1" stop-color="#6BBBF0"/>
</linearGradient>
<linearGradient id="paint76_linear_763_5783" x1="189.196" y1="196.023" x2="199.361" y2="201.265" gradientUnits="userSpaceOnUse">
<stop stop-color="#62B5EB"/>
<stop offset="1" stop-color="#6EC1F7"/>
</linearGradient>
<linearGradient id="paint77_linear_763_5783" x1="50.35" y1="243.816" x2="25.5482" y2="234.569" gradientUnits="userSpaceOnUse">
<stop stop-color="#647FD8"/>
<stop offset="1" stop-color="#6A85DE"/>
</linearGradient>
<linearGradient id="paint78_linear_763_5783" x1="80.3817" y1="229.329" x2="55.1932" y2="247.922" gradientUnits="userSpaceOnUse">
<stop stop-color="#979BDB"/>
<stop offset="1" stop-color="#A7ABEB"/>
</linearGradient>
<linearGradient id="paint79_linear_763_5783" x1="54.1311" y1="229.866" x2="29.8513" y2="220.814" gradientUnits="userSpaceOnUse">
<stop stop-color="#7286DC"/>
<stop offset="1" stop-color="#8CA0F6"/>
</linearGradient>
<linearGradient id="paint80_linear_763_5783" x1="57.8131" y1="250.586" x2="75.4773" y2="222.84" gradientUnits="userSpaceOnUse">
<stop stop-color="#979BDB"/>
<stop offset="1" stop-color="#C1C5FF"/>
</linearGradient>
<linearGradient id="paint81_linear_763_5783" x1="72.1268" y1="235.426" x2="79.9524" y2="213.202" gradientUnits="userSpaceOnUse">
<stop stop-color="#ACA2DF"/>
<stop offset="1" stop-color="#CFC5FF"/>
</linearGradient>
<linearGradient id="paint82_linear_763_5783" x1="83.6856" y1="228.649" x2="104.484" y2="256.467" gradientUnits="userSpaceOnUse">
<stop stop-color="#D5BFE5"/>
<stop offset="1" stop-color="#D6C0E6"/>
</linearGradient>
<linearGradient id="paint83_linear_763_5783" x1="81.997" y1="238.902" x2="89.8225" y2="216.677" gradientUnits="userSpaceOnUse">
<stop stop-color="#C6B0E1"/>
<stop offset="1" stop-color="#DEC8F9"/>
</linearGradient>
<linearGradient id="paint84_linear_763_5783" x1="118.281" y1="232.524" x2="86.6437" y2="253.104" gradientUnits="userSpaceOnUse">
<stop stop-color="#D5BFE5"/>
<stop offset="1" stop-color="#DBC5EB"/>
</linearGradient>
<linearGradient id="paint85_linear_763_5783" x1="112.495" y1="242.444" x2="113.811" y2="213.822" gradientUnits="userSpaceOnUse">
<stop stop-color="#BEBDE7"/>
<stop offset="1" stop-color="#C1C0EA"/>
</linearGradient>
<linearGradient id="paint86_linear_763_5783" x1="125.798" y1="230.758" x2="155.413" y2="232.418" gradientUnits="userSpaceOnUse">
<stop stop-color="#7DBBEC"/>
<stop offset="1" stop-color="#9DDBFF"/>
</linearGradient>
<linearGradient id="paint87_linear_763_5783" x1="158.251" y1="232.448" x2="124.454" y2="227.545" gradientUnits="userSpaceOnUse">
<stop stop-color="#AEC1E9"/>
<stop offset="1" stop-color="#CEE1FF"/>
</linearGradient>
<linearGradient id="paint88_linear_763_5783" x1="193.384" y1="228.851" x2="159.332" y2="227.823" gradientUnits="userSpaceOnUse">
<stop stop-color="#7AB9EC"/>
<stop offset="1" stop-color="#89C8FB"/>
</linearGradient>
<linearGradient id="paint89_linear_763_5783" x1="44.8654" y1="245.808" x2="61.76" y2="274.221" gradientUnits="userSpaceOnUse">
<stop stop-color="#7988D9"/>
<stop offset="1" stop-color="#9CABFC"/>
</linearGradient>
<linearGradient id="paint90_linear_763_5783" x1="67.0935" y1="268.763" x2="59.3249" y2="251.116" gradientUnits="userSpaceOnUse">
<stop stop-color="#8391DC"/>
<stop offset="1" stop-color="#909EE9"/>
</linearGradient>
<linearGradient id="paint91_linear_763_5783" x1="82.8077" y1="238.196" x2="74.8207" y2="271.237" gradientUnits="userSpaceOnUse">
<stop stop-color="#ADA5E0"/>
<stop offset="1" stop-color="#DBD3FF"/>
</linearGradient>
<linearGradient id="paint92_linear_763_5783" x1="69.7819" y1="235.048" x2="61.7953" y2="268.087" gradientUnits="userSpaceOnUse">
<stop stop-color="#9198DE"/>
<stop offset="1" stop-color="#979EE4"/>
</linearGradient>
<linearGradient id="paint93_linear_763_5783" x1="95.1137" y1="270.462" x2="77.3587" y2="234.288" gradientUnits="userSpaceOnUse">
<stop stop-color="#ADA5E0"/>
<stop offset="1" stop-color="#C4BCF7"/>
</linearGradient>
<linearGradient id="paint94_linear_763_5783" x1="103.537" y1="261.37" x2="98.8651" y2="257.733" gradientUnits="userSpaceOnUse">
<stop stop-color="#C3AFE0"/>
<stop offset="1" stop-color="#DECAFB"/>
</linearGradient>
<linearGradient id="paint95_linear_763_5783" x1="130.786" y1="249.415" x2="103.457" y2="273.682" gradientUnits="userSpaceOnUse">
<stop stop-color="#B0BBE8"/>
<stop offset="1" stop-color="#B6C1EE"/>
</linearGradient>
<linearGradient id="paint96_linear_763_5783" x1="109.732" y1="250.659" x2="106.538" y2="248.172" gradientUnits="userSpaceOnUse">
<stop stop-color="#D1C0E4"/>
<stop offset="1" stop-color="#F3E2FF"/>
</linearGradient>
<linearGradient id="paint97_linear_763_5783" x1="124.64" y1="251.413" x2="154.811" y2="253.104" gradientUnits="userSpaceOnUse">
<stop stop-color="#9CBDEA"/>
<stop offset="1" stop-color="#BBDCFF"/>
</linearGradient>
<linearGradient id="paint98_linear_763_5783" x1="141.546" y1="249.594" x2="120.03" y2="271.109" gradientUnits="userSpaceOnUse">
<stop stop-color="#B0BBE8"/>
<stop offset="1" stop-color="#B7C2EF"/>
</linearGradient>
<clipPath id="clip0_763_5783">
<rect width="156" height="195" fill="white" transform="translate(27 68)"/>
</clipPath>
</defs>
</svg>
