<svg width="210" height="263" viewBox="0 0 210 263" fill="none" xmlns="http://www.w3.org/2000/svg">
<path d="M92.3113 67.6098C88.7919 67.8716 81.9206 69.1617 79.0901 70.1153C76.7811 70.8818 74.2486 72.3589 71.1574 74.7521C69.8912 75.7057 68.1967 76.9584 67.3773 77.5006C65.0496 79.0525 62.3682 81.3522 59.9288 83.8764C56.819 87.0923 53.3741 92.2527 51.5492 96.4221C50.8602 97.9927 49.9291 100.087 49.4822 101.059C47.8622 104.649 47.7132 105.079 45.0131 114.484C43.393 120.13 42.2199 125.608 41.6985 130.04C41.3819 132.751 39.7619 141.968 39.1474 144.605C38.328 148.12 37.4156 151.186 36.5218 153.411C34.9948 157.244 32.8906 163.377 31.8292 167.191C30.4326 172.183 28.5518 180.279 27.9187 184.168C27.0063 189.609 26.7083 199.873 27.3228 205.015C27.9559 210.25 29.1105 216.72 30.1533 220.721C31.8478 227.171 34.1941 232.145 38.3094 238.016C39.9108 240.315 43.5048 244.503 45.5904 246.485C48.5325 249.309 49.8174 250.113 53.2251 251.291C54.6962 251.795 57.657 253.067 59.277 253.908C60.804 254.693 65.6642 256.638 67.936 257.367C71.8092 258.601 74.081 259.106 82.5537 260.639C97.7673 263.406 101.715 263.593 109.499 261.967C110.746 261.705 113.54 261.237 115.718 260.92C120.057 260.284 121.025 260.078 123.8 259.256C124.824 258.956 126.966 258.358 128.548 257.928C131.956 257.012 133.967 256.227 137.021 254.656C139.144 253.553 143.892 250.692 145.68 249.44C150.931 245.719 153.892 243.513 156.387 241.475C158.026 240.128 160.745 237.903 162.439 236.52C170.521 229.957 176.2 222.366 179.627 213.616C182.308 206.773 182.699 204.772 182.923 197.069C183.165 189.085 182.867 185.477 181.619 180.541C180.874 177.586 179.403 172.613 177.82 167.714C177.467 166.574 176.945 164.835 176.685 163.844C176.07 161.488 173.947 154.608 173.351 153.018C172.774 151.467 171.471 146.661 170.446 142.286C169.273 137.331 168.212 133.723 166.815 129.946C166.126 128.095 164.916 124.599 164.115 122.187C161.247 113.474 160.484 111.586 158.901 109.192C158.622 108.781 158.082 107.865 157.709 107.173C157.318 106.481 156.406 104.985 155.68 103.864C154.935 102.742 153.948 101.19 153.445 100.423C152.961 99.6567 151.657 97.8618 150.559 96.4221C149.46 94.9825 147.766 92.6827 146.797 91.3178C144.228 87.6906 142.645 85.8396 139.069 82.3058C134.47 77.7063 132.031 75.8927 127.338 73.5181C123.93 71.798 122.683 71.3119 119.331 70.4705C111.156 68.3951 99.1453 67.1237 92.3113 67.6098ZM104.154 70.19C105.03 70.3022 106.408 70.4892 107.227 70.6014C113.763 71.4241 119.778 72.7329 122.869 73.9856C125.346 74.9765 129.349 77.0893 131.025 78.2859C135.382 81.3709 141.155 87.2979 144.619 92.234C145.661 93.711 147.337 95.9921 148.343 97.2822C150.112 99.6006 153.259 104.2 154.711 106.668C155.102 107.341 155.996 108.8 156.685 109.94C159.329 114.315 159.721 115.25 162.067 123.309C162.346 124.281 163.314 127.067 164.208 129.479C166.015 134.415 167.02 137.762 168.305 143.221C169.515 148.381 170.13 150.625 171.21 153.841C172.42 157.45 173.854 162.124 174.562 164.816C174.878 165.976 175.418 167.789 175.753 168.836C177.951 175.492 179.757 182.092 180.241 185.196C180.632 187.664 180.781 196.284 180.521 200.247C180.278 204.08 179.906 205.931 178.677 209.502C176.07 217.15 173.221 222.142 168.212 227.826C165.549 230.836 164.45 231.902 161.359 234.444C159.572 235.884 157.058 237.959 155.773 239.007C148.492 244.971 139.814 250.842 134.582 253.347C132.682 254.263 128.176 255.871 127.524 255.871C127.319 255.871 125.774 256.301 124.098 256.806C120.988 257.76 118.716 258.227 114.676 258.769C113.447 258.938 111.026 259.349 109.275 259.704C107.544 260.06 105.197 260.433 104.061 260.564C101.678 260.826 97.5439 260.695 94.0431 260.265C91.2126 259.929 77.8797 257.554 75.1983 256.918C68.8856 255.404 63.2248 253.441 58.4018 251.047C56.7445 250.225 54.5845 249.29 53.6161 248.953C51.1023 248.075 49.6498 247.215 47.7132 245.42C46.2235 244.036 43.1323 240.577 41.1957 238.109C40.4695 237.193 37.3039 232.369 36.5218 231.004C35.1438 228.592 33.1327 223.282 32.2016 219.505C31.2705 215.822 30.116 209.129 29.5574 204.361C29.185 201.145 29.2967 192.021 29.7436 187.814C30.6933 179.101 34.7527 163.825 38.7005 154.159C39.9108 151.186 41.0281 147.147 41.8475 142.847C42.8903 137.369 43.4861 133.854 43.8399 131.255C44.6965 124.73 45.5159 121.028 47.8994 112.651C49.4077 107.416 50.2829 104.873 51.7913 101.526C52.2195 100.592 53.0203 98.7406 53.5975 97.4131C55.5714 92.851 58.5322 88.3263 61.4185 85.4656C63.5227 83.3528 66.8373 80.6044 68.9601 79.1834C69.6305 78.7346 71.1761 77.5941 72.4051 76.6593C77.768 72.5459 79.8536 71.7793 89.6298 70.19C91.4547 69.8909 92.572 69.8535 97.1715 69.9096C100.151 69.947 103.279 70.0779 104.154 70.19Z" fill="black"/>
<path d="M75.5515 117.494C74.2852 118.261 73.6521 119.626 73.9873 120.86C74.4156 122.468 75.8494 123.459 77.4136 123.234C79.0895 122.973 79.9833 121.926 80.0206 120.224C80.0206 119.084 79.5551 118.167 78.6426 117.569C77.8605 117.027 76.3708 116.989 75.5515 117.494Z" fill="black"/>
<path d="M111.791 117.345C110.022 118.055 109.352 120.393 110.469 121.944C111.53 123.403 113.485 123.721 114.882 122.655C115.757 121.982 115.943 121.533 115.962 120.187C115.981 118.897 115.664 118.298 114.584 117.551C113.914 117.102 112.647 117.008 111.791 117.345Z" fill="black"/>
<path d="M107.133 127.589C107.04 127.795 106.946 128.206 106.946 128.524C106.946 129.029 106.853 129.123 105.978 129.44C101.546 131.105 96.8909 131.815 91.4349 131.665C87.7665 131.572 86.0347 131.329 83.9677 130.6C82.4594 130.095 81.9938 129.758 81.9938 129.197C81.9938 128.73 81.3793 128.169 80.8766 128.169C80.709 128.169 80.3179 128.45 80.0014 128.767C79.2565 129.571 77.7109 131.871 77.7109 132.189C77.7109 132.694 77.953 133.068 78.4185 133.236C78.9958 133.46 79.5544 133.124 80.1131 132.208L80.5228 131.553L81.8635 132.208C85.3829 133.872 90.7645 134.489 96.5371 133.872C100.522 133.46 104.433 132.563 107.17 131.441L108.306 130.974L108.939 131.722C109.647 132.544 110.242 132.675 110.727 132.133C111.211 131.591 111.099 131.105 110.224 129.889C109.758 129.272 109.181 128.431 108.92 128.001C108.529 127.384 108.324 127.234 107.878 127.234C107.524 127.234 107.263 127.365 107.133 127.589Z" fill="black"/>
</svg>
