<svg width="210" height="263" viewBox="0 0 210 263" fill="none" xmlns="http://www.w3.org/2000/svg">
<path d="M98.0743 164.052C96.292 164.185 92.8123 164.838 91.379 165.321C90.2097 165.709 88.9272 166.457 87.3618 167.669C86.7205 168.152 85.8624 168.787 85.4475 169.061C84.2687 169.847 82.9108 171.012 81.6755 172.29C80.1007 173.919 78.3561 176.532 77.432 178.643C77.083 179.439 76.6115 180.499 76.3852 180.991C75.5648 182.809 75.4894 183.027 74.122 187.79C73.3016 190.649 72.7075 193.423 72.4435 195.667C72.2832 197.04 71.4627 201.708 71.1516 203.043C70.7366 204.823 70.2746 206.376 69.8219 207.503C69.0487 209.444 67.9831 212.55 67.4455 214.481C66.7383 217.009 65.7859 221.109 65.4652 223.079C65.0032 225.834 64.8523 231.032 65.1635 233.636C65.4841 236.287 66.0688 239.563 66.5968 241.589C67.455 244.856 68.6432 247.375 70.7272 250.348C71.5382 251.512 73.3582 253.633 74.4143 254.637C75.9043 256.067 76.555 256.474 78.2807 257.07C79.0256 257.326 80.525 257.97 81.3454 258.396C82.1187 258.793 84.5799 259.778 85.7304 260.147C87.6918 260.772 88.8423 261.028 93.133 261.804C100.837 263.206 102.836 263.3 106.778 262.477C107.41 262.344 108.825 262.107 109.928 261.946C112.125 261.625 112.615 261.52 114.02 261.104C114.539 260.952 115.624 260.649 116.425 260.432C118.151 259.968 119.169 259.57 120.716 258.775C121.791 258.216 124.196 256.767 125.101 256.133C127.76 254.249 129.259 253.131 130.523 252.099C131.353 251.418 132.73 250.291 133.588 249.59C137.68 246.267 140.557 242.423 142.292 237.991C143.65 234.526 143.848 233.513 143.961 229.612C144.083 225.569 143.933 223.741 143.301 221.242C142.924 219.746 142.179 217.227 141.377 214.746C141.198 214.169 140.934 213.288 140.802 212.786C140.491 211.593 139.416 208.109 139.114 207.304C138.821 206.518 138.161 204.085 137.643 201.869C137.049 199.36 136.511 197.533 135.804 195.62C135.455 194.683 134.842 192.912 134.437 191.691C132.984 187.278 132.598 186.322 131.796 185.11C131.655 184.902 131.381 184.438 131.193 184.088C130.995 183.737 130.532 182.98 130.165 182.412C129.788 181.844 129.288 181.058 129.033 180.67C128.788 180.281 128.128 179.372 127.571 178.643C127.015 177.914 126.157 176.75 125.667 176.058C124.365 174.222 123.564 173.284 121.753 171.495C119.424 169.165 118.189 168.247 115.812 167.044C114.087 166.173 113.455 165.927 111.757 165.501C107.618 164.45 101.535 163.806 98.0743 164.052ZM104.072 165.359C104.515 165.416 105.213 165.511 105.628 165.567C108.938 165.984 111.984 166.647 113.549 167.281C114.803 167.783 116.831 168.853 117.679 169.459C119.886 171.021 122.809 174.023 124.563 176.522C125.091 177.27 125.94 178.425 126.449 179.079C127.345 180.253 128.939 182.582 129.674 183.832C129.872 184.173 130.325 184.911 130.674 185.489C132.013 187.705 132.211 188.178 133.399 192.259C133.541 192.751 134.031 194.162 134.484 195.383C135.398 197.883 135.908 199.578 136.558 202.343C137.171 204.956 137.482 206.092 138.029 207.721C138.642 209.548 139.368 211.915 139.727 213.279C139.887 213.866 140.161 214.784 140.33 215.314C141.443 218.685 142.358 222.028 142.603 223.599C142.801 224.849 142.876 229.214 142.744 231.221C142.622 233.162 142.433 234.1 141.811 235.908C140.491 239.781 139.048 242.309 136.511 245.187C135.163 246.712 134.606 247.251 133.041 248.539C132.136 249.268 130.863 250.319 130.212 250.849C126.525 253.87 122.13 256.843 119.48 258.112C118.519 258.576 116.237 259.39 115.907 259.39C115.803 259.39 115.02 259.608 114.171 259.863C112.597 260.346 111.446 260.583 109.4 260.858C108.777 260.943 107.551 261.151 106.665 261.331C105.788 261.511 104.6 261.7 104.025 261.767C102.818 261.899 100.724 261.833 98.9513 261.615C97.5179 261.445 90.766 260.242 89.4081 259.92C86.2113 259.153 83.3446 258.159 80.9022 256.947C80.0629 256.531 78.9691 256.057 78.4787 255.887C77.2056 255.442 76.4701 255.006 75.4894 254.097C74.735 253.396 73.1696 251.645 72.1889 250.395C71.8211 249.931 70.218 247.488 69.8219 246.797C69.1241 245.576 68.1057 242.887 67.6341 240.974C67.1626 239.109 66.578 235.719 66.2951 233.304C66.1065 231.676 66.1631 227.055 66.3894 224.925C66.8703 220.513 68.9261 212.777 70.9252 207.882C71.5382 206.376 72.104 204.331 72.5189 202.153C73.047 199.379 73.3488 197.599 73.5279 196.283C73.9617 192.978 74.3766 191.104 75.5837 186.862C76.3475 184.211 76.7907 182.923 77.5545 181.228C77.7714 180.755 78.1769 179.817 78.4693 179.145C79.4688 176.835 80.9682 174.543 82.4299 173.095C83.4955 172.025 85.174 170.633 86.249 169.913C86.5885 169.686 87.3712 169.109 87.9936 168.635C90.7094 166.552 91.7656 166.164 96.7164 165.359C97.6405 165.208 98.2063 165.189 100.536 165.217C102.044 165.236 103.629 165.302 104.072 165.359Z" fill="black"/>
<path d="M89.5871 189.314C88.9459 189.703 88.6252 190.394 88.795 191.019C89.0119 191.833 89.738 192.335 90.5301 192.221C91.3788 192.089 91.8315 191.558 91.8503 190.697C91.8503 190.119 91.6146 189.655 91.1525 189.352C90.7564 189.078 90.002 189.059 89.5871 189.314Z" fill="black"/>
<path d="M107.939 189.239C107.043 189.599 106.703 190.782 107.269 191.568C107.807 192.307 108.797 192.468 109.504 191.928C109.947 191.587 110.042 191.36 110.051 190.678C110.06 190.025 109.9 189.722 109.353 189.343C109.014 189.116 108.372 189.068 107.939 189.239Z" fill="black"/>
<path d="M105.58 194.427C105.533 194.531 105.486 194.739 105.486 194.9C105.486 195.156 105.439 195.203 104.995 195.364C102.751 196.207 100.394 196.567 97.6306 196.491C95.7729 196.443 94.8959 196.32 93.8492 195.951C93.0853 195.695 92.8496 195.525 92.8496 195.241C92.8496 195.004 92.5384 194.72 92.2838 194.72C92.1989 194.72 92.0009 194.862 91.8406 195.023C91.4634 195.43 90.6807 196.595 90.6807 196.756C90.6807 197.012 90.8033 197.201 91.039 197.286C91.3313 197.4 91.6142 197.229 91.8971 196.765L92.1046 196.434L92.7836 196.765C94.5658 197.608 97.2911 197.921 100.214 197.608C102.232 197.4 104.213 196.945 105.599 196.377L106.174 196.141L106.495 196.519C106.853 196.936 107.155 197.002 107.4 196.728C107.645 196.453 107.589 196.207 107.146 195.591C106.91 195.279 106.617 194.853 106.485 194.635C106.287 194.323 106.184 194.247 105.957 194.247C105.778 194.247 105.646 194.313 105.58 194.427Z" fill="black"/>
</svg>
