<svg width="210" height="263" viewBox="0 0 210 263" fill="none" xmlns="http://www.w3.org/2000/svg">
<path d="M94 209.311C97.0952 205.772 122 199.622 122 200.018C122 209.819 114.871 220.527 112.616 229.896C112.352 230.995 109.988 241.12 109.355 239.898C105.635 232.721 105.93 222.238 101.928 215.376C100.614 213.123 98.2394 209.404 97.6129 206.987" stroke="#2B2B2B" stroke-width="3" stroke-linecap="round"/>
<path d="M115.063 254.445C125.217 252.638 136.613 252.555 141.705 239.58C143.199 238.628 145.614 229.097 146.559 226.556C150.047 217.174 147.873 206.105 151.464 196.956C156.282 184.68 148.912 165.342 141.189 157.293L141.104 157.204C136.08 151.967 131.25 146.933 126.628 141.046C123.846 137.5 120.93 133.14 116.818 133.021C104.067 132.652 90.4412 137.184 79.2298 144.729C69.4864 151.287 65.5849 165.419 60.8487 177.486C55.5262 191.047 53.9114 202.961 59.4546 217.084C62.6289 225.172 66.1792 233.243 68.0772 241.948C69.6952 249.368 72.3578 259.144 79.3331 260.76C83.1304 261.64 88.0321 259.89 91.7249 258.918C99.5166 256.867 107.19 255.847 115.063 254.445Z" stroke="#79610D" stroke-width="3" stroke-linecap="round"/>
<path d="M87 195C87 191.84 89.5115 169.278 94.0526 171.439C98.5316 173.57 100.73 180.46 103.105 185.205C105.954 190.894 109.708 171.126 110.632 168.527C110.635 168.518 115.524 153.298 116.368 155.157C118.096 158.958 118.934 163.272 119.632 167.534C120.762 174.44 123 183.355 123 190.235" stroke="#2B2B2B" stroke-width="3" stroke-linecap="round"/>
</svg>
