<svg width="210" height="263" viewBox="0 0 210 263" fill="none" xmlns="http://www.w3.org/2000/svg">
<g clip-path="url(#clip0_760_3619)">
<path d="M88.3301 181.153C93.2441 175.536 132.784 165.772 132.784 166.4C132.784 181.959 121.466 198.961 117.886 213.834C117.466 215.58 113.714 231.654 112.708 229.714C106.801 218.321 107.271 201.677 100.917 190.783C98.8304 187.205 95.0607 181.302 94.066 177.465" stroke="#2B2B2B" stroke-width="3" stroke-linecap="round"/>
<path d="M121.77 252.81C137.891 249.94 155.983 249.809 164.068 229.209C166.439 227.699 170.273 212.566 171.773 208.532C177.312 193.636 173.86 176.064 179.561 161.539C187.21 142.049 175.509 111.348 163.248 98.5678L163.114 98.4278C155.137 90.113 147.469 82.1207 140.132 72.7737C135.713 67.145 131.084 60.2223 124.557 60.0333C104.312 59.4471 82.6799 66.6421 64.8803 78.6217C49.4114 89.0328 43.2172 111.469 35.6979 130.628C27.2478 152.158 24.6841 171.071 33.4846 193.494C38.5242 206.335 44.1608 219.149 47.1741 232.969C49.7429 244.75 53.9702 260.27 65.0443 262.835C71.073 264.232 78.8551 261.455 84.7179 259.911C97.0882 256.655 109.27 255.035 121.77 252.81Z" stroke="#79610D" stroke-width="3" stroke-linecap="round"/>
<path d="M77.2168 158.433C77.2168 153.417 81.2042 117.596 88.4138 121.026C95.5246 124.41 99.0143 135.349 102.786 142.882C107.309 151.915 113.269 120.53 114.735 116.403C114.74 116.389 122.502 92.2264 123.843 95.1777C126.585 101.212 127.916 108.061 129.024 114.827C130.819 125.792 134.371 139.945 134.371 150.868" stroke="#2B2B2B" stroke-width="3" stroke-linecap="round"/>
</g>
<defs>
<clipPath id="clip0_760_3619">
<rect width="210" height="263" fill="white"/>
</clipPath>
</defs>
</svg>
