<svg width="725" height="483" viewBox="0 0 725 483" fill="none" xmlns="http://www.w3.org/2000/svg">
<g clip-path="url(#clip0_121_3722)">
<path d="M563.809 282.989C566.661 335.52 463.888 442.336 337.212 402.8C278.296 384.411 283.286 353.889 238.487 313.662C211.784 289.687 173.417 271.557 162.746 236.707C153.527 206.627 159.181 174.295 175.162 153.264C211.105 105.969 283.667 73.5827 355.164 148.101C426.66 222.619 556.436 147.507 563.809 282.989Z" fill="url(#paint0_linear_121_3722)"/>
<path d="M535.636 167.194C525.64 185.022 503.746 187.472 468.672 184.084C442.293 181.532 418.237 179.556 391.856 165.183C373.392 155.129 358.775 141.528 348.107 128.318C336.548 114.007 320.412 97.6732 328.322 81.4468C339.192 59.1564 402.055 40.3838 463.096 71.0841C530.149 104.818 545.415 149.769 535.636 167.194Z" fill="url(#paint1_linear_121_3722)"/>
<path d="M281.195 385.238C257.907 352.68 234.056 318.076 202.831 301.033C170.622 283.443 164.683 294.284 162.453 311.518C160.223 328.752 170.161 369.586 214.116 392.818C258.082 416.058 302.986 415.71 281.195 385.238Z" fill="url(#paint2_linear_121_3722)"/>
<path d="M481.82 64.4004H243.278C234.38 64.4004 227.167 71.6086 227.167 80.5004V152.066C227.167 160.957 234.38 168.166 243.278 168.166H481.82C490.717 168.166 497.931 160.957 497.931 152.066V80.5004C497.931 71.6086 490.717 64.4004 481.82 64.4004Z" fill="white" stroke="#E1E4E5" stroke-width="4"/>
<path d="M463.981 96.2656H311.107C307.74 96.2656 305.011 98.9932 305.011 102.358C305.011 105.723 307.74 108.45 311.107 108.45H463.981C467.348 108.45 470.078 105.723 470.078 102.358C470.078 98.9932 467.348 96.2656 463.981 96.2656Z" fill="#E1E4E5"/>
<path d="M405.832 123.446H311.107C307.74 123.446 305.011 126.174 305.011 129.539C305.011 132.903 307.74 135.631 311.107 135.631H405.832C409.199 135.631 411.929 132.903 411.929 129.539C411.929 126.174 409.199 123.446 405.832 123.446Z" fill="#E1E4E5"/>
<path fill-rule="evenodd" clip-rule="evenodd" d="M270.078 142.439C255.726 142.439 244.09 130.648 244.09 116.103C244.09 101.559 255.726 89.7666 270.078 89.7666C284.43 89.7666 296.067 101.559 296.067 116.103C296.067 130.648 284.43 142.439 270.078 142.439Z" fill="#8B4513"/>
<path d="M279.229 111.714L268.25 123.419L261.659 116.397" stroke="white" stroke-width="3.568" stroke-linecap="round" stroke-linejoin="round"/>
<path d="M481.82 189.413H243.278C234.38 189.413 227.167 196.621 227.167 205.513V277.078C227.167 285.97 234.38 293.178 243.278 293.178H481.82C490.717 293.178 497.931 285.97 497.931 277.078V205.513C497.931 196.621 490.717 189.413 481.82 189.413Z" fill="white" stroke="#E1E4E5" stroke-width="4"/>
<path d="M463.981 221.279H311.107C307.74 221.279 305.011 224.007 305.011 227.372C305.011 230.736 307.74 233.464 311.107 233.464H463.981C467.348 233.464 470.078 230.736 470.078 227.372C470.078 224.007 467.348 221.279 463.981 221.279Z" fill="#E1E4E5"/>
<path d="M405.832 248.46H311.107C307.74 248.46 305.011 251.188 305.011 254.552C305.011 257.917 307.74 260.644 311.107 260.644H405.832C409.199 260.644 411.929 257.917 411.929 254.552C411.929 251.188 409.199 248.46 405.832 248.46Z" fill="#E1E4E5"/>
<path fill-rule="evenodd" clip-rule="evenodd" d="M270.078 267.453C255.726 267.453 244.09 255.661 244.09 241.117C244.09 226.572 255.726 214.78 270.078 214.78C284.43 214.78 296.067 226.572 296.067 241.117C296.067 255.661 284.43 267.453 270.078 267.453Z" fill="#8B4513"/>
<path d="M279.229 236.728L268.25 248.432L261.659 241.41" stroke="white" stroke-width="3.568" stroke-linecap="round" stroke-linejoin="round"/>
<path d="M481.82 314.428H243.278C234.38 314.428 227.167 321.636 227.167 330.528V402.093C227.167 410.985 234.38 418.193 243.278 418.193H481.82C490.717 418.193 497.931 410.985 497.931 402.093V330.528C497.931 321.636 490.717 314.428 481.82 314.428Z" fill="white" stroke="#E1E4E5" stroke-width="4"/>
<path d="M463.981 346.293H311.107C307.74 346.293 305.011 349.021 305.011 352.385C305.011 355.75 307.74 358.477 311.107 358.477H463.981C467.348 358.477 470.078 355.75 470.078 352.385C470.078 349.021 467.348 346.293 463.981 346.293Z" fill="#E1E4E5"/>
<path d="M405.832 373.474H311.107C307.74 373.474 305.011 376.201 305.011 379.566C305.011 382.931 307.74 385.658 311.107 385.658H405.832C409.199 385.658 411.929 382.931 411.929 379.566C411.929 376.201 409.199 373.474 405.832 373.474Z" fill="#E1E4E5"/>
<path fill-rule="evenodd" clip-rule="evenodd" d="M270.078 392.467C255.726 392.467 244.09 380.674 244.09 366.13C244.09 351.586 255.726 339.794 270.078 339.794C284.43 339.794 296.067 351.586 296.067 366.13C296.067 380.674 284.43 392.467 270.078 392.467Z" fill="#8B4513"/>
<path d="M279.229 361.741L268.25 373.447L261.659 366.425" stroke="white" stroke-width="3.568" stroke-linecap="round" stroke-linejoin="round"/>
<path d="M518.596 142.663C518.196 144.155 519.082 145.688 520.574 146.088C522.067 146.487 523.601 145.602 524.001 144.111C524.4 142.619 523.515 141.086 522.022 140.687C520.53 140.287 518.996 141.172 518.596 142.663Z" fill="#E1E4E5"/>
<path d="M534.765 196.446C537.131 196.446 539.049 194.529 539.049 192.165C539.049 189.8 537.131 187.884 534.765 187.884C532.399 187.884 530.481 189.8 530.481 192.165C530.481 194.529 532.399 196.446 534.765 196.446Z" fill="#8B4513"/>
<path d="M195.268 332.619C191.719 332.619 188.841 335.495 188.841 339.042C188.841 342.588 191.719 345.464 195.268 345.464C198.817 345.464 201.695 342.588 201.695 339.042C201.695 335.495 198.817 332.619 195.268 332.619Z" fill="#8B4513"/>
<path d="M180.418 202.574C177.929 202.574 175.911 200.558 175.911 198.07C175.911 195.583 177.929 193.566 180.418 193.566C182.907 193.566 184.925 195.583 184.925 198.07C184.925 200.558 182.907 202.574 180.418 202.574Z" fill="#8B4513"/>
<path d="M144.714 282.957C140.218 282.957 136.574 279.315 136.574 274.822C136.574 270.329 140.218 266.688 144.714 266.688C149.21 266.688 152.854 270.329 152.854 274.822C152.854 279.315 149.21 282.957 144.714 282.957Z" fill="#E1E4E5"/>
<path d="M543.148 340.327C538.652 340.327 535.008 336.685 535.008 332.192C535.008 327.7 538.652 324.058 543.148 324.058C547.644 324.058 551.288 327.7 551.288 332.192C551.288 336.685 547.644 340.327 543.148 340.327Z" fill="#E1E4E5"/>
<path d="M198.429 243.286C199.001 245.421 197.734 247.615 195.598 248.187C193.461 248.759 191.266 247.492 190.693 245.357C190.121 243.223 191.388 241.028 193.525 240.456C195.661 239.884 197.857 241.151 198.429 243.286Z" fill="#E1E4E5"/>
<path d="M520.645 250.003C521.218 252.138 519.95 254.332 517.814 254.904C515.678 255.476 513.482 254.209 512.909 252.074C512.337 249.94 513.605 247.745 515.741 247.173C517.877 246.601 520.073 247.868 520.645 250.003Z" fill="#E1E4E5"/>
<path d="M199.266 159.171C196.324 159.171 193.939 156.788 193.939 153.848C193.939 150.908 196.324 148.524 199.266 148.524C202.208 148.524 204.593 150.908 204.593 153.848C204.593 156.788 202.208 159.171 199.266 159.171Z" fill="#E1E4E5"/>
<g clip-path="url(#clip1_121_3722)">
<path d="M534.35 52.2591C530.331 39.1761 495.597 22.2907 468.156 43.2816C455.394 53.0448 459.355 60.0514 452.007 73.8834C447.627 82.1276 439.868 89.9884 440.387 99.4532C440.832 107.624 445.118 115.013 450.916 118.718C463.956 127.05 484.616 128.464 495.417 103.87C506.217 79.2748 544.71 86.0021 534.35 52.2591Z" fill="url(#paint3_linear_121_3722)"/>
<path d="M546.173 93.335C543.43 89.8177 538.621 90.0043 531.156 91.8796C525.543 93.2909 520.412 94.5019 515.185 98.4616C511.526 101.232 508.814 104.641 506.943 107.837C504.915 111.3 501.964 115.347 504.204 118.587C507.282 123.038 521.474 125.033 533.653 116.422C547.031 106.961 548.856 96.7722 546.173 93.335Z" fill="url(#paint4_linear_121_3722)"/>
<path d="M450.204 62.1288C446.35 72.3794 442.493 83.2105 435.436 89.9233C428.158 96.8497 425.816 94.4055 424.003 90.0096C422.189 85.6134 421.921 74.1208 431.908 64.872C441.898 55.6206 453.81 52.5356 450.204 62.1288Z" fill="url(#paint5_linear_121_3722)"/>
<path fill-rule="evenodd" clip-rule="evenodd" d="M458.459 50.0186H518.472C523.209 50.0186 527.045 53.8452 527.045 58.5698V60.216H449.885V58.5698C449.885 53.8452 453.722 50.0186 458.459 50.0186ZM449.885 71.255V114.154C449.885 118.879 453.722 122.705 458.459 122.705H518.472C523.209 122.705 527.045 118.879 527.045 114.154V71.255H449.885Z" fill="#8B4513"/>
<path d="M527.045 60.2158V62.9784C528.575 62.9784 529.815 61.7417 529.815 60.2158H527.045ZM449.885 60.2158H447.116C447.116 61.7417 448.356 62.9784 449.885 62.9784V60.2158ZM449.885 71.2548V68.4923C448.356 68.4923 447.116 69.7292 447.116 71.2548H449.885ZM527.045 71.2548H529.815C529.815 69.7292 528.575 68.4923 527.045 68.4923V71.2548ZM518.472 47.2559H458.459V52.7809H518.472V47.2559ZM529.815 58.5697C529.815 52.3195 524.738 47.2559 518.472 47.2559V52.7809C521.679 52.7809 524.276 55.3707 524.276 58.5697H529.815ZM529.815 60.2158V58.5697H524.276V60.2158H529.815ZM449.885 62.9784H527.045V57.4533H449.885V62.9784ZM447.116 58.5697V60.2158H452.655V58.5697H447.116ZM458.459 47.2559C452.192 47.2559 447.116 52.3195 447.116 58.5697H452.655C452.655 55.3707 455.251 52.7809 458.459 52.7809V47.2559ZM447.116 71.2548V114.154H452.655V71.2548H447.116ZM447.116 114.154C447.116 120.404 452.192 125.468 458.459 125.468V119.943C455.251 119.943 452.655 117.353 452.655 114.154H447.116ZM458.459 125.468H518.472V119.943H458.459V125.468ZM518.472 125.468C524.738 125.468 529.815 120.404 529.815 114.154H524.276C524.276 117.353 521.679 119.943 518.472 119.943V125.468ZM529.815 114.154V71.2548H524.276V114.154H529.815ZM527.045 68.4923H449.885V74.0174H527.045V68.4923Z" fill="#8B4513"/>
<path d="M463.785 79.2217H459.096C457.042 79.2217 455.377 80.8824 455.377 82.9309V87.6079C455.377 89.6564 457.042 91.3171 459.096 91.3171H463.785C465.839 91.3171 467.503 89.6564 467.503 87.6079V82.9309C467.503 80.8824 465.839 79.2217 463.785 79.2217Z" fill="white"/>
<path d="M463.785 97.9854H459.096C457.042 97.9854 455.377 99.646 455.377 101.695V106.372C455.377 108.42 457.042 110.081 459.096 110.081H463.785C465.839 110.081 467.503 108.42 467.503 106.372V101.695C467.503 99.646 465.839 97.9854 463.785 97.9854Z" fill="white"/>
<path d="M481.84 79.2217H476.952C474.898 79.2217 473.233 80.8824 473.233 82.9309V87.6079C473.233 89.6564 474.898 91.3171 476.952 91.3171H481.84C483.894 91.3171 485.559 89.6564 485.559 87.6079V82.9309C485.559 80.8824 483.894 79.2217 481.84 79.2217Z" fill="white"/>
<path d="M481.84 97.9854H476.952C474.898 97.9854 473.233 99.646 473.233 101.695V106.372C473.233 108.42 474.898 110.081 476.952 110.081H481.84C483.894 110.081 485.559 108.42 485.559 106.372V101.695C485.559 99.646 483.894 97.9854 481.84 97.9854Z" fill="white"/>
<path d="M499.697 79.2217H495.008C492.954 79.2217 491.289 80.8824 491.289 82.9309V87.6079C491.289 89.6564 492.954 91.3171 495.008 91.3171H499.697C501.751 91.3171 503.416 89.6564 503.416 87.6079V82.9309C503.416 80.8824 501.751 79.2217 499.697 79.2217Z" fill="white"/>
<path d="M499.697 97.9854H495.008C492.954 97.9854 491.289 99.646 491.289 101.695V106.372C491.289 108.42 492.954 110.081 495.008 110.081H499.697C501.751 110.081 503.416 108.42 503.416 106.372V101.695C503.416 99.646 501.751 97.9854 499.697 97.9854Z" fill="white"/>
<path d="M517.554 79.2217H512.865C510.811 79.2217 509.146 80.8824 509.146 82.9309V87.6079C509.146 89.6564 510.811 91.3171 512.865 91.3171H517.554C519.608 91.3171 521.272 89.6564 521.272 87.6079V82.9309C521.272 80.8824 519.608 79.2217 517.554 79.2217Z" fill="white"/>
<path d="M462.323 39.999H462.322C460.946 39.999 459.83 41.1122 459.83 42.4854V55.273C459.83 56.6462 460.946 57.7594 462.322 57.7594H462.323C463.699 57.7594 464.815 56.6462 464.815 55.273V42.4854C464.815 41.1122 463.699 39.999 462.323 39.999Z" fill="#8B4513"/>
<path d="M496.985 39.999H496.985C495.608 39.999 494.492 41.1122 494.492 42.4854V55.273C494.492 56.6462 495.608 57.7594 496.985 57.7594H496.985C498.362 57.7594 499.478 56.6462 499.478 55.273V42.4854C499.478 41.1122 498.362 39.999 496.985 39.999Z" fill="#8B4513"/>
<path d="M479.654 39.999H479.654C478.277 39.999 477.161 41.1122 477.161 42.4854V55.273C477.161 56.6462 478.277 57.7594 479.654 57.7594H479.654C481.031 57.7594 482.147 56.6462 482.147 55.273V42.4854C482.147 41.1122 481.031 39.999 479.654 39.999Z" fill="#8B4513"/>
<path d="M514.316 39.999H514.316C512.939 39.999 511.823 41.1122 511.823 42.4854V55.273C511.823 56.6462 512.939 57.7594 514.316 57.7594H514.316C515.693 57.7594 516.809 56.6462 516.809 55.273V42.4854C516.809 41.1122 515.693 39.999 514.316 39.999Z" fill="#8B4513"/>
<path fill-rule="evenodd" clip-rule="evenodd" d="M538.166 100.045C545.252 107.114 545.252 118.574 538.166 125.642C531.079 132.71 519.59 132.71 512.503 125.642C505.417 118.574 505.417 107.114 512.503 100.045C519.59 92.9771 531.079 92.9771 538.166 100.045Z" fill="#8B4513"/>
<path d="M538.166 100.045C545.252 107.114 545.252 118.574 538.166 125.642C531.079 132.71 519.59 132.71 512.503 125.642C505.417 118.574 505.417 107.114 512.503 100.045C519.59 92.9771 531.079 92.9771 538.166 100.045Z" stroke="white" stroke-width="4" stroke-linecap="round" stroke-linejoin="round"/>
<path d="M532.592 118.356L525.365 114.057V104.789" stroke="white" stroke-width="4" stroke-linecap="round" stroke-linejoin="round"/>
<path d="M542.547 55.5368C540.399 56.7734 537.653 56.0395 536.414 53.8976C535.174 51.7557 535.91 49.0168 538.057 47.7802C540.204 46.5435 542.95 47.2774 544.19 49.4193C545.43 51.5613 544.694 54.3001 542.547 55.5368Z" fill="#8B4513"/>
<path d="M542.701 69.3647C542.701 70.4771 541.797 71.3788 540.681 71.3788C539.566 71.3788 538.662 70.4771 538.662 69.3647C538.662 68.2523 539.566 67.3506 540.681 67.3506C541.797 67.3506 542.701 68.2523 542.701 69.3647Z" fill="#E1E4E5"/>
<path d="M442.143 65.1001C441.159 65.1001 440.362 65.8953 440.362 66.8762C440.362 67.8571 441.159 68.6523 442.143 68.6523C443.126 68.6523 443.923 67.8571 443.923 66.8762C443.923 65.8953 443.126 65.1001 442.143 65.1001Z" fill="#E1E4E5"/>
<path d="M423.387 109.384C425.288 109.384 426.829 110.921 426.829 112.817C426.829 114.714 425.288 116.251 423.387 116.251C421.486 116.251 419.944 114.714 419.944 112.817C419.944 110.921 421.486 109.384 423.387 109.384Z" fill="#E1E4E5"/>
<path d="M490.245 42.1063C489.141 42.742 487.73 42.3648 487.092 41.2637C486.455 40.1625 486.833 38.7546 487.937 38.1189C489.041 37.4831 490.453 37.8604 491.09 38.9615C491.727 40.0626 491.349 41.4706 490.245 42.1063Z" fill="#E1E4E5"/>
<path d="M456.981 51.1294C457.898 51.1294 458.643 50.3342 458.643 49.3533C458.643 48.3723 457.898 47.5771 456.981 47.5771C456.063 47.5771 455.319 48.3723 455.319 49.3533C455.319 50.3342 456.063 51.1294 456.981 51.1294Z" fill="#8B4513"/>
<path d="M549.862 88.8008C547.431 87.4007 544.322 88.2316 542.918 90.6565C541.515 93.0814 542.348 96.1822 544.779 97.5822C547.21 98.9822 550.319 98.1514 551.722 95.7265C553.126 93.3015 552.293 90.2008 549.862 88.8008Z" fill="#8B4513"/>
<path d="M432.185 83.1185C431.091 82.4888 429.693 82.8625 429.062 83.9531C428.431 85.0437 428.805 86.4382 429.899 87.0679C430.992 87.6976 432.39 87.3239 433.021 86.2333C433.653 85.1427 433.278 83.7481 432.185 83.1185Z" fill="#8B4513"/>
<path d="M438.581 99.9106C437.598 99.9106 436.8 99.1154 436.8 98.1345C436.8 97.1536 437.598 96.3584 438.581 96.3584C439.565 96.3584 440.362 97.1536 440.362 98.1345C440.362 99.1154 439.565 99.9106 438.581 99.9106Z" fill="#E1E4E5"/>
<path d="M539.3 83.9785C539.942 84.3482 540.162 85.167 539.791 85.8073C539.421 86.4476 538.6 86.667 537.958 86.2973C537.316 85.9276 537.096 85.1088 537.467 84.4685C537.837 83.8282 538.658 83.6088 539.3 83.9785Z" fill="#E1E4E5"/>
<path d="M428.728 59.18C430.826 59.18 432.527 57.5367 432.527 55.5094C432.527 53.4822 430.826 51.8389 428.728 51.8389C426.63 51.8389 424.93 53.4822 424.93 55.5094C424.93 57.5367 426.63 59.18 428.728 59.18Z" fill="#E1E4E5"/>
<path d="M507.319 128.729C505.959 128.729 504.857 129.829 504.857 131.185C504.857 132.541 505.959 133.641 507.319 133.641C508.679 133.641 509.781 132.541 509.781 131.185C509.781 129.829 508.679 128.729 507.319 128.729Z" fill="#E1E4E5"/>
</g>
</g>
<defs>
<linearGradient id="paint0_linear_121_3722" x1="440.972" y1="597.871" x2="248.981" y2="-268.927" gradientUnits="userSpaceOnUse">
<stop stop-color="white"/>
<stop offset="1" stop-color="#EEEEEE"/>
</linearGradient>
<linearGradient id="paint1_linear_121_3722" x1="468.293" y1="282.739" x2="379.308" y2="-117.395" gradientUnits="userSpaceOnUse">
<stop stop-color="white"/>
<stop offset="1" stop-color="#EEEEEE"/>
</linearGradient>
<linearGradient id="paint2_linear_121_3722" x1="255.191" y1="492.12" x2="178.883" y2="138.992" gradientUnits="userSpaceOnUse">
<stop stop-color="white"/>
<stop offset="1" stop-color="#EEEEEE"/>
</linearGradient>
<linearGradient id="paint3_linear_121_3722" x1="476.026" y1="-13.6382" x2="506.661" y2="215.235" gradientUnits="userSpaceOnUse">
<stop stop-color="white"/>
<stop offset="1" stop-color="#EEEEEE"/>
</linearGradient>
<linearGradient id="paint4_linear_121_3722" x1="527.844" y1="70.6237" x2="521.733" y2="159.79" gradientUnits="userSpaceOnUse">
<stop stop-color="white"/>
<stop offset="1" stop-color="#EEEEEE"/>
</linearGradient>
<linearGradient id="paint5_linear_121_3722" x1="435.733" y1="35.7272" x2="440.546" y2="134.437" gradientUnits="userSpaceOnUse">
<stop stop-color="white"/>
<stop offset="1" stop-color="#EEEEEE"/>
</linearGradient>
<clipPath id="clip0_121_3722">
<rect width="725" height="483" fill="white"/>
</clipPath>
<clipPath id="clip1_121_3722">
<rect width="198.099" height="131.727" fill="white" transform="translate(388.028 16.3379)"/>
</clipPath>
</defs>
</svg>
