<svg width="691" height="461" viewBox="0 0 691 461" fill="none" xmlns="http://www.w3.org/2000/svg">
<g clip-path="url(#clip0_121_3681)">
<path fill-rule="evenodd" clip-rule="evenodd" d="M470.534 107.816C499.19 107.816 522.632 131.096 522.632 159.554C522.632 188.011 499.19 211.291 470.534 211.291C464.786 211.291 460.078 215.967 460.078 221.676C460.078 227.384 464.786 232.06 470.534 232.06H497.795C511.774 232.06 523.213 243.42 523.213 257.303C523.213 271.185 511.774 282.545 497.795 282.545C485.705 282.545 475.812 292.369 475.812 304.376C475.812 326.282 457.765 344.205 435.706 344.205H200.27C171.615 344.205 148.173 320.925 148.173 292.468C148.173 264.01 171.615 240.73 200.27 240.73H205.309C211.058 240.73 215.766 236.06 215.766 230.346C215.766 224.637 211.064 219.962 205.309 219.962H171.388C157.408 219.962 145.97 208.601 145.97 194.719C145.97 180.853 157.38 169.505 171.335 169.477H198.631C210.721 169.477 220.614 159.652 220.614 147.645C220.614 125.739 238.661 107.816 260.721 107.816H470.534Z" fill="url(#paint0_linear_121_3681)"/>
<path d="M369.15 221.12L359.718 218.249L318.713 217.041L309.465 219.567L310.672 242.117L331.593 255.475L351.886 255.068L364.643 243.436L367.476 231.902L369.15 221.12Z" fill="#F8AE9D"/>
<path d="M250.766 257.385C253.734 251.26 256.578 246.344 259.115 242.462C264.095 234.813 271.712 229.265 280.516 226.874L313.96 217.805C313.96 217.805 315.696 251.248 338.698 251.248C361.7 251.248 366.182 219.887 366.182 219.887L404.884 235.34C406.214 235.857 415.19 238.962 425.632 261.377C435.582 282.72 439.929 293.65 439.929 293.65L400.057 305.171L397.57 341.055L398.419 361.548L277.4 361.276L278.078 337.851L277.573 301.93L276.058 304.383L235.781 288.216C235.781 288.216 240.965 277.569 250.766 257.385Z" fill="#8B4513"/>
<path d="M342.606 233.051C332.791 232.869 321.641 213.71 321.641 213.71L321 164.495C320.487 150.32 329.298 138.243 345.18 138.177L346.654 138.243C361.435 138.949 373.141 149.663 373.536 162.865C373.91 175.152 374.134 188.726 373.654 195.284C372.649 208.858 357.174 206.567 357.174 206.567C357.142 206.567 357.216 213.405 357.174 217.399C357.057 226.368 346.547 233.356 342.606 233.051Z" fill="#F8AE9D"/>
<path d="M325.904 167.196C325.634 167.066 315.061 163.534 314.826 173.984C314.589 184.434 325.657 182.507 325.679 182.206C325.701 181.907 325.904 167.196 325.904 167.196ZM436.493 294.648L452.71 327.217C454.522 330.856 455.37 334.899 455.173 338.96C454.557 351.603 444.128 361.548 431.482 361.548L384.594 360.81L382.941 337.617L418.331 329.078L404.921 303.705L436.493 294.648ZM237.837 289.042C237.837 289.042 227.777 318.949 216.805 346.133C216.583 346.674 216.337 347.685 216.14 348.239C213.665 354.98 221.115 361.548 228.639 361.548L292.042 361.437V340.809L252.601 332.429L266.885 300.687L237.837 289.042Z" fill="#F8AE9D"/>
<path d="M364.914 339.86C364.902 339.934 363.461 339.479 361.06 339.33C358.671 339.17 355.285 339.442 351.911 340.883C348.537 342.325 345.987 344.58 344.461 346.416C342.909 348.252 342.245 349.62 342.183 349.571C342.159 349.558 342.306 349.213 342.638 348.622C342.971 348.03 343.501 347.193 344.252 346.244C345.754 344.334 348.315 341.993 351.763 340.526C355.211 339.06 358.671 338.813 361.084 339.06C362.291 339.17 363.264 339.367 363.917 339.54C364.569 339.7 364.926 339.836 364.914 339.86ZM362.747 334.87C362.722 334.968 361.257 334.242 358.733 334.167C356.22 334.056 352.686 334.82 349.386 336.817C346.087 338.825 343.611 341.364 341.863 343.187C341.025 344.075 340.336 344.814 339.794 345.381C339.302 345.899 339.031 346.181 339.006 346.157C338.982 346.145 339.228 345.824 339.683 345.283C340.325 344.509 340.981 343.749 341.653 343.003C343.365 341.13 345.828 338.53 349.189 336.484C352.551 334.451 356.184 333.711 358.745 333.897C360.026 333.97 361.047 334.204 361.725 334.438C362.069 334.537 362.316 334.66 362.489 334.734C362.661 334.808 362.747 334.857 362.747 334.87Z" fill="#EB996E"/>
<path d="M278.705 337.025H287.806C287.806 337.025 308.345 329.595 312.568 330.309C316.373 330.95 330.3 340.205 333.033 342.04C333.341 342.25 333.563 342.533 333.698 342.878C333.966 343.603 333.943 344.404 333.633 345.112C333.323 345.82 332.75 346.38 332.036 346.674L331.753 346.797L331.876 347.216C332.036 347.733 332.111 348.313 332.085 348.88C331.987 350.839 329.352 351.43 328.355 349.742L328.884 350.678C329.093 351.06 329.204 351.492 329.179 351.923L329.13 352.774C329.104 353.234 328.939 353.675 328.658 354.04C328.376 354.405 327.992 354.676 327.554 354.819C327.138 354.957 326.69 354.972 326.266 354.86C325.842 354.749 325.459 354.516 325.165 354.19C323.405 352.244 319.587 348.35 317.001 347.919C314.711 347.536 310.881 347.487 308.567 347.499C307.993 347.5 307.433 347.675 306.96 348C306.488 348.326 306.125 348.787 305.919 349.323C307.446 349.434 318.122 355.003 321.902 357C323.072 357.617 323.946 358.725 324.094 360.044C324.229 361.227 323.638 362.472 321.299 361.917C316.275 360.746 307.249 356.593 307.249 356.593C307.249 356.593 302.594 355.262 299.577 357.394C295.329 360.389 293.384 361.485 289.739 360.278C286.094 359.07 283.41 357.333 283.41 357.333L276.231 356.618C276.206 356.618 269.421 339.637 278.705 337.025Z" fill="#F8AE9D"/>
<path d="M305.833 340.501C305.846 340.575 307.286 340.119 309.687 339.971C312.076 339.811 315.462 340.082 318.837 341.524C322.21 342.966 324.759 345.221 326.286 347.056C327.838 348.893 328.503 350.26 328.564 350.211C328.589 350.199 328.441 349.854 328.108 349.262C327.633 348.429 327.094 347.634 326.495 346.884C324.993 344.974 322.432 342.633 318.984 341.166C315.536 339.7 312.076 339.454 309.663 339.7C308.707 339.783 307.76 339.944 306.831 340.181C306.178 340.354 305.821 340.476 305.833 340.501ZM308 335.511C308.025 335.609 309.49 334.882 312.014 334.808C314.526 334.697 318.06 335.461 321.36 337.458C324.66 339.466 327.136 342.005 328.884 343.828C329.721 344.715 330.411 345.454 330.953 346.021C331.445 346.539 331.716 346.822 331.741 346.798C331.765 346.785 331.52 346.465 331.064 345.923C330.423 345.15 329.766 344.39 329.093 343.644C327.382 341.77 324.919 339.17 321.558 337.125C318.196 335.091 314.563 334.352 312.002 334.537C310.721 334.611 309.699 334.845 309.022 335.079C308.677 335.178 308.431 335.301 308.259 335.375C308.086 335.448 308 335.498 308 335.511Z" fill="#EB996E"/>
<path d="M291.02 362.127H386.561C387.868 362.128 389.125 361.623 390.068 360.718C391.011 359.813 391.568 358.578 391.622 357.271L394.491 291.468C394.615 288.585 392.312 286.17 389.43 286.17H288.335C285.453 286.17 283.151 288.573 283.262 291.456L285.946 357.271C286.057 359.982 288.298 362.127 291.02 362.127Z" fill="#362518"/>
<path d="M329.229 325.366C329.227 326.65 329.479 327.922 329.97 329.109C330.461 330.296 331.18 331.374 332.088 332.282C332.995 333.19 334.072 333.91 335.258 334.401C336.444 334.893 337.715 335.145 338.998 335.144C340.282 335.145 341.553 334.893 342.739 334.402C343.925 333.911 345.002 333.191 345.91 332.282C346.817 331.374 347.537 330.296 348.028 329.109C348.518 327.922 348.77 326.65 348.769 325.366C348.77 324.082 348.518 322.81 348.028 321.623C347.537 320.436 346.817 319.358 345.91 318.45C345.002 317.542 343.925 316.822 342.739 316.331C341.553 315.84 340.282 315.588 338.998 315.589C333.596 315.589 329.229 319.983 329.229 325.366Z" fill="white"/>
<path d="M329.598 186.234H320.979V223.202H329.598V186.234Z" fill="#F8AE9D"/>
<path d="M326.215 153.203C327.768 155.209 330.508 155.65 332.764 156.048C335.797 156.58 337.298 157.69 338.873 160.671C339.869 162.574 340.867 164.659 342.651 165.69C344.101 166.532 344.049 164.386 344.279 162.724C344.3 162.576 344.33 162.43 344.368 162.286C344.718 160.96 346.13 161.185 346.544 162.495C346.922 163.673 347.73 164.671 348.759 165.225C348.927 165.316 349.106 165.395 349.284 165.361C349.525 165.328 349.714 165.101 349.871 164.897C350.201 164.47 350.529 163.927 350.868 163.353C351.98 161.465 354.086 162.14 355.329 163.945C356.105 165.067 357.029 166.223 358.299 166.483C358.708 166.574 359.223 166.506 359.411 166.11C359.653 165.622 359.276 165.135 359.338 164.636C359.391 164.172 359.59 163.968 359.811 163.571C360.675 162.032 362.655 161.977 363.871 163.255C364.718 164.144 365.601 164.998 366.517 165.815C366.905 166.155 367.472 166.495 367.86 166.155C368.07 165.974 368.123 165.667 368.165 165.373C368.385 163.934 368.595 162.495 368.815 161.056C368.941 160.251 369.372 159.197 370.107 159.401C370.463 159.504 370.673 159.877 370.872 160.217C371.114 160.648 375.427 165.554 375.511 165.18C376.183 162.393 377.558 159.855 378.23 157.067C382.575 139.13 363.295 124.705 348.57 124.626C345.296 124.604 342.305 124.657 339.124 125.416C335.734 126.232 332.155 127.527 329.08 129.351C324.767 131.9 321.502 136.535 322.342 142.065" fill="#362518"/>
<path d="M333.959 147.14C336.125 149.521 336.699 152.87 336.901 156.034C337.198 160.805 336.795 165.762 334.521 169.998C333.874 171.205 333.396 177.171 332.398 176.842C332.079 176.739 332.132 172.111 331.293 169.617C329.997 165.752 324.028 164.279 321.341 166.721C317.051 170.607 319.567 175.327 320.991 178.264C321.841 180.037 323.189 182.026 323.423 183.901C323.71 186.303 323.795 195.053 322.18 197.094C320.831 198.804 319.398 190.539 318.176 188.91C309.138 176.78 300.471 145.893 315.904 139.193C318.251 138.173 325.494 137.648 327.693 138.946" fill="#362518"/>
<path fill-rule="evenodd" clip-rule="evenodd" d="M434.227 155.045H437.101C437.795 155.045 438.355 154.479 438.355 153.789V150.913C438.355 150.218 437.79 149.658 437.101 149.658H434.227C433.894 149.659 433.576 149.792 433.341 150.027C433.106 150.262 432.973 150.581 432.972 150.913V153.789C432.972 153.954 433.004 154.118 433.067 154.27C433.13 154.423 433.222 154.561 433.339 154.678C433.455 154.795 433.594 154.887 433.746 154.95C433.899 155.013 434.062 155.045 434.227 155.045ZM444.192 155.045H447.065C447.398 155.043 447.716 154.911 447.951 154.676C448.186 154.44 448.319 154.122 448.32 153.789V150.913C448.32 150.218 447.755 149.658 447.065 149.658H444.192C443.859 149.659 443.541 149.792 443.306 150.027C443.071 150.262 442.938 150.581 442.937 150.913V153.789C442.938 154.122 443.071 154.44 443.306 154.676C443.541 154.911 443.859 155.043 444.192 155.045ZM454.163 155.045H457.037C457.369 155.043 457.687 154.911 457.922 154.676C458.157 154.44 458.29 154.122 458.291 153.789V150.913C458.291 150.218 457.726 149.658 457.037 149.658H454.163C453.83 149.659 453.512 149.792 453.277 150.027C453.042 150.262 452.91 150.581 452.908 150.913V153.789C452.908 153.954 452.94 154.118 453.003 154.27C453.066 154.423 453.158 154.561 453.275 154.678C453.391 154.795 453.53 154.887 453.682 154.95C453.835 155.013 453.998 155.045 454.163 155.045ZM464.128 155.045H467.002C467.334 155.043 467.652 154.911 467.887 154.676C468.122 154.44 468.255 154.122 468.256 153.789V150.913C468.256 150.218 467.691 149.658 467.002 149.658H464.128C463.433 149.658 462.867 150.223 462.867 150.913V153.789C462.871 154.122 463.005 154.44 463.241 154.675C463.477 154.91 463.795 155.043 464.128 155.045ZM474.094 155.045H476.967C477.662 155.045 478.228 154.479 478.228 153.789V150.913C478.228 150.218 477.662 149.658 476.967 149.658H474.094C473.761 149.659 473.443 149.792 473.208 150.027C472.973 150.262 472.84 150.581 472.839 150.913V153.789C472.84 154.122 472.973 154.44 473.208 154.676C473.443 154.911 473.761 155.043 474.094 155.045ZM444.557 144.171H447.431C448.12 144.171 448.686 143.605 448.686 142.916V140.033C448.684 139.701 448.551 139.382 448.316 139.147C448.081 138.912 447.763 138.78 447.431 138.778H444.557C443.862 138.778 443.303 139.344 443.303 140.033V142.91C443.302 143.075 443.333 143.239 443.396 143.392C443.459 143.545 443.551 143.685 443.667 143.802C443.784 143.919 443.923 144.012 444.075 144.076C444.228 144.139 444.392 144.171 444.557 144.171ZM454.522 144.171H457.396C457.728 144.17 458.047 144.037 458.282 143.802C458.517 143.567 458.649 143.248 458.651 142.916V140.033C458.649 139.701 458.516 139.382 458.281 139.147C458.046 138.912 457.728 138.78 457.396 138.778H454.522C454.19 138.78 453.872 138.912 453.637 139.147C453.402 139.382 453.269 139.701 453.268 140.033V142.91C453.267 143.075 453.298 143.239 453.361 143.392C453.424 143.545 453.516 143.685 453.632 143.802C453.749 143.919 453.888 144.012 454.04 144.076C454.193 144.139 454.357 144.171 454.522 144.171ZM464.487 144.171H467.361C468.057 144.171 468.622 143.605 468.622 142.916V140.033C468.622 139.344 468.057 138.778 467.361 138.778H464.487C464.155 138.78 463.837 138.912 463.602 139.147C463.367 139.382 463.234 139.701 463.233 140.033V142.91C463.233 143.605 463.798 144.171 464.487 144.171ZM454.163 166.727H457.037C457.369 166.726 457.687 166.593 457.922 166.358C458.157 166.123 458.29 165.804 458.291 165.472V162.595C458.291 161.9 457.726 161.34 457.037 161.34H454.163C453.83 161.341 453.512 161.474 453.277 161.709C453.042 161.944 452.91 162.263 452.908 162.595V165.472C452.908 165.637 452.94 165.8 453.003 165.953C453.066 166.105 453.158 166.244 453.275 166.36C453.391 166.477 453.53 166.57 453.682 166.632C453.835 166.695 453.998 166.728 454.163 166.727ZM464.128 166.727H467.002C467.334 166.726 467.652 166.593 467.887 166.358C468.122 166.123 468.255 165.804 468.256 165.472V162.595C468.256 161.9 467.691 161.34 467.002 161.34H464.128C463.433 161.34 462.867 161.906 462.867 162.595V165.472C462.871 165.805 463.005 166.123 463.241 166.358C463.477 166.592 463.795 166.725 464.128 166.727Z" fill="#E1E4E5"/>
<path d="M481.864 222.697C482.041 217.17 483.294 211.52 485.5 206.239C514.234 216.325 505.815 204.479 488.43 200.466C493.108 192.634 500.203 186.28 509.487 183.34C520.73 179.784 534.055 187.882 542.651 199.833C529.131 205.447 532.008 223.313 546.022 205.131C548.828 210.165 550.752 215.586 551.405 220.99C553.046 234.297 546.922 247.357 527.101 253.165C495.155 262.582 481.159 243.52 481.864 222.697ZM501.95 215.903C493.514 216.149 505.321 225.601 511.64 221.025C515.593 218.139 510.404 215.656 501.95 215.903Z" fill="#8B4513"/>
<path d="M534.814 358.616C536.208 250.877 509.504 183.357 509.504 183.357" stroke="#8B4513" stroke-width="2.5" stroke-miterlimit="10"/>
<path d="M541.957 229.701C546.371 248.342 551.294 237.956 545.964 225.706C554.63 218.278 567.339 214.406 581.44 218.542C592.825 221.887 598.225 229.948 599.108 239.03C580.876 238.15 576.428 249.802 599.197 243.342C598.12 263.655 576.675 286.097 549.953 272.279C530.344 262.141 530.891 242.656 541.957 229.701ZM568.38 254.555C578.052 257.142 578.528 250.014 570.074 249.028C564.056 248.324 558.707 251.968 568.38 254.555Z" fill="#8B4513"/>
<path d="M543.145 324.417C538.714 256.774 577.403 222.715 577.403 222.715" stroke="#8B4513" stroke-width="2.5" stroke-miterlimit="10"/>
<path d="M465.831 269.508C456.441 257.257 456.211 237.209 463.43 231.224C470.261 225.557 478.98 224.87 487.381 227.193C485.245 239.937 495.659 245.534 493.17 229.305C512.744 238.054 527.376 261.763 505.596 273.485C489.005 282.392 477.144 280.192 469.431 273.415C497.53 271.62 483.145 264.033 465.831 269.508ZM473.173 248.896C464.983 251.307 466.131 253.878 475.203 254.564C484.257 255.251 483.745 245.816 473.173 248.896Z" fill="#8B4513"/>
<path d="M519.211 323.8C521.912 256.773 469.032 232.271 469.032 232.271" stroke="#8B4513" stroke-width="2.5" stroke-miterlimit="10"/>
<path d="M572.761 316.432H489.35L500.838 348.898C503.78 357.207 511.671 362.783 520.518 362.783H541.61C550.458 362.783 558.348 357.223 561.289 348.899L572.761 316.432Z" fill="white"/>
<path d="M561.289 348.899C558.348 357.223 550.458 362.783 541.61 362.783H520.518C511.671 362.783 503.78 357.207 500.838 348.898L489.35 316.432H572.761L561.289 348.899ZM561.289 348.899L562.737 349.412" stroke="#E1E4E5" stroke-width="4"/>
<path d="M584.541 315.294V310.287H478.606V315.294H584.541Z" fill="#E1E4E5" stroke="#E1E4E5" stroke-width="4"/>
<path d="M160.94 317.09L164.453 360.813H188.76L192.28 317.09H160.94Z" fill="#8B4513"/>
<path d="M158.93 313.147H194.662V319.52H158.93V313.147ZM161.378 313.147H192.215L190.414 305.982H163.186L161.378 313.147Z" fill="#362518"/>
<path d="M169.65 339.358C169.649 340.297 169.834 341.227 170.193 342.095C170.552 342.963 171.079 343.751 171.742 344.415C172.406 345.079 173.194 345.606 174.061 345.965C174.928 346.325 175.858 346.51 176.796 346.509C177.735 346.51 178.664 346.325 179.531 345.965C180.398 345.606 181.186 345.079 181.85 344.415C182.514 343.751 183.04 342.963 183.399 342.095C183.758 341.227 183.943 340.297 183.943 339.358C183.943 338.418 183.758 337.488 183.399 336.621C183.04 335.753 182.514 334.964 181.85 334.3C181.186 333.636 180.399 333.109 179.531 332.75C178.664 332.391 177.735 332.206 176.796 332.206C175.858 332.206 174.928 332.391 174.061 332.75C173.194 333.109 172.406 333.636 171.742 334.3C171.079 334.964 170.552 335.753 170.193 336.621C169.834 337.488 169.649 338.418 169.65 339.358Z" fill="white"/>
<path fill-rule="evenodd" clip-rule="evenodd" d="M233.771 175.345V138.899C233.771 135.123 230.722 132.065 226.957 132.065H186.071C182.306 132.065 179.256 135.123 179.256 138.899V175.345C179.256 176.563 179.581 177.759 180.197 178.809C180.814 179.859 181.699 180.725 182.763 181.318L203.205 192.705C204.217 193.27 205.357 193.566 206.515 193.566C207.674 193.566 208.813 193.27 209.825 192.705L230.269 181.318C231.331 180.724 232.215 179.858 232.831 178.808C233.447 177.758 233.771 176.562 233.771 175.345Z" fill="#E1E4E5"/>
<path d="M217.845 162.202H195.181M217.845 151.577H195.181M217.845 172.522H195.181" stroke="white" stroke-width="2.677" stroke-linecap="round" stroke-linejoin="round"/>
<path d="M94.1074 360.772H583.89C585.801 360.772 587.35 362.323 587.35 364.235C587.35 366.147 585.801 367.697 583.89 367.697H94.1074C92.1963 367.697 90.647 366.147 90.647 364.235C90.647 362.323 92.1963 360.772 94.1074 360.772Z" fill="#E1E4E5"/>
<path d="M205.03 274.45L219.025 288.455C219.535 288.965 219.535 289.792 219.025 290.302C218.516 290.812 217.689 290.812 217.18 290.302L203.185 276.297C202.675 275.787 202.675 274.96 203.185 274.45C203.694 273.94 204.52 273.94 205.03 274.45Z" fill="#E1E4E5"/>
<path d="M206.4 284.477L210.436 288.516C210.946 289.026 210.946 289.853 210.436 290.363C209.927 290.873 209.101 290.873 208.591 290.363L204.555 286.324C204.045 285.814 204.045 284.987 204.555 284.477C205.064 283.967 205.891 283.967 206.4 284.477Z" fill="#E1E4E5"/>
</g>
<defs>
<linearGradient id="paint0_linear_121_3681" x1="326.548" y1="476.739" x2="331.115" y2="-149.386" gradientUnits="userSpaceOnUse">
<stop stop-color="white"/>
<stop offset="1" stop-color="#EEEEEE"/>
</linearGradient>
<clipPath id="clip0_121_3681">
<rect width="691" height="461" fill="white"/>
</clipPath>
</defs>
</svg>
