<svg width="1197" height="214" viewBox="0 0 1197 214" fill="none" xmlns="http://www.w3.org/2000/svg">
<rect x="844" y="193" width="379" height="12" rx="6" fill="#F9F9F9"/>
<rect x="12" y="113" width="397" height="12" rx="6" fill="#F9F9F9"/>
<rect x="413" y="9" width="431" height="12" rx="6" fill="#F9F9F9"/>
<rect x="838" y="199" width="177" height="12" rx="6" transform="rotate(-90 838 199)" fill="#F9F9F9"/>
<rect x="403" y="119" width="104" height="12" rx="6" transform="rotate(-90 403 119)" fill="#F9F9F9"/>
<circle cx="844" cy="199" r="15" fill="#F9F9F9"/>
<path d="M859 15C859 23.2843 852.284 30 844 30C835.715 30 829 23.2843 829 15C829 6.71573 835.715 0 844 0C852.284 0 859 6.71573 859 15Z" fill="#F9F9F9"/>
<circle cx="409" cy="15" r="15" fill="#F9F9F9"/>
<circle cx="408.999" cy="119" r="15" fill="#F9F9F9"/>
<circle cx="15.999" cy="119" r="15" fill="#F9F9F9"/>
</svg>
