<svg width="460" height="420" viewBox="0 0 460 420" fill="none" xmlns="http://www.w3.org/2000/svg">
<path d="M437.235 266.651C440.088 319.182 337.314 425.998 210.638 386.462C151.722 368.073 156.713 337.551 111.913 297.324C85.2107 273.349 46.8437 255.219 36.1725 220.369C26.9537 190.289 32.6071 157.957 48.5885 136.926C84.5316 89.6308 157.094 57.2448 228.59 131.763C300.086 206.281 429.862 131.169 437.235 266.651Z" fill="url(#paint0_linear_323_215)"/>
<path d="M409.062 150.856C399.065 168.684 377.172 171.134 342.097 167.746C315.719 165.194 291.663 163.218 265.282 148.845C246.818 138.791 232.201 125.19 221.533 111.98C209.973 97.6688 193.838 81.3353 201.748 65.109C212.618 42.8185 275.48 24.0459 336.521 54.7462C403.575 88.4805 418.841 133.431 409.062 150.856Z" fill="url(#paint1_linear_323_215)"/>
<path d="M154.621 368.9C131.333 336.342 107.482 301.738 76.2568 284.695C44.0482 267.106 38.1089 277.946 35.8791 295.18C33.6493 312.414 43.5867 353.248 87.5418 376.48C131.508 399.72 176.412 399.372 154.621 368.9Z" fill="url(#paint2_linear_323_215)"/>
<path d="M355.246 48.0625H116.704C107.806 48.0625 100.593 55.2707 100.593 64.1625V135.728C100.593 144.62 107.806 151.828 116.704 151.828H355.246C364.144 151.828 371.357 144.62 371.357 135.728V64.1625C371.357 55.2707 364.144 48.0625 355.246 48.0625Z" fill="white" stroke="#E1E4E5" stroke-width="4"/>
<path d="M337.408 79.9277H184.533C181.166 79.9277 178.437 82.6553 178.437 86.02C178.437 89.3846 181.166 92.1122 184.533 92.1122H337.408C340.774 92.1122 343.504 89.3846 343.504 86.02C343.504 82.6553 340.774 79.9277 337.408 79.9277Z" fill="#E1E4E5"/>
<path d="M279.258 107.108H184.533C181.166 107.108 178.437 109.836 178.437 113.201C178.437 116.565 181.166 119.293 184.533 119.293H279.258C282.625 119.293 285.355 116.565 285.355 113.201C285.355 109.836 282.625 107.108 279.258 107.108Z" fill="#E1E4E5"/>
<path fill-rule="evenodd" clip-rule="evenodd" d="M143.504 126.101C129.152 126.101 117.516 114.31 117.516 99.7651C117.516 85.2212 129.152 73.4287 143.504 73.4287C157.856 73.4287 169.493 85.2212 169.493 99.7651C169.493 114.31 157.856 126.101 143.504 126.101Z" fill="#8B4513"/>
<path d="M152.655 95.376L141.676 107.081L135.085 100.059" stroke="white" stroke-width="3.568" stroke-linecap="round" stroke-linejoin="round"/>
<path d="M355.246 173.075H116.704C107.806 173.075 100.593 180.283 100.593 189.175V260.74C100.593 269.632 107.806 276.84 116.704 276.84H355.246C364.144 276.84 371.357 269.632 371.357 260.74V189.175C371.357 180.283 364.144 173.075 355.246 173.075Z" fill="white" stroke="#E1E4E5" stroke-width="4"/>
<path d="M337.408 204.941H184.533C181.166 204.941 178.437 207.669 178.437 211.034C178.437 214.398 181.166 217.126 184.533 217.126H337.408C340.774 217.126 343.504 214.398 343.504 211.034C343.504 207.669 340.774 204.941 337.408 204.941Z" fill="#E1E4E5"/>
<path d="M279.258 232.122H184.533C181.166 232.122 178.437 234.85 178.437 238.214C178.437 241.579 181.166 244.307 184.533 244.307H279.258C282.625 244.307 285.355 241.579 285.355 238.214C285.355 234.85 282.625 232.122 279.258 232.122Z" fill="#E1E4E5"/>
<path fill-rule="evenodd" clip-rule="evenodd" d="M143.504 251.115C129.152 251.115 117.516 239.323 117.516 224.779C117.516 210.234 129.152 198.442 143.504 198.442C157.856 198.442 169.493 210.234 169.493 224.779C169.493 239.323 157.856 251.115 143.504 251.115Z" fill="#8B4513"/>
<path d="M152.655 220.39L141.676 232.094L135.085 225.072" stroke="white" stroke-width="3.568" stroke-linecap="round" stroke-linejoin="round"/>
<path d="M355.246 298.09H116.704C107.806 298.09 100.593 305.298 100.593 314.19V385.755C100.593 394.647 107.806 401.855 116.704 401.855H355.246C364.144 401.855 371.357 394.647 371.357 385.755V314.19C371.357 305.298 364.144 298.09 355.246 298.09Z" fill="white" stroke="#E1E4E5" stroke-width="4"/>
<path d="M337.408 329.955H184.533C181.166 329.955 178.437 332.683 178.437 336.047C178.437 339.412 181.166 342.14 184.533 342.14H337.408C340.774 342.14 343.504 339.412 343.504 336.047C343.504 332.683 340.774 329.955 337.408 329.955Z" fill="#E1E4E5"/>
<path d="M279.258 357.136H184.533C181.166 357.136 178.437 359.863 178.437 363.228C178.437 366.593 181.166 369.32 184.533 369.32H279.258C282.625 369.32 285.355 366.593 285.355 363.228C285.355 359.863 282.625 357.136 279.258 357.136Z" fill="#E1E4E5"/>
<path fill-rule="evenodd" clip-rule="evenodd" d="M143.504 376.129C129.152 376.129 117.516 364.336 117.516 349.792C117.516 335.249 129.152 323.456 143.504 323.456C157.856 323.456 169.493 335.249 169.493 349.792C169.493 364.336 157.856 376.129 143.504 376.129Z" fill="#8B4513"/>
<path d="M152.655 345.403L141.676 357.109L135.085 350.087" stroke="white" stroke-width="3.568" stroke-linecap="round" stroke-linejoin="round"/>
<path d="M392.022 126.326C391.622 127.817 392.508 129.35 394 129.75C395.493 130.149 397.027 129.264 397.427 127.773C397.827 126.281 396.941 124.748 395.449 124.349C393.956 123.949 392.422 124.834 392.022 126.326Z" fill="#E1E4E5"/>
<path d="M408.191 180.108C410.557 180.108 412.475 178.191 412.475 175.827C412.475 173.463 410.557 171.546 408.191 171.546C405.825 171.546 403.907 173.463 403.907 175.827C403.907 178.191 405.825 180.108 408.191 180.108Z" fill="#8B4513"/>
<path d="M68.6944 316.281C65.145 316.281 62.2676 319.157 62.2676 322.704C62.2676 326.251 65.145 329.126 68.6944 329.126C72.2438 329.126 75.1211 326.251 75.1211 322.704C75.1211 319.157 72.2438 316.281 68.6944 316.281Z" fill="#8B4513"/>
<path d="M53.844 186.236C51.3548 186.236 49.3369 184.22 49.3369 181.732C49.3369 179.245 51.3548 177.229 53.844 177.229C56.3332 177.229 58.3511 179.245 58.3511 181.732C58.3511 184.22 56.3332 186.236 53.844 186.236Z" fill="#8B4513"/>
<path d="M18.1401 266.619C13.6445 266.619 10 262.977 10 258.484C10 253.992 13.6445 250.35 18.1401 250.35C22.6358 250.35 26.2803 253.992 26.2803 258.484C26.2803 262.977 22.6358 266.619 18.1401 266.619Z" fill="#E1E4E5"/>
<path d="M416.574 323.989C412.079 323.989 408.434 320.347 408.434 315.854C408.434 311.362 412.079 307.72 416.574 307.72C421.07 307.72 424.714 311.362 424.714 315.854C424.714 320.347 421.07 323.989 416.574 323.989Z" fill="#E1E4E5"/>
<path d="M71.8551 226.948C72.4275 229.083 71.1598 231.277 69.0236 231.849C66.8874 232.421 64.6916 231.154 64.1192 229.02C63.5468 226.885 64.8145 224.691 66.9507 224.119C69.087 223.547 71.2827 224.813 71.8551 226.948Z" fill="#E1E4E5"/>
<path d="M394.072 233.665C394.644 235.8 393.376 237.994 391.24 238.566C389.104 239.138 386.908 237.871 386.336 235.736C385.763 233.602 387.031 231.407 389.167 230.835C391.304 230.263 393.499 231.53 394.072 233.665Z" fill="#E1E4E5"/>
<path d="M72.6921 142.833C69.7501 142.833 67.365 140.45 67.365 137.51C67.365 134.57 69.7501 132.187 72.6921 132.187C75.6342 132.187 78.0193 134.57 78.0193 137.51C78.0193 140.45 75.6342 142.833 72.6921 142.833Z" fill="#E1E4E5"/>
<g clip-path="url(#clip0_323_215)">
<path d="M407.776 35.9212C403.757 22.8383 369.023 5.95279 341.582 26.9437C328.82 36.7069 332.781 43.7135 325.433 57.5455C321.053 65.7897 313.294 73.6505 313.812 83.1153C314.258 91.2857 318.544 98.6747 324.342 102.38C337.382 110.712 358.042 112.127 368.842 87.5317C379.643 62.9369 418.136 69.6642 407.776 35.9212Z" fill="url(#paint3_linear_323_215)"/>
<path d="M419.599 76.9971C416.856 73.4798 412.047 73.6664 404.582 75.5417C398.969 76.953 393.838 78.164 388.61 82.1237C384.952 84.8937 382.24 88.303 380.369 91.4992C378.34 94.9616 375.39 99.0094 377.63 102.249C380.708 106.7 394.9 108.695 407.078 100.084C420.457 90.6232 422.282 80.4343 419.599 76.9971Z" fill="url(#paint4_linear_323_215)"/>
<path d="M323.63 45.7909C319.776 56.0415 315.918 66.8726 308.862 73.5854C301.584 80.5118 299.242 78.0676 297.428 73.6717C295.615 69.2755 295.347 57.7829 305.334 48.5341C315.324 39.2827 327.236 36.1977 323.63 45.7909Z" fill="url(#paint5_linear_323_215)"/>
<path fill-rule="evenodd" clip-rule="evenodd" d="M331.884 33.6807H391.898C396.635 33.6807 400.471 37.5073 400.471 42.232V43.8781H323.311V42.232C323.311 37.5073 327.148 33.6807 331.884 33.6807ZM323.311 54.9171V97.816C323.311 102.541 327.148 106.367 331.884 106.367H391.898C396.635 106.367 400.471 102.541 400.471 97.816V54.9171H323.311Z" fill="#8B4513"/>
<path d="M400.471 43.878V46.6405C402.001 46.6405 403.241 45.4038 403.241 43.878H400.471ZM323.311 43.878H320.542C320.542 45.4038 321.781 46.6405 323.311 46.6405V43.878ZM323.311 54.9169V52.1544C321.781 52.1544 320.542 53.3913 320.542 54.9169H323.311ZM400.471 54.9169H403.241C403.241 53.3913 402.001 52.1544 400.471 52.1544V54.9169ZM391.898 30.918H331.884V36.4431H391.898V30.918ZM403.241 42.2318C403.241 35.9816 398.164 30.918 391.898 30.918V36.4431C395.105 36.4431 397.702 39.0328 397.702 42.2318H403.241ZM403.241 43.878V42.2318H397.702V43.878H403.241ZM323.311 46.6405H400.471V41.1154H323.311V46.6405ZM320.542 42.2318V43.878H326.081V42.2318H320.542ZM331.884 30.918C325.618 30.918 320.542 35.9816 320.542 42.2318H326.081C326.081 39.0328 328.677 36.4431 331.884 36.4431V30.918ZM320.542 54.9169V97.8159H326.081V54.9169H320.542ZM320.542 97.8159C320.542 104.066 325.618 109.13 331.884 109.13V103.605C328.677 103.605 326.081 101.015 326.081 97.8159H320.542ZM331.884 109.13H391.898V103.605H331.884V109.13ZM391.898 109.13C398.164 109.13 403.241 104.066 403.241 97.8159H397.702C397.702 101.015 395.105 103.605 391.898 103.605V109.13ZM403.241 97.8159V54.9169H397.702V97.8159H403.241ZM400.471 52.1544H323.311V57.6795H400.471V52.1544Z" fill="#8B4513"/>
<path d="M337.21 62.8838H332.521C330.467 62.8838 328.802 64.5445 328.802 66.593V71.27C328.802 73.3185 330.467 74.9792 332.521 74.9792H337.21C339.264 74.9792 340.929 73.3185 340.929 71.27V66.593C340.929 64.5445 339.264 62.8838 337.21 62.8838Z" fill="white"/>
<path d="M337.21 81.6475H332.521C330.467 81.6475 328.802 83.3081 328.802 85.3567V90.0337C328.802 92.0822 330.467 93.7429 332.521 93.7429H337.21C339.264 93.7429 340.929 92.0822 340.929 90.0337V85.3567C340.929 83.3081 339.264 81.6475 337.21 81.6475Z" fill="white"/>
<path d="M355.266 62.8838H350.378C348.324 62.8838 346.659 64.5445 346.659 66.593V71.27C346.659 73.3185 348.324 74.9792 350.378 74.9792H355.266C357.32 74.9792 358.985 73.3185 358.985 71.27V66.593C358.985 64.5445 357.32 62.8838 355.266 62.8838Z" fill="white"/>
<path d="M355.266 81.6475H350.378C348.324 81.6475 346.659 83.3081 346.659 85.3567V90.0337C346.659 92.0822 348.324 93.7429 350.378 93.7429H355.266C357.32 93.7429 358.985 92.0822 358.985 90.0337V85.3567C358.985 83.3081 357.32 81.6475 355.266 81.6475Z" fill="white"/>
<path d="M373.123 62.8838H368.434C366.38 62.8838 364.715 64.5445 364.715 66.593V71.27C364.715 73.3185 366.38 74.9792 368.434 74.9792H373.123C375.176 74.9792 376.841 73.3185 376.841 71.27V66.593C376.841 64.5445 375.176 62.8838 373.123 62.8838Z" fill="white"/>
<path d="M373.123 81.6475H368.434C366.38 81.6475 364.715 83.3081 364.715 85.3567V90.0337C364.715 92.0822 366.38 93.7429 368.434 93.7429H373.123C375.176 93.7429 376.841 92.0822 376.841 90.0337V85.3567C376.841 83.3081 375.176 81.6475 373.123 81.6475Z" fill="white"/>
<path d="M390.979 62.8838H386.29C384.236 62.8838 382.572 64.5445 382.572 66.593V71.27C382.572 73.3185 384.236 74.9792 386.29 74.9792H390.979C393.033 74.9792 394.698 73.3185 394.698 71.27V66.593C394.698 64.5445 393.033 62.8838 390.979 62.8838Z" fill="white"/>
<path d="M335.749 23.6611H335.748C334.372 23.6611 333.256 24.7743 333.256 26.1475V38.9351C333.256 40.3083 334.372 41.4215 335.748 41.4215H335.749C337.125 41.4215 338.241 40.3083 338.241 38.9351V26.1475C338.241 24.7743 337.125 23.6611 335.749 23.6611Z" fill="#8B4513"/>
<path d="M370.411 23.6611H370.411C369.034 23.6611 367.918 24.7743 367.918 26.1475V38.9351C367.918 40.3083 369.034 41.4215 370.411 41.4215H370.411C371.788 41.4215 372.904 40.3083 372.904 38.9351V26.1475C372.904 24.7743 371.788 23.6611 370.411 23.6611Z" fill="#8B4513"/>
<path d="M353.08 23.6611H353.08C351.703 23.6611 350.587 24.7743 350.587 26.1475V38.9351C350.587 40.3083 351.703 41.4215 353.08 41.4215H353.08C354.457 41.4215 355.573 40.3083 355.573 38.9351V26.1475C355.573 24.7743 354.457 23.6611 353.08 23.6611Z" fill="#8B4513"/>
<path d="M387.742 23.6611H387.742C386.365 23.6611 385.249 24.7743 385.249 26.1475V38.9351C385.249 40.3083 386.365 41.4215 387.742 41.4215H387.742C389.119 41.4215 390.235 40.3083 390.235 38.9351V26.1475C390.235 24.7743 389.119 23.6611 387.742 23.6611Z" fill="#8B4513"/>
<path fill-rule="evenodd" clip-rule="evenodd" d="M411.591 83.7074C418.678 90.7757 418.678 102.236 411.591 109.304C404.505 116.372 393.016 116.372 385.929 109.304C378.843 102.236 378.843 90.7757 385.929 83.7074C393.016 76.6392 404.505 76.6392 411.591 83.7074Z" fill="#8B4513"/>
<path d="M411.591 83.7074C418.678 90.7757 418.678 102.236 411.591 109.304C404.505 116.372 393.016 116.372 385.929 109.304C378.843 102.236 378.843 90.7757 385.929 83.7074C393.016 76.6392 404.505 76.6392 411.591 83.7074Z" stroke="white" stroke-width="4" stroke-linecap="round" stroke-linejoin="round"/>
<path d="M406.018 102.018L398.791 97.7186V88.4512" stroke="white" stroke-width="4" stroke-linecap="round" stroke-linejoin="round"/>
<path d="M415.973 39.1989C413.825 40.4355 411.08 39.7017 409.84 37.5597C408.6 35.4178 409.336 32.6789 411.483 31.4423C413.63 30.2056 416.376 30.9395 417.616 33.0814C418.856 35.2234 418.12 37.9622 415.973 39.1989Z" fill="#8B4513"/>
<path d="M416.126 53.0268C416.126 54.1392 415.222 55.0409 414.107 55.0409C412.992 55.0409 412.088 54.1392 412.088 53.0268C412.088 51.9144 412.992 51.0127 414.107 51.0127C415.222 51.0127 416.126 51.9144 416.126 53.0268Z" fill="#E1E4E5"/>
<path d="M315.568 48.7622C314.585 48.7622 313.788 49.5574 313.788 50.5383C313.788 51.5193 314.585 52.3145 315.568 52.3145C316.552 52.3145 317.349 51.5193 317.349 50.5383C317.349 49.5574 316.552 48.7622 315.568 48.7622Z" fill="#E1E4E5"/>
<path d="M296.812 93.0457C298.714 93.0457 300.255 94.583 300.255 96.4794C300.255 98.3758 298.714 99.9131 296.812 99.9131C294.911 99.9131 293.37 98.3758 293.37 96.4794C293.37 94.583 294.911 93.0457 296.812 93.0457Z" fill="#E1E4E5"/>
<path d="M363.671 25.7684C362.567 26.4041 361.156 26.0269 360.518 24.9258C359.881 23.8247 360.259 22.4167 361.363 21.781C362.467 21.1452 363.878 21.5225 364.516 22.6236C365.153 23.7247 364.775 25.1327 363.671 25.7684Z" fill="#E1E4E5"/>
<path d="M330.406 34.7915C331.324 34.7915 332.068 33.9963 332.068 33.0154C332.068 32.0345 331.324 31.2393 330.406 31.2393C329.489 31.2393 328.745 32.0345 328.745 33.0154C328.745 33.9963 329.489 34.7915 330.406 34.7915Z" fill="#8B4513"/>
<path d="M423.287 72.4629C420.856 71.0629 417.748 71.8937 416.344 74.3186C414.94 76.7435 415.773 79.8443 418.204 81.2443C420.636 82.6444 423.744 81.8135 425.148 79.3886C426.552 76.9637 425.719 73.8629 423.287 72.4629Z" fill="#8B4513"/>
<path d="M305.61 66.7806C304.517 66.1509 303.119 66.5246 302.488 67.6152C301.856 68.7058 302.231 70.1004 303.324 70.73C304.418 71.3597 305.816 70.986 306.447 69.8954C307.079 68.8048 306.704 67.4103 305.61 66.7806Z" fill="#8B4513"/>
<path d="M312.007 83.5728C311.024 83.5728 310.226 82.7776 310.226 81.7966C310.226 80.8157 311.024 80.0205 312.007 80.0205C312.991 80.0205 313.788 80.8157 313.788 81.7966C313.788 82.7776 312.991 83.5728 312.007 83.5728Z" fill="#E1E4E5"/>
<path d="M412.726 67.6406C413.368 68.0103 413.588 68.8291 413.217 69.4694C412.846 70.1097 412.026 70.3291 411.384 69.9594C410.742 69.5897 410.522 68.7709 410.892 68.1306C411.263 67.4903 412.084 67.2709 412.726 67.6406Z" fill="#E1E4E5"/>
<path d="M302.154 42.8421C304.252 42.8421 305.953 41.1988 305.953 39.1716C305.953 37.1444 304.252 35.501 302.154 35.501C300.056 35.501 298.356 37.1444 298.356 39.1716C298.356 41.1988 300.056 42.8421 302.154 42.8421Z" fill="#E1E4E5"/>
<path d="M380.745 112.392C379.385 112.392 378.283 113.491 378.283 114.847C378.283 116.203 379.385 117.303 380.745 117.303C382.104 117.303 383.207 116.203 383.207 114.847C383.207 113.491 382.104 112.392 380.745 112.392Z" fill="#E1E4E5"/>
</g>
<defs>
<linearGradient id="paint0_linear_323_215" x1="314.398" y1="581.533" x2="122.407" y2="-285.265" gradientUnits="userSpaceOnUse">
<stop stop-color="white"/>
<stop offset="1" stop-color="#EEEEEE"/>
</linearGradient>
<linearGradient id="paint1_linear_323_215" x1="341.719" y1="266.402" x2="252.734" y2="-133.733" gradientUnits="userSpaceOnUse">
<stop stop-color="white"/>
<stop offset="1" stop-color="#EEEEEE"/>
</linearGradient>
<linearGradient id="paint2_linear_323_215" x1="128.617" y1="475.782" x2="52.3092" y2="122.654" gradientUnits="userSpaceOnUse">
<stop stop-color="white"/>
<stop offset="1" stop-color="#EEEEEE"/>
</linearGradient>
<linearGradient id="paint3_linear_323_215" x1="349.452" y1="-29.976" x2="380.087" y2="198.897" gradientUnits="userSpaceOnUse">
<stop stop-color="white"/>
<stop offset="1" stop-color="#EEEEEE"/>
</linearGradient>
<linearGradient id="paint4_linear_323_215" x1="401.27" y1="54.2858" x2="395.159" y2="143.452" gradientUnits="userSpaceOnUse">
<stop stop-color="white"/>
<stop offset="1" stop-color="#EEEEEE"/>
</linearGradient>
<linearGradient id="paint5_linear_323_215" x1="309.159" y1="19.3893" x2="313.971" y2="118.099" gradientUnits="userSpaceOnUse">
<stop stop-color="white"/>
<stop offset="1" stop-color="#EEEEEE"/>
</linearGradient>
<clipPath id="clip0_323_215">
<rect width="198.099" height="131.727" fill="white" transform="translate(261.454)"/>
</clipPath>
</defs>
</svg>
