<svg width="23" height="20" viewBox="0 0 23 20" fill="none" xmlns="http://www.w3.org/2000/svg">
<path d="M18.1916 14.6978C18.3835 14.8623 18.4913 15.0855 18.4913 15.3182C18.4913 15.5509 18.3835 15.7741 18.1916 15.9386C17.9997 16.1032 17.7394 16.1956 17.468 16.1956C17.1966 16.1956 16.9363 16.1032 16.7444 15.9386L11.3395 11.3029L5.93296 15.9372C5.74105 16.1017 5.48076 16.1942 5.20936 16.1942C4.93796 16.1942 4.67767 16.1017 4.48576 15.9372C4.29385 15.7726 4.18604 15.5494 4.18604 15.3167C4.18604 15.084 4.29385 14.8609 4.48576 14.6963L9.89232 10.062L4.48746 5.42632C4.29555 5.26177 4.18774 5.03859 4.18774 4.80589C4.18774 4.57318 4.29555 4.35 4.48746 4.18546C4.67937 4.02091 4.93966 3.92846 5.21106 3.92846C5.48246 3.92846 5.74275 4.02091 5.93466 4.18546L11.3395 8.82118L16.7461 4.18473C16.938 4.02018 17.1983 3.92773 17.4697 3.92773C17.7411 3.92773 18.0014 4.02018 18.1933 4.18473C18.3852 4.34927 18.493 4.57245 18.493 4.80516C18.493 5.03786 18.3852 5.26104 18.1933 5.42559L12.7867 10.062L18.1916 14.6978Z" fill="#F54025"/>
</svg>
