<svg width="275" height="344" viewBox="0 0 275 344" fill="none" xmlns="http://www.w3.org/2000/svg">
<g clip-path="url(#clip0_382_236)">
<path d="M0.0700674 225.28C-0.0699326 212.38 2.50007 198.62 5.94007 184.95C9.12007 172.32 13.2301 160.03 17.9701 147.91C20.6001 141.19 21.7601 134.03 23.1801 126.95C25.0601 117.57 25.9501 108.03 27.7901 98.6503C28.8301 93.3403 30.1001 88.0803 31.7101 82.9103C33.8601 75.9803 35.3301 68.8403 38.2701 62.1603C40.6801 56.6603 42.9601 51.0903 45.6401 45.7303C47.1901 42.6303 49.4401 39.8703 51.3701 36.9603C56.8601 28.6703 64.1901 22.2803 72.3701 16.7703C74.1401 15.5803 75.9001 14.3603 77.5101 12.9703C84.7701 6.7203 93.2801 3.5403 102.65 1.9003C111.65 0.320298 120.62 -0.389702 129.73 0.200298C138.47 0.770298 147.1 2.1403 155.72 3.5703C168.97 5.7803 180.84 11.0403 191.02 19.7403C197.91 25.6303 204.29 32.0903 209.6 39.5303C216.39 49.0303 223.8 58.1203 229.65 68.2703C232.31 72.8803 235.36 77.2803 237.11 82.4203C240.97 93.7803 244.86 105.14 248.89 116.45C251.44 123.6 252.83 131.1 254.59 138.48C256.52 146.57 259.76 154.26 261.89 162.27C265.66 176.41 271.12 190.07 273.89 204.48C275.03 210.39 275.16 216.41 274.97 222.44C274.75 229.26 275.07 236.12 273.53 242.84C272.47 247.43 270.79 251.81 269.11 256.2C265.25 266.31 259.41 275.15 252.45 283.44C246.05 291.07 238.12 296.85 230.62 303.15C220.95 311.28 210.68 318.62 199.84 325.12C192.83 329.32 185.45 332.55 177.45 334.56C170.14 336.4 162.97 338.75 155.42 339.48C149.26 340.08 143.32 341.91 137.17 342.59C128.72 343.53 120.34 342.78 112.04 341.31C101.02 339.35 89.9201 337.74 79.0401 335.06C71.1701 333.12 63.6901 330.14 56.3501 326.68C52.7701 324.99 49.2001 323.18 45.3301 322.1C39.9301 320.6 35.7801 317.11 31.9501 313.24C23.7101 304.91 16.6901 295.65 11.5301 285.12C7.45007 276.79 5.05007 267.87 3.43007 258.74C1.54007 248.08 -0.349933 237.42 0.0900674 225.26L0.0700674 225.28Z" fill="#010101"/>
<path d="M5.08989 209.97C5.17989 205.79 6.20989 201.76 7.04989 197.7C8.76989 189.41 10.9099 181.22 13.1699 173.06C13.2699 172.7 13.4499 172.36 13.5899 172.01C13.7399 171.92 13.9099 171.92 14.0299 172.04C15.0199 173.07 15.9899 173.19 17.2299 172.26C17.9299 171.74 18.5499 171.37 19.4499 171.68C19.9399 171.85 20.4099 171.58 20.8199 171.32C21.4899 170.89 21.6599 170.28 20.8199 170.02C19.5199 169.62 19.0599 168.6 18.6999 167.54C18.3099 166.41 17.4899 165.87 16.4699 165.8C15.4899 165.74 15.7499 165.31 15.9199 164.78C17.4599 160.29 19.0299 155.82 20.8199 151.42C23.9899 143.63 25.4199 135.39 27.0999 127.2C29.0099 117.88 29.8599 108.4 31.6799 99.0698C33.0099 92.2498 35.1599 85.6498 36.8699 78.9298C39.6999 67.8498 44.2599 57.4598 49.3099 47.2898C53.7599 38.3398 60.0299 30.7398 68.1399 24.7398C74.8499 19.7698 81.4199 14.5998 88.5199 10.1798C91.3899 8.38976 94.6699 7.60976 97.9099 6.90976C103.35 5.72976 108.81 4.61976 114.37 4.16976C119.39 3.94976 124.4 4.14976 129.42 4.16976C138.28 4.53976 147 6.04976 155.72 7.52976C165.46 9.17976 174.36 12.9198 182.61 18.2498C185.59 20.1798 188.36 22.4098 190.81 24.9998C190.83 25.8298 189.76 26.4598 190.55 27.4798C191.6 28.8598 192.41 28.9898 193.68 27.6898C196.65 30.1898 199.26 33.0398 201.67 36.0898C202.12 37.1898 203.22 37.8698 203.58 39.0298C204.58 41.7698 206.32 44.0898 207.8 46.5498C209.51 49.0198 210.59 51.7898 211.56 54.6098C212.21 57.8698 213.41 60.9898 214.17 64.2298C214.19 65.4798 214.32 66.7398 214 67.9698C213.64 69.3298 211.13 70.2698 210 69.4598C209.44 69.0598 209.69 68.5898 209.98 68.1798C210.39 67.5898 210.62 67.0498 210.06 66.4198C209.49 65.7798 208.83 65.5798 208 65.7898C207.37 65.9498 207.06 66.2898 207.15 66.9598C207.23 67.4998 207.16 68.0798 207.29 68.5798C207.69 70.1498 207.28 71.7298 207.4 73.3098C207.5 74.6698 208.05 75.4198 209.07 76.0598C211.39 77.5298 212.23 77.4098 214.02 75.3298C214.2 75.1198 214.35 74.8898 214.52 74.6798C214.83 74.3098 215.09 73.7998 215.67 73.8998C216.23 73.9998 216.39 74.5198 216.51 74.9998C217 76.9598 217.62 78.8798 218.13 80.8298C218.45 82.0898 218.69 83.3798 219.41 84.5098C220.22 85.8998 220.56 87.4698 221.06 88.9598C222.83 94.3098 224.82 99.5698 226.68 104.88C227.25 106.51 227.49 108.09 226.91 109.83C226.34 111.53 226.79 113.31 227.3 114.99C228.03 117.4 229.02 119.71 230 122.03C230.73 123.75 232.13 124.81 233.59 125.75C235.62 127.07 236.8 128.92 237.77 131.07C240.7 137.54 242 144.35 242.51 151.38C243.15 160.03 243.2 168.73 244.79 177.3C245.84 182.99 246.72 188.72 248.27 194.31C249.29 197.99 250.14 201.73 251.05 205.44C251.43 206.99 251.08 208.49 250.88 209.99C250.24 214.93 251.07 219.59 253.54 223.9C254.75 226.01 254.8 228.3 254.9 230.56C255.25 238.08 253.27 245.04 249.59 251.56C249.07 252.32 248.25 252.64 247.46 252.98C246.51 253.39 245.81 253.99 245.6 255.06C244.63 257.73 243.85 260.45 243.35 263.25C243.14 264.4 242.65 265.42 242.12 266.44C238.62 273.08 234.31 279.18 229.46 284.87C226.35 288.51 222.82 291.79 218.93 294.63C218.36 294.85 217.91 295.22 217.49 295.65C216.73 296.42 216.02 297.24 214.88 297.48C214.33 297.6 214.21 298.13 213.97 298.55C213.87 298.67 213.74 298.74 213.58 298.76C211.75 298.42 211.34 296.82 210.79 295.45C210.09 293.71 207.87 292.26 205.57 292.26C203.99 292.26 202.48 293.56 201.91 295.49C201.54 296.75 202.3 297.62 203.02 298.56C204.24 300.18 205.74 301.1 207.77 301.42C208.88 301.59 208.93 302.3 208.09 303.17C207.44 303.83 206.68 304.38 206.08 305.1C201.27 308.79 196.06 311.71 190.24 313.47C189.36 313.47 188.53 313.73 187.69 313.94C185.9 314.38 185.23 313.68 185.62 311.93C185.87 310.83 185.38 309.95 184.51 309.42C183.29 308.69 182.7 307.41 181.71 306.49C181.01 305.84 181.47 304.95 181.43 304.01C180.63 304.6 180.37 305.79 179.22 305.71C178.35 305.39 177.76 304.81 177.57 303.85C176.96 305.42 178.53 305.11 179.09 305.68C177.1 308.3 179.11 310.75 179.46 313.26C179.57 314.03 180.3 314.31 181.15 313.91C181.6 313.7 182.18 313.69 182.4 314.27C182.61 314.82 182.21 315.22 181.77 315.47C180.94 315.93 179.98 315.89 179.08 316.07C178.14 316.26 177.55 315.82 176.89 315.07C176 314.06 175.92 315.49 175.46 315.83C174.43 316.36 173.86 315.79 173.32 314.99C171.99 313.01 171.49 312.9 169.37 314.03C168.66 314.41 168.35 314.17 168.31 313.43C168.29 313.05 168.39 312.67 168.35 312.29C168.2 310.84 167.23 310.51 165.86 310.85C163.88 311.34 163 312.13 162.75 314.37C162.48 316.84 160.05 318.41 158.07 318.22C157.27 317.67 156.85 316.23 155.42 317.16C155.16 317.33 154.84 316.96 154.61 316.72C154.39 316.48 154.2 316.19 153.9 316.06C153.09 315.73 152.33 315.98 151.84 316.6C151.33 317.25 152.13 317.52 152.46 317.87C153.29 318.75 154.24 318.87 155.21 318.11C155.64 317.78 156.08 317.62 156.56 317.9C157.06 318.19 157.17 318.76 156.97 319.2C156.6 320.05 156.93 320.91 156.77 321.75C156.46 322.19 156 322.32 155.5 322.37C154.45 322.33 153.4 322.43 152.44 322.81C151.06 323.35 149.77 322.39 148.41 322.71C148.07 322.79 147.97 322.3 147.84 322C147.45 321.18 146.88 321.03 146.16 321.52C146.07 321.68 146.1 321.77 146.23 321.82C146.75 322.02 147.63 321.82 147.6 322.67C147.57 323.61 146.7 323.62 145.99 323.69C144.89 323.79 143.79 323.86 143.1 324.91C142.55 325.38 141.81 325.32 141.2 325.61C135.53 326.76 129.85 327.88 124.03 328.03C121.58 328.1 119.13 328.39 116.67 328.34C103.46 328.08 90.4299 326.51 77.6499 323.02C77.1199 322.88 76.5599 322.77 76.1099 322.48C71.5199 319.5 66.0099 319.05 61.0899 316.97C60.8899 316.89 60.6699 316.82 60.4499 316.83C55.0999 317.01 50.8299 313.89 46.1199 312.13C39.3599 309.61 34.4199 304.62 29.3999 299.75C27.7999 297.83 26.3899 295.77 24.6499 293.96C23.4799 292.75 22.1999 292.25 20.5699 292.76C16.0199 286.69 13.0599 279.84 10.8499 272.67C7.29989 261.14 5.50989 249.27 4.27989 237.3C4.16989 231.2 4.15989 225.09 4.27989 218.99C4.31989 217.29 4.32989 215.58 4.73989 213.91C5.10989 214.31 4.88989 214.81 4.94989 215.26C5.04989 213.5 4.79989 211.73 5.08989 209.97Z" fill="#DBB169"/>
<path d="M218.7 294.42C223.45 290.5 227.88 286.31 231.72 281.42C235.41 276.73 238.53 271.74 241.61 266.67C242.84 264.65 243.01 262.35 243.62 260.16C244.1 258.43 244.52 256.69 245.27 255.05C245.85 253.98 246.66 253.18 247.85 252.81C248.43 252.63 248.89 252.29 249.21 251.77C250.22 249.42 251.15 247.03 252.26 244.73C253.5 242.17 253.81 239.43 254.14 236.68C254.5 233.65 254.6 230.63 254.19 227.57C254.04 226.46 253.85 225.43 253.29 224.48C250.18 219.21 249.64 213.56 250.73 207.64C251.1 205.65 250.13 203.8 249.68 201.93C248.32 196.23 246.66 190.6 245.62 184.83C244.7 179.71 243.99 174.56 243.25 169.41C242.5 164.16 242.84 158.87 242.29 153.63C241.81 149 241.56 144.31 240.35 139.79C239.35 136.06 237.96 132.45 236.2 128.99C235.18 126.99 233 126.26 231.48 124.8C231.13 124.46 230.6 124.22 230.41 123.81C228.41 119.59 226.09 115.44 226.28 110.57C226.34 109 227.17 107.53 226.55 105.84C224.45 100.12 222.46 94.3502 220.43 88.6002C219.94 87.2202 219.48 85.8302 219.01 84.4402C217.98 81.0702 216.9 77.7202 216.22 74.2602C216.83 73.4602 217.09 74.2602 217.2 74.5802C217.69 76.1302 218.51 75.8802 219.84 75.5302C221.42 75.1102 222.6 74.3402 223.62 73.2002C224.16 72.6102 224.82 72.3602 225.62 72.2802C224.43 70.7102 224.47 70.4702 225.93 69.9902C228.67 74.7002 232.04 79.0702 233.86 84.2902C235.1 87.8502 236.3 91.4302 237.33 95.0502C238.97 100.84 241.09 106.46 243.2 112.08C245.85 119.16 247.75 126.44 249.34 133.82C251.25 142.7 254.35 151.23 257 159.9C260.79 172.27 264.42 184.69 268.13 197.09C270.8 206.05 271.28 215.23 270.96 224.51C270.76 230.29 270.99 236.1 269.64 241.8C268.24 247.72 266.07 253.37 263.66 258.94C259.8 267.87 254.07 275.49 247.71 282.8C241.65 289.76 234.04 294.82 227.23 300.86C225.04 302.8 222.75 304.66 220.24 306.22C219.45 306.57 218.95 306.09 218.7 305.49C218.42 304.82 218.77 304.13 219.34 303.78C220.68 302.96 221.07 301.93 220.46 300.48C220.07 299.56 217.89 297.93 216.91 297.92C216.34 297.92 215.87 298.19 215.41 298.5C214.93 298.82 214.53 299.36 213.82 299.1C213.73 299.02 213.7 298.93 213.72 298.83C213.74 298.73 213.76 298.68 213.78 298.68C214.17 297.95 214.69 297.47 215.53 297.14C216.85 296.62 217.5 295.17 218.7 294.42Z" fill="#C89E57"/>
<path d="M29.3999 299.34C31.5999 301.28 33.9499 303.08 35.9699 305.19C39.6799 309.06 44.5399 310.86 49.2199 313.01C50.7899 313.73 52.3599 314.47 53.9799 315.06C55.6799 315.67 57.2699 316.44 59.2799 316.2C61.3199 315.96 63.1799 317.38 65.1699 317.91C67.3699 318.5 69.5399 319.19 71.7199 319.86C72.4499 320.08 73.2599 320.22 73.8599 320.63C78.2099 323.61 83.3999 323.68 88.2499 324.94C91.5099 325.78 94.8799 326.03 98.1699 326.72C99.6699 327.04 101.21 327.05 102.7 327.13C105.41 327.29 108.12 327.8 110.84 327.55C112.55 327.39 114.19 327.87 115.88 327.89C124.44 328.01 132.88 326.88 141.26 325.26C142.35 324.86 142.91 325.18 143.51 326.29C144.37 327.87 144.73 329.29 144.12 331.05C143.79 332 144 333.09 144.29 334.1C144.51 334.88 144.3 335.39 143.4 335.38C143.29 335.38 143.19 335.24 143.08 335.25C142.98 335.25 142.99 335.37 143.1 335.45C143.15 337.05 141.57 337.07 140.78 337.84C140.7 337.92 140.38 337.75 140.16 337.76C140.32 337.91 140.61 337.87 140.71 338.12C139.29 338.55 137.83 338.74 136.34 338.73C136.29 338.42 136.32 338.18 136.73 338.36C136.65 338.04 136.44 338.26 136.34 338.3C135.62 338.59 134.86 338.53 134.11 338.59C133.89 338.62 134.16 338.87 134.08 338.67C134.06 338.6 134.1 338.55 134.19 338.57C134.82 338.66 135.49 338.35 136.08 338.76C131.73 339.49 127.35 339.3 123.02 338.87C109.57 337.55 96.2999 335 83.1499 332.01C73.4799 329.81 63.9399 326.84 55.1399 322.02C51.7299 320.16 48.0199 318.98 44.4699 317.46C42.1899 316.39 40.1699 314.9 38.0799 313.51C34.6199 310.99 31.9499 307.68 29.1699 304.48C26.2399 301.11 23.4399 297.64 21.1599 293.79C21.8299 292.61 22.7399 292.38 23.9099 293.18C24.7199 293.73 25.4399 294.43 25.9999 295.21C27.0499 296.66 28.2099 298.01 29.3799 299.35L29.3999 299.34Z" fill="#C89E57"/>
<path d="M190.16 313.12C193.23 312.16 196.08 310.77 198.92 309.24C201.35 307.94 203.57 306.35 205.9 304.91C206.94 304.15 207.76 303.13 208.83 302.41C209.17 302.18 209.46 302.01 209.85 302.22C210.08 303.11 209.33 303.46 208.86 303.93C208.25 304.54 207.99 305.17 208.41 305.98C208.61 306.37 208.78 306.8 208.76 307.23C208.64 309.63 210.12 310.75 212.09 311.51C212.4 311.63 212.34 311.95 212.17 312.2C209.69 314.34 206.84 315.97 204.13 317.79C198.14 321.79 191.96 325.48 185.23 328.12C184.07 328.58 182.92 329.09 181.66 329.26C180.91 329.04 180.61 328.44 180.62 327.76C180.64 326.53 179.84 325.63 179.5 324.54C179.23 323.67 178.48 323.64 177.74 323.79C176.88 323.97 177.29 324.6 177.32 325.1C177.36 325.79 177.31 326.21 176.34 326.4C175.32 326.6 175.24 327.78 175.29 328.74C175.31 329.05 175.57 329.33 175.65 329.65C175.73 330 175.96 330.41 175.46 330.65C175.09 330.83 174.66 330.84 174.42 330.48C173.25 328.74 171.5 329.99 170.06 329.61C169.65 329.5 169.91 329.8 169.88 329.97C169.63 331.28 169.19 332.49 167.88 333.15C167.19 333.66 166.4 333.54 165.63 333.49C164.77 333.89 164.15 333.83 164.02 332.7C163.87 331.4 162.83 330.66 162.04 329.77C161.64 329.32 161.11 329 160.79 328.48C160.44 327.91 160.09 327.25 160.58 326.66C161.03 326.11 161.63 326.55 162.07 326.8C163.36 327.53 164.35 327.02 165.31 326.17C166.32 325.28 166.22 324.16 165.02 323.55C164.53 323.3 163.99 323.19 163.45 323.09C162.74 322.96 162.02 322.88 162.03 321.87C162.04 320.95 162.55 320.62 163.37 320.57C164.06 320.52 164.59 320.14 165.11 319.72C167.44 318.79 169.79 317.94 171.88 316.51C172.96 315.77 174.35 316.28 175.54 315.83C175.95 315.64 176.39 315.59 176.81 315.69C179.02 316.23 181.11 315.8 183.09 314.85C185.09 313.9 187.36 314.16 189.39 313.39C189.64 313.29 189.93 313.32 190.14 313.12H190.16Z" fill="#C89E57"/>
<path d="M165.22 320.01C164.83 320.71 164.17 321.03 163.45 320.96C162.59 320.88 162.5 321.3 162.43 321.97C162.33 322.89 163 322.52 163.4 322.63C164.6 322.97 166.08 322.85 166.47 324.52C166.66 325.36 166.34 325.9 165.73 326.51C164.14 328.11 162.56 327.84 160.81 326.57C160.5 328.63 162.29 329.22 163.16 330.27C163.76 330.99 164.37 331.7 164.39 332.53C164.41 333.61 165.03 333.44 165.64 333.49C164.64 334.5 163.31 334.34 162.06 334.48C161.51 334.79 160.83 334.35 160.31 334.8H160.33C158.75 334.87 157.9 334.17 157.65 332.48C157.5 331.46 157.5 330.41 156.86 329.26C156.42 331.37 155.15 330.32 154.13 330.14C153.47 331.79 155.12 334.56 151.92 334.9C152.25 335.11 153.09 334.88 153.1 335.78L153 335.84L152.89 335.79C152.34 336.08 151.67 335.69 151.13 336.09C147.67 336.8 144.24 337.65 140.73 338.1C140.26 338.07 139.8 338.03 139.33 338C139.82 337.8 140.1 336.96 140.79 337.53C140.71 336.14 142.68 337.15 142.72 335.87C142.72 335.61 142.85 335.35 142.93 335.09C143.57 335.03 144.39 335.4 143.84 334.02C143.32 332.71 143.23 331.16 143.99 329.79C144.44 328.99 144.26 328.27 143.75 327.68C143.28 327.13 142.94 326.65 142.87 325.87C142.78 324.88 141.86 325.38 141.29 325.24C141.68 324.62 142.54 325.2 142.93 324.59C144.89 323.36 147.19 323.25 149.34 322.99C151.39 322.74 153.38 322.3 155.4 321.96C155.88 322.01 156.3 321.86 156.71 321.63C156.85 321.51 156.99 321.4 157.15 321.31C159.28 320.52 161.5 320.1 163.73 319.74C164.26 319.65 164.8 319.54 165.25 319.99L165.22 320.01Z" fill="#C8A457"/>
<path d="M225.94 70.0102C224.9 70.5902 224.63 71.1502 225.97 71.7002C226.29 71.8302 226.5 72.0802 226.3 72.4702C226.17 72.7202 226.03 72.9502 225.69 72.8502C224.31 72.4102 223.71 73.6202 223.08 74.3302C222.42 75.0602 221.85 75.6302 220.84 75.6002C220.32 75.5802 219.9 75.8202 219.47 76.0502C218.1 76.8002 217.51 76.5602 217.04 75.0502C216.91 74.6302 216.78 74.2202 216.41 73.9502C216.35 73.8902 216.29 73.8302 216.23 73.7802C215.82 72.7102 216.03 71.4702 215.33 70.4902C214.92 69.2702 214.47 68.0702 214.4 66.7602C213.83 62.5702 212.56 58.5702 211.16 54.6002C210.2 51.8702 209.03 49.2202 207.55 46.7302C206.94 45.0402 205.69 43.6702 205.15 41.9502C205.82 41.0102 206.02 42.4202 206.55 42.2302C208.87 44.7102 210.35 47.7902 212.52 50.3702C217.42 56.1702 221.4 62.6202 225.5 68.9902C225.7 69.3102 225.99 69.5902 225.94 70.0102Z" fill="#C99A57"/>
<path d="M212.17 312.21C211.12 311.66 210.11 311.08 209.29 310.18C209.1 309.97 208.73 309.88 208.57 309.58C207.98 308.48 208.85 307.21 208 306.05C206.92 304.57 208.46 303.91 209.24 303.05C209.46 302.81 209.64 302.54 209.84 302.29C210.25 300.81 212.19 299.19 213.78 299.01C214.84 298.94 215.19 297.69 216.26 297.56C216.99 297.47 219.92 298.44 220.36 299.27C220.99 300.45 221.56 301.71 220.95 303.13C220.79 303.5 220.48 303.51 220.19 303.64C219.5 303.93 218.92 304.44 218.95 305.19C218.98 305.83 219.65 306.05 220.23 306.22C217.74 308.49 215 310.41 212.16 312.2L212.17 312.21Z" fill="#C89957"/>
<path d="M167.89 333.15C167.75 333.09 167.61 333.02 167.48 332.96C168.37 332.59 168.6 331.71 169.11 331.04C169.85 330.08 169.39 329.86 168.22 329.41C170.47 329.03 172.25 329.28 174.01 329.18C174.64 329.15 174.56 329.62 174.57 329.95C174.58 330.39 174.76 330.56 175.16 330.48C175.82 330.36 175.4 329.98 175.25 329.81C174.03 328.41 175.44 327.15 175.45 325.82C175.45 325.23 175.63 325.23 176.71 326.06C177.18 325.84 177.11 325.35 176.96 325.08C176.6 324.4 175.96 323.79 177.22 323.37C178.58 322.91 179.43 323.41 180.01 324.44C180.86 325.96 180.7 327.79 181.65 329.24C180.99 329.49 180.36 329.83 179.68 329.97C175.69 330.8 171.84 332.16 167.89 333.14V333.15Z" fill="#C8A257"/>
<path d="M15.9401 164.8C15.9701 165.01 16.0001 165.23 16.0301 165.44C16.8301 164.75 17.3301 165.82 17.6301 165.82C19.6601 165.78 18.8101 167.65 19.5101 168.44C19.8501 168.82 19.9501 169.29 20.5701 169.46C21.2301 169.64 22.1601 169.76 21.9501 170.83C21.8001 171.58 19.9501 172.61 19.3401 172.19C18.5901 171.69 18.1001 171.83 17.7101 172.46C16.9901 173.6 15.6401 173.04 14.7201 173.66C14.4001 173.87 14.2001 173.55 14.2201 173.12C14.2401 172.68 14.0001 172.29 13.6001 172.03C14.2401 169.58 15.0201 167.18 15.9401 164.82V164.8Z" fill="#D6AA65"/>
<path d="M153.09 335.78C152.33 335.1 151.21 335.39 150.41 334.81C150.46 334.69 150.49 334.53 150.53 334.52C153.69 334.17 153.87 333.93 153.43 330.54C153.39 330.22 153.43 329.89 153.43 329.58C153.97 329.29 154.29 329.75 154.64 329.87C155.66 330.22 156.53 330.57 156.43 328.9C156.41 328.63 156.64 328.37 156.94 328.36C157.31 328.35 157.3 328.68 157.36 328.94C157.61 329.99 158.03 330.98 158.04 332.12C158.04 333.56 158.72 334.62 160.33 334.78C157.95 335.33 155.54 335.7 153.09 335.77V335.78Z" fill="#C79E57"/>
<path d="M193.7 27.7203C193.33 28.1903 193.89 29.0803 192.97 29.3003C192.17 29.5003 191.61 29.0403 191.07 28.6003C189.45 27.2803 189.39 26.2403 190.83 25.0303C191.96 25.7403 192.82 26.7403 193.7 27.7203Z" fill="#D6AB65"/>
<path d="M4.29011 218.99C4.68011 220.04 4.45011 221.14 4.46011 222.21C4.49011 226.71 4.48011 231.21 4.46011 235.72C4.46011 236.25 4.59011 236.81 4.27011 237.31C3.74011 231.21 3.80011 225.1 4.27011 219L4.29011 218.99Z" fill="#CCB48A"/>
<path d="M129.44 4.19962C126.81 4.64962 124.15 4.36962 121.51 4.37962C119.14 4.37962 116.76 4.65962 114.4 4.19962C119.42 3.65962 124.43 3.80962 129.45 4.19962H129.44Z" fill="#D4B684"/>
<path d="M29.4001 299.34C28.0201 298.43 27.1001 297.09 26.1701 295.79C25.6001 294.99 24.9301 294.28 24.1801 293.69C23.2101 292.94 22.1401 292.72 21.1801 293.78C20.7701 293.57 20.7501 293.12 20.5801 292.77C21.6201 291.31 22.9701 292.09 23.8001 292.73C26.1101 294.52 27.8001 296.91 29.4101 299.34H29.4001Z" fill="#D2A55F"/>
<path d="M206.54 42.2201C205.91 42.7101 205.79 41.6101 205.25 41.8001C204.5 41.8001 204.33 41.2201 204.12 40.6801C203.91 40.1401 203.65 39.6301 203.28 39.1801C202.81 38.1301 201.76 37.3801 201.69 36.1201C203.71 37.8301 205.11 40.0401 206.55 42.2201H206.54Z" fill="#C4A05F"/>
<path d="M38.0901 313.5C39.1301 313.25 39.6501 314.11 40.2601 314.62C41.5701 315.73 43.3701 316.07 44.4801 317.45C42.0001 316.7 39.8301 315.45 38.0901 313.5Z" fill="#BBA276"/>
<path d="M5.08999 209.97V215.91C5.01999 215.91 4.94999 215.93 4.87999 215.94C4.82999 215.26 4.78999 214.59 4.73999 213.91C4.75999 212.59 4.68999 211.26 5.08999 209.97Z" fill="#CAB184"/>
<path d="M136.09 338.74H133.74C133.74 338.66 133.74 338.57 133.74 338.49C134.82 338.33 135.9 338.18 137.22 337.99C136.8 338.34 136.58 338.53 136.35 338.72L136.23 338.78L136.1 338.74H136.09Z" fill="#C8A457"/>
<path d="M160.31 334.8C160.8 334.19 161.46 334.51 162.06 334.48C161.52 334.84 160.92 334.81 160.31 334.8Z" fill="#C79E57"/>
<path d="M151.12 336.09C151.63 335.52 152.28 335.82 152.88 335.79C152.33 336.12 151.72 336.1 151.12 336.09Z" fill="#C79E57"/>
<path d="M201.64 201.25C200.98 201.54 200.33 201.68 199.67 201.25C199.06 200.5 199.51 199.96 200.03 199.42C200.75 198.67 201.65 198.15 202.56 197.29C201.41 197.06 201.09 196.48 201.62 195.52C202.14 194.59 201.55 194.18 200.77 194.04C199.55 193.81 198.35 193.78 197.75 195.21C197.58 195.63 197.11 195.84 196.93 196.21C196.35 197.39 195.66 197.38 194.81 196.41C196.19 198 196.19 198.05 194.64 199.26C194.48 199.38 194.15 199.4 194.41 199.69C194.84 200.18 195.18 200.68 194.49 201.2C193.83 201.69 193.16 201.56 192.52 201.12C191.42 200.31 191.74 199.03 191.49 197.95C191.49 197.22 191.89 196.68 192.41 196.14C191.78 196.48 191.7 197.23 191.12 197.53C189.25 198.15 190.23 199.34 190.56 200.39C190.88 201.92 190.56 203.4 190.15 204.86C188.14 205.53 187.76 205.34 187.22 203.41C186.98 202.55 187.47 200.6 188.13 199.82C189.4 198.3 189.26 197.86 187.4 197.21C186.82 197.01 186.22 196.85 186.37 195.85C186.52 194.93 185.92 194.21 184.9 194.03C184.05 194.05 184.25 193.37 184.21 192.92C184.16 192.35 184.21 191.77 184.29 191.2C184.38 190.78 184.66 190.5 184.95 190.22C185.86 189.15 185.65 188.22 184.61 187.38C184.5 187.27 184.41 187.14 184.34 187.01C184.23 186.76 184.07 186.55 183.9 186.34C183.64 186.01 183.25 185.69 183.56 185.22C183.79 184.86 184.21 184.87 184.58 184.94C185.54 185.13 186.48 184.6 187.44 184.89C188.01 185.05 187.96 185.65 188.24 186.02C188.46 186.31 188.78 186.38 189.1 186.25C189.39 186.14 189.56 185.76 189.37 185.61C188.42 184.84 189.07 183.81 188.85 182.93C188.51 182.34 188.68 181.55 188.07 181.08C186.85 181.55 186.15 180.77 185.44 180C185.38 179.79 185.22 180.19 185.39 180.06C185.46 180 185.46 180.06 185.52 180.15C185.81 180.55 185.72 180.93 185.32 181.1C184.49 181.45 183.79 182.2 182.77 181.99C182.46 181.94 182.16 181.87 181.9 181.68C180.4 180.02 180.43 179.41 182.08 177.62C182.84 176.8 183.83 173.1 183.57 172.07C183.1 170.22 181.41 168.83 179.45 168.68C179.23 168.66 179.04 168.56 178.88 168.4C178.56 167.97 178.31 167.4 177.61 167.87C177.49 167.94 177.36 167.99 177.23 168.04C176.65 168.13 176.19 168.42 175.79 168.85C175.65 168.92 175.5 168.96 175.34 168.96C174.11 168.47 174.24 167.48 174.41 166.47C174.53 165.85 175.87 165.76 175.14 164.78C174.58 164.02 174.02 164.16 173.33 164.65C172.84 165 172.07 164.38 172.23 164.24C173.67 162.96 168.64 162.17 172 160.88C172.73 160.6 173.48 160.41 174.23 160.68C174.7 160.85 175.29 160.84 175.42 160.48C175.94 159.06 177.22 159.08 178.33 158.77C179.13 158.55 179.71 158.26 179.67 157.24C179.63 156.21 178.97 156.32 178.32 156.29C177.99 156.27 177.6 156.21 177.59 155.81C177.59 155.4 178 155.37 178.31 155.29C180.04 154.84 181.07 153.59 182.25 152.33C183.35 151.16 184.76 149.84 186.85 150.35C187.95 150.62 188.25 149.71 188.01 148.85C187.74 147.87 188.12 147.63 188.97 147.4C189.94 147.14 190.9 147.12 191.89 147.12C192.29 147.12 192.8 147.15 192.92 147.5C193.69 149.83 195.92 151.75 195.01 154.54C194.82 155.12 194.32 155.61 193.74 156.47C195.97 156.34 198 157.15 199.93 156.51C201.28 156.06 201.54 154.31 201.84 153.11C202.21 151.61 203.1 150.99 204.3 150.38C204.52 151.12 204.14 151.55 203.88 152.01C202.19 154.96 203.01 157.67 206.08 159.18C206.95 159.61 207.9 159.91 208.29 160.74C208.04 159.24 207.53 157.66 207.66 155.99C207.71 155.32 207.5 154.85 207 154.42C205.64 153.24 205.65 153.23 206.32 151.65C206.11 152.02 206.02 152.52 205.41 152.41C204.21 152.19 204.5 151.14 204.3 150.38C206.54 149.56 206.7 149.86 207.73 151.84C208.36 153.04 208.41 154.49 209.57 155.56C210.28 156.21 209.94 157.65 209.71 158.7C209.39 160.2 209.96 160.94 211.4 161.27C212.46 161.51 213.51 161.67 214.59 161.71C214.89 161.72 215.28 161.92 215.34 161.39C215.37 161.07 215.12 160.91 214.87 160.8C214.67 160.71 214.46 160.64 214.27 160.56C213.8 160.35 212.98 160.3 213.24 159.59C213.45 159.01 214.15 158.69 214.87 158.84C215.13 158.89 215.37 159.09 215.63 159.14C216 159.21 216.25 158.94 216.43 158.67C216.7 158.26 216.36 158.07 216.07 157.94C215.68 157.77 215.44 157.25 214.94 157.38C214.44 157.5 214.09 157.24 214.1 156.87C214.12 155.35 213.74 154.78 212.33 155.89C212.19 156 211.85 155.74 211.95 155.52C212.13 155.13 211.96 154.3 212.68 154.5C213.39 154.69 213.79 154.32 214.34 154.11C215.49 153.66 216.98 154.68 217 156.24C217.03 158.14 218.12 158.36 219.54 158.51C220.6 158.62 221.86 158.45 221.69 160.25C221.54 161.79 220.82 162.4 219.34 162.19C218.36 162.05 217.19 163.14 216.45 161.52C216.13 163 216.63 163.84 217.81 164.36C218.37 164.61 219.02 165.03 218.51 165.71C217.84 166.61 218.31 168.62 216.45 168.32C215.22 168.12 215 168.89 215.01 169.5C215.01 170.35 215.5 171.16 216.63 171.12C217.37 171.1 218.38 170.6 218.38 172.03C215.63 172.66 214.88 173.59 214.79 176.58C214.75 177.97 213.68 178.8 212.95 179.75C212.49 180.34 212.01 179.66 211.87 179.09C211.74 178.56 212.01 177.98 211.77 177.47C211.42 176.74 211.37 175.64 210.64 175.36C209.09 174.76 208.04 173.28 206.35 173.06C204.87 172.86 202.89 174.82 202.89 176.36C202.89 179.29 203.56 180.28 206.26 181.41C207.27 181.83 208.37 184.41 208.03 185.47C207.87 185.99 207.55 185.95 207.14 185.89C206.94 185.86 206.77 185.93 206.99 185.89C206.99 185.89 207.01 185.98 207.02 186.04C207.64 186.37 207.91 186.06 208.05 185.48C208.47 183.7 209.81 183.19 211.33 182.35C212.97 181.44 214.28 182.44 215.68 182.01C216.42 181.79 216.8 182.36 216.54 183.11C216.38 183.57 216.14 184 216.02 184.48C215.47 186.01 214.53 186.91 212.76 186.91C211.33 186.91 211.07 187.4 211.33 188.93C211.4 189.35 211.35 189.85 210.96 189.89C209.41 190.05 207.87 191.16 206.21 190.06C205.72 191.23 206.09 191.97 207.24 192.51C208.26 192.99 208.29 193.61 207.43 194.14C207.09 194.35 206.46 194.2 206.52 194.86C206.58 195.51 206.66 196.18 207.06 196.72C207.41 197.2 209.7 197.58 210.09 197.18C210.63 196.61 211.15 196.51 211.84 196.8C212.08 196.9 212.39 196.97 212.59 196.72C212.79 196.47 212.64 196.2 212.52 195.96C212.37 195.67 212.09 195.46 211.98 195.14C211.8 194.62 211.94 194.16 212.31 193.79C212.72 193.38 213.06 193.63 213.45 193.9C214.1 194.36 214.42 194.23 215.23 193.68C216.87 192.57 217.77 191.01 219.03 189.7C219.95 188.75 220.37 188.06 220.46 186.84C220.51 186.08 220.48 185.03 221.65 184.83C221.65 185.76 221.65 186.69 221.65 187.61C221.64 188.97 222.04 190.49 220.04 190.96C219.48 191.09 219.22 191.82 219.07 192.41C218.81 193.43 218.25 194.18 217.26 194.58C216.7 194.8 216.34 195.19 216.41 195.83C216.51 196.79 215.98 197.07 214.9 196.97C215.59 197.47 216.11 197.26 216.59 197.3C217.23 197.34 218.25 196.77 218.28 197.86C218.31 198.69 218.6 199.89 217.3 200.33C216.56 200.58 215.95 201.02 215.49 201.84C215.57 199.87 214.4 199.71 212.9 199.42C211.1 199.07 209.61 199.66 208.02 200.1C207.21 200.32 207.04 201.34 206.23 201.58C204.57 203.33 203.14 201.78 201.64 201.25Z" fill="#DBB06A"/>
<path d="M174.41 166.47C175.05 167.12 174.21 168.62 175.72 168.77C175.83 169.18 175.49 169.33 175.26 169.54C174.23 170.5 173.58 171.59 173.65 173.1C173.71 174.36 173.1 174.7 171.79 174.35C172.42 173.09 172.14 172.44 170.62 172.33C169.26 172.23 167.51 172.99 167.19 174.02C166.39 174.07 165.63 174.08 165.03 174.8C164.65 175.26 164.06 175.54 163.52 174.88C163.63 174.36 163.25 174.41 162.95 174.42C162.87 174.42 162.65 174.38 162.69 174.62C162.79 174.56 162.89 174.56 163.01 174.62C163.34 175.03 163.73 175.39 163.78 175.95C163.38 176.41 163.82 176.54 164.09 176.74C164.22 177.07 164.17 177.36 163.93 177.62C163.12 176.88 161.65 177.54 161.08 176.27C160.95 175.99 160.53 175.64 160.84 175.43C162.24 174.51 161.29 173.71 160.67 173.09C159.48 171.9 159.42 170.05 158.09 168.98C157.64 168.62 157.83 168.14 157.88 167.64C158.08 165.61 158.63 163.44 156.21 162.16C155.75 161.92 155.69 161.44 155.92 160.87C156.54 159.39 156.01 157.97 154.65 157.18C154.36 157.01 154.18 156.83 153.94 157.33C153.16 159.02 152 158.77 150.64 157.97C149.12 157.08 148.72 156.13 149.57 154.93C149.68 154.78 149.94 154.74 150.13 154.66C150.59 155.01 150.9 154.97 151.38 154.54C152.67 153.38 152.62 151.69 153.24 150.27C153.3 150.13 153.26 149.95 153.22 149.78C152.56 147.01 148.13 145.21 145.65 146.71C145.16 146.88 144.62 146.86 144.16 147.12C143.68 147.32 143.36 147.77 142.83 147.88C142.23 147.76 142.04 147.34 142.19 146.83C142.39 146.15 142.24 145.49 142.25 144.82C143.32 144.66 143.35 146.34 144.5 146.09C144.8 146.03 145.15 146.24 145.45 145.81C145 145.66 144.57 145.51 144.13 145.36C145.65 143.77 145.65 142.37 144.16 140.76C143.91 140.49 143.87 140.17 143.91 139.85C144.15 137.84 144.5 135.89 143.98 133.81C143.66 132.54 149.24 129.36 150 130.26C151.57 132.11 153.37 130.99 155.01 130.91C155.96 130.86 156.22 131.22 156.65 131.79C157.26 132.58 156.56 132.74 156.15 133.16C154.68 134.7 154.88 135.82 156.73 136.92C157.29 137.25 157.83 137.59 158.37 137.95C159.14 138.46 159.84 138.53 160.58 137.85C161.02 137.46 161.56 137.13 162.2 137.59C162.7 137.95 162.65 138.45 162.5 138.92C162.26 139.68 161.58 139.55 160.99 139.57C158.44 139.65 157.61 141.27 159.03 143.5C159.4 144.08 159.98 144.46 158.93 144.96C158.52 145.15 158.53 146 158.99 145.97C161.31 145.83 160.52 147.91 160.61 148.69C160.88 151.29 162.38 153.46 162.78 156.01C162.93 156.95 164.49 157.29 165.67 157.06C165.83 157.79 165.3 157.88 164.96 158.08C163.39 158.97 164.23 160.82 163.39 161.99C163.37 162.02 163.64 162.38 163.81 162.42C164.77 162.63 165.39 162.89 164.23 163.76C163.98 163.95 163.92 164.29 164.24 164.42C165.71 165.02 165.93 166.43 166.42 167.67C166.49 167.84 166.78 168.08 166.89 168.04C168.05 167.68 168.81 168.16 169.4 169.12C169.52 169.31 169.84 169.39 169.96 169.19C170.95 167.48 173.03 167.55 174.4 166.46L174.41 166.47Z" fill="#DAAE69"/>
<path d="M104.23 115.9C101.08 115.06 97.8901 114.34 95.0801 112.58C94.4301 112.17 94.2201 112.6 93.9401 113.01C93.5001 113.63 93.1201 114.31 92.5901 114.84C91.9601 115.47 91.1401 115.62 90.3601 115.07C89.6001 114.53 89.3301 113.76 89.7601 112.92C90.8301 110.83 92.2801 108.98 93.7901 107.2C94.2501 106.66 94.9501 106.38 95.7201 106.67C96.5201 106.97 97.0101 107.55 96.9001 108.41C96.8001 109.22 97.3401 109.44 97.8701 109.71C100.35 110.99 102.98 111.8 105.77 112.05C107.49 112.04 109.3 111.76 110.89 112.3C113.35 113.14 115.81 112.66 118.26 112.84C118.53 112.86 118.8 112.85 119.05 112.7C126.37 112.48 133.42 110.97 140.26 108.38C140.98 108.11 141.27 107.83 141.03 106.96C140.78 106.05 141.15 105.19 142.15 104.88C143.05 104.6 143.74 104.97 144.18 105.81C145.07 107.52 146.37 108.93 147.47 110.49C148.19 111.51 148.6 112.62 147.39 113.51C146.17 114.41 145.13 113.77 144.54 112.65C143.83 111.32 143.04 111.38 141.8 111.88C134.08 114.99 125.99 116.38 117.7 116.71C117.11 116.73 116.51 116.81 115.92 116.87C115.5 117.24 115.03 117.06 114.57 116.99C111.99 116.77 109.38 117.33 106.81 116.74C105.92 116.54 104.96 116.61 104.25 115.89L104.23 115.9Z" fill="#020102"/>
<path d="M136.03 154.66C134.42 154.99 132.44 155.97 131.32 154.56C130.12 153.04 128.84 153.06 127.31 153.01C126.12 152.97 125.14 153.18 124.87 154.9C123.97 153.54 122.64 152.85 124.24 151.37C124.96 150.7 123.88 150.03 123.21 150.13C121.97 150.32 120.83 148.8 119.51 149.95C119.42 150.03 118.45 149.24 118.03 148.74C117.42 148.02 117.17 148.11 116.87 148.96C116.55 149.87 113.59 151.29 112.72 150.98C112.04 150.74 111.59 150.21 111.81 149.46C111.98 148.89 112.08 147.99 113.02 148.29C113.86 148.56 114.32 148.12 114.68 147.6C115.74 146.07 117.29 145.66 118.99 145.46C119.88 145.36 121.31 144.6 121.27 144.45C120.83 142.63 123.17 142.38 123.17 141.1C123.17 138.1 125.65 137.11 127.32 135.44C129.2 136.29 129.65 133.45 131.46 133.84C131.97 133.95 133.13 134.65 133.38 133.26C134.52 134.04 135.29 132.64 136.27 132.77C136.87 132.84 137.35 133.16 136.91 134.03C136.4 135.03 135.83 136.07 136.02 137.29C135.53 137.84 134.74 137.83 134.19 138.29C132.99 139.29 132.94 141.14 134.14 142.1C135.39 143.11 136.22 142.85 136.63 141.3C136.74 140.87 136.96 140.17 137.27 140.3C138.6 140.83 137.9 139.52 138.31 139.26C138.53 139.41 138.75 139.58 138.98 139.72C139.97 140.34 140.93 140.87 140.78 142.38C140.71 143.05 141.08 143.88 141.59 144.5C140.84 145.17 139.8 145.24 138.96 145.74C137.54 146.59 136.65 147.81 136.54 149.4C136.44 150.96 135.84 152.49 136.25 154.08C136.31 154.3 136.15 154.49 136.01 154.66H136.03Z" fill="#DAAD69"/>
<path d="M51.9301 161.66C50.8101 162.23 49.7601 161.74 48.8201 160.71C48.5701 160.43 48.0601 160.48 47.7301 160.66C47.0901 161 46.5101 161.61 46.5501 160.15C46.5601 159.73 45.6601 159.85 45.2301 159.94C43.2701 160.32 41.7401 159.25 40.3001 158.3C39.6701 157.88 39.5101 156.72 39.1901 155.87C38.8201 154.88 38.2401 154.36 37.2301 154.99C36.5601 155.4 34.7901 154.93 35.7501 156.83C36.0101 157.35 36.2001 158.53 35.0701 158.84C33.9801 159.14 32.7501 160 31.7501 159.01C31.0601 158.32 30.6101 157.16 31.5701 156.22C32.7001 155.12 32.1401 154.34 31.3301 153.38C30.4201 152.29 30.6201 149.49 31.5201 148.23C32.1901 147.29 34.6701 146.82 36.0601 146.92C37.4501 147.02 38.3001 147.43 39.0001 148.67C39.3201 149.24 40.4601 149.79 41.0801 148.98C41.7901 148.05 42.8501 147.81 43.6901 147.17C44.6701 146.42 45.4101 146.94 45.8601 148C46.4801 149.45 46.4101 151.29 48.1501 152.21C48.7301 152.52 48.4301 153.25 48.1501 153.82C47.6001 154.99 48.1301 155.75 49.3901 155.46C50.2401 155.26 50.6001 155.7 51.0601 156.15C51.7201 156.78 52.2501 157.61 53.4101 157.15C54.0101 156.92 54.0401 157.45 53.8901 157.82C53.5701 158.62 53.6801 159.44 53.7001 160.25C53.7301 161.34 53.3801 161.91 51.9401 161.67L51.9301 161.66Z" fill="#DAAC68"/>
<path d="M179.66 80.19C179.02 78.81 177.51 78.95 176.44 78.66C174.92 78.25 175.26 80.56 174 80.93C173.72 80.85 173.95 80.48 173.94 80.48C171.84 79.74 174.1 78.02 173.17 76.95C172.92 76.66 172.85 75.48 174.08 76.01C174.55 76.21 174.87 75.77 174.93 75.45C175.13 74.39 175.97 74.15 176.91 73.8C176.09 72.67 175.27 71.61 174.52 70.49C173.91 69.58 173.98 68.91 175.31 69.04C177.56 69.26 179.88 69.31 181.92 70.42C182.82 70.91 183.77 71.02 184.7 71.26C185.21 71.39 185.97 71.61 186.19 70.76C186.39 69.97 186.12 69.46 185.26 69.17C184.05 68.76 182.66 68.68 181.82 67.5C181.7 67.33 181.41 67.23 181.36 67.06C181.18 66.45 181.01 66.13 180.2 66.29C179.25 66.48 179.79 66.99 179.8 67.36C179.8 67.71 179.66 67.91 179.37 67.92C179.2 67.92 178.88 67.74 178.86 67.61C178.4 64.85 175.79 63.8 174.31 61.86C174.15 61.65 173.99 61.45 173.53 60.87C174.87 61.41 175.84 61.11 176.88 61.59C177.71 61.97 178.03 60.57 178.62 60C178.71 60.04 178.89 60.08 178.89 60.12C178.87 62.57 180.92 62.13 182.33 62.65C183.21 62.98 182.81 61.04 183.84 61.89C184.34 62.31 184.34 63.1 185.29 63.24C186.27 63.38 187.19 63.98 188.18 64.31C189.98 64.91 191.4 67.77 190.83 69.36C191.22 71.79 188.98 72.53 187.8 73.91C187.1 74.72 186.09 74.28 185.23 73.58C184.89 74.26 185.06 74.89 185.17 75.51C185.38 76.67 185.05 77.34 183.72 77.14C183.45 77.1 183.18 77.09 182.91 77.1C181.99 77.15 181.73 77.51 182.28 78.34C182.96 79.37 183.32 80.43 182.86 81.71C182.54 82.6 181.95 82.65 181.21 82.65C180.38 82.65 180.22 82.21 180.27 81.49C180.3 80.98 179.96 80.58 179.67 80.18L179.66 80.19Z" fill="#D6A865"/>
<path d="M105.13 235.23C105.4 235.18 105.76 235.07 106.13 235.06C107.27 235.01 108.21 234.88 108.68 236.52C109.31 238.7 112.35 239.64 114.39 238.64C114.83 238.42 115.57 238.09 115.68 238.62C115.98 240.06 116.97 239.6 117.84 239.68C118.57 239.75 119.16 240.16 119.44 240.91C119.69 241.6 119.31 242.15 118.86 242.48C117.9 243.2 117.21 244.37 115.75 244.33C115.06 244.31 115.11 244.85 115.26 245.41C115.57 246.55 115.67 247.58 114.06 247.86C113.27 248 112.99 248.95 112.15 249.29C111.14 249.7 110.31 250.1 109.31 249.39C109.11 249.25 108.56 249.21 108.55 249.26C107.89 251 106.49 250.09 105.36 250.23C104.06 250.4 102.92 249.84 102.62 248.57C102.38 247.57 101.63 246.66 102.17 245.51C102.38 245.06 101.92 244.72 101.62 244.41C100.94 243.69 100.36 242.9 100.13 241.92C99.88 240.88 99.59 239.87 100.9 239.17C101.75 238.72 102.16 237.67 103.34 237.51C104.12 237.4 104.25 236.55 104.23 235.78C104.23 235.29 104.09 234.47 105.15 235.22L105.13 235.23Z" fill="#DAAB68"/>
<path d="M215.75 184.51C215.88 183.35 215.58 182.96 214.5 182.68C214 182.55 213.53 182.26 213.05 182.04C212.79 181.92 212.3 181.93 212.35 182.1C213.01 184.22 211.47 182.76 211.05 182.84C209.6 183.12 208.76 184.09 208.44 185.33C208.03 186.9 207.24 186.86 205.99 186.23C206.46 185.67 206.55 184.39 207.72 185.8C207.94 184.63 207.26 183.8 207.17 182.84C207.03 181.51 205.7 181.85 204.87 181.48C204.01 181.1 203.4 180.5 203.02 179.56C202.02 177.09 202.33 174.91 204.07 173.26C205.09 172.3 207.16 172.46 208.66 173.69C209.25 174.18 209.74 174.69 210.61 174.72C211.28 174.74 212.42 177.43 212.25 178.38C212.16 178.87 211.95 179.49 212.55 179.64C213.17 179.8 212.92 178.92 213.17 178.75C214.99 177.52 213.96 175.41 214.74 173.86C215.4 172.55 217.01 171.6 218.37 172.04C218.41 172.31 218.37 172.76 218.49 172.81C219.84 173.36 219.98 174.54 220.36 175.74C220.87 177.35 220.66 178.13 219.01 178.6C218.96 178.61 218.88 178.6 218.85 178.62C218.12 179.27 216.62 178.25 216.32 179.8C217.58 180.1 217.77 181.9 219.25 181.88C219.7 181.88 219.97 182.06 220.01 182.53C218.72 183.47 217.03 183.55 215.74 184.5L215.75 184.51Z" fill="#DAAC68"/>
<path d="M171.79 174.34C173.15 174.36 173.45 173.97 173.18 172.46C172.96 171.27 173.9 169.97 175.05 169.15C175.26 169 175.5 168.89 175.73 168.76C176.09 168.12 176.73 167.95 177.37 167.78C178.02 167.36 178.58 167.42 179.01 168.11C179.23 168.43 179.52 168.48 179.86 168.32C180.1 168.21 180.33 168.1 180.57 168C181.15 169.56 183.44 169.28 183.83 171.29C184.13 172.87 184.42 174.22 183.28 175.5C183.17 175.62 182.95 175.82 182.97 175.85C184.39 177.98 181.37 178.02 181.24 179.47C181.2 179.97 180.86 180.36 181.54 180.61C182.01 180.78 181.94 181.2 181.97 181.57C182.08 182.39 181.64 183.13 181.64 183.96C181.64 185.24 180.64 185.93 179.53 185.34C178.29 184.68 177.77 184.89 177.56 186.22C177.52 186.44 177.29 186.54 177.05 186.48C177.24 185.4 176.61 184.28 177.41 183.17C177.77 182.67 176.87 182.06 176.44 181.65C175.47 180.71 174.29 179.98 174.67 178.32C174.76 177.94 174.35 177.58 174 177.47C172.49 176.96 172.43 175.45 171.79 174.34Z" fill="#D8A967"/>
<path d="M193.39 218.03C192.65 219.08 191.83 219.8 190.42 219.65C188.72 219.47 187.59 218.35 187.67 216.57C187.72 215.34 189.4 213.9 190.73 214.11C191.46 214.23 192.19 214.15 192.85 215.03C193.61 216.04 194.63 214.81 195.33 214.31C195.89 213.92 196.41 213.65 197.21 213.45C196.96 214.44 197.31 215.31 197.21 216.27C197.12 217.11 197.76 218.17 198.62 218.2C199.77 218.24 200.35 219.03 201.07 219.55C201.55 219.9 201.97 220.29 202.4 219.92C202.82 219.57 203.76 219.44 203.4 218.49C203.34 218.34 203.35 218.17 203.34 218.01C203.31 217.2 204.59 216.38 203.7 215.73C202.82 215.09 201.55 215.53 200.46 215.54C200.08 215.54 199.73 216.35 199.31 215.46C198.89 214.54 199.61 214.05 199.91 213.43C200.17 212.9 200.74 213.15 201.02 213.47C201.65 214.19 202.65 214.05 203.35 214.57C204.01 215.06 205.17 214.87 205.14 216.25C205.13 216.9 205.98 216.29 206.38 216.53C206.56 217.1 205.99 217.24 205.81 217.6C205.32 218.57 204.29 219.43 205.98 220.47C206.87 221.01 207.5 222.21 207.92 223.24C208.25 224.04 208.18 225.05 206.86 225.3C206.38 225.39 205.71 225.82 206.15 226.47C206.6 227.14 206.81 226.49 207 226.12C207.02 226.07 207.07 226.02 207.11 226.01C207.57 225.87 209.48 227.82 209.75 228.73C210 229.57 209.6 230.18 208.84 230.39C207.68 230.7 206.88 230.06 206.62 229.01C206.39 228.07 205.93 227.7 205.02 227.44C204.12 227.18 203.38 226.59 203.81 225.36C204.01 224.79 204.25 224.04 203.48 223.62C202.83 223.27 202.15 223.07 201.57 223.8C201.24 224.21 200.84 224.2 200.41 223.94C199.69 223.51 199.18 223.59 198.98 224.51C198.93 224.77 198.78 225.09 198.44 224.97C198.03 224.83 198.17 224.5 198.2 224.16C198.3 223.15 198.22 222.2 196.97 221.87C195.07 221.37 194.43 219.69 193.38 218.05L193.39 218.03Z" fill="#D4A863"/>
<path d="M215.75 184.51C216.71 182.86 218.43 182.84 220.02 182.54C220.08 183.03 219.9 183.76 220.77 183.62C221.95 183.43 221.57 184.28 221.66 184.84C220.96 185.9 220.42 186.97 220.99 188.28C221.36 189.13 220.45 189.45 220.1 189.48C219.1 189.56 218.96 190.17 218.65 190.92C218.16 192.09 217.64 193.4 215.98 193.4C215.79 193.4 215.51 193.52 215.43 193.67C214.61 195.23 213.83 195.3 212.73 193.8C211.4 195.26 214.12 196.09 213.14 197.47C212.69 197.41 212.02 197.49 211.56 197.21C210.87 196.79 210.66 196.9 210.46 197.62C210.29 198.23 209.88 198.35 209.34 197.95C209.13 197.8 208.83 197.62 208.6 197.66C206.48 197.99 206.42 196.4 206.09 195.04C205.9 194.26 205.7 193.53 206.98 193.89C207.43 194.02 207.77 193.84 207.76 193.35C207.76 192.97 207.46 192.81 207.08 192.84C205.69 192.93 205.46 192.06 205.59 190.97C205.67 190.33 205.87 189.7 206.08 188.83C206.56 189.77 207.15 190.66 208.08 190.2C208.98 189.76 209.88 189.88 210.77 189.72C210.99 189.68 211.12 189.48 211.12 189.24C211.11 188.59 210.48 188.59 210.11 188.32C210.96 186.95 212.08 186.3 213.78 186.45C214.91 186.55 215.14 185.23 215.77 184.54L215.75 184.51Z" fill="#D8A766"/>
<path d="M127.67 249.71C128.65 250.3 129.46 250.5 129.63 251.59C129.76 252.42 130.13 253.21 129.43 253.83C128.72 254.46 128.32 253.53 127.77 253.3C127.39 253.13 126.93 253.12 126.51 253.09C125.96 253.05 125.42 252.76 125.38 252.3C125.31 251.43 125.23 250.87 124.23 250.47C123.49 250.18 124.07 249.44 124.52 249.03C125.41 248.21 125.41 247.55 124.37 246.8C123.68 246.3 123.15 245.57 122.51 244.99C121.73 244.29 121.8 243.4 122.02 242.57C122.24 241.74 123.08 241.87 123.69 241.95C125.32 242.19 127.06 241.24 128.6 242.42C128.85 242.61 129.11 242.39 129.33 242.23C129.82 241.87 130.35 241.77 130.81 242.23C131.28 242.69 131.1 243.23 130.85 243.74C130.65 244.14 130.45 244.53 131.02 244.84C131.47 245.09 131.81 245.03 132.17 244.65C132.95 243.84 133.74 243.32 134.42 244.77C134.7 245.36 135 244.95 135.33 244.81C136.57 244.27 137.7 244.39 138.47 245.6C139.25 246.8 138.63 247.67 137.78 248.6C136.88 249.59 135.89 249.99 134.6 249.81C133.54 249.67 132.9 249.99 133.07 251.21C133.16 251.86 133.03 252.47 132.29 252.61C131.64 252.73 131.15 252.36 130.81 251.81C130.52 251.35 130.16 250.91 129.99 250.4C129.64 249.31 128.92 249.36 127.67 249.7V249.71Z" fill="#DAAD68"/>
<path d="M122.66 171.25C121.84 171.6 121.02 171.29 119.82 171.16C120.71 171.77 121.22 172.22 121.92 172.43C123.23 172.82 123.19 174.01 123.14 174.97C123.08 176.1 122.09 176.46 121.02 175.93C120.1 175.48 119.1 175.16 118.54 174.19C118.18 173.57 117.66 173.77 117.1 173.94C113.94 174.92 111.63 171.68 112.16 168.5C112.41 167.02 112.95 165.95 114.37 165.57C115.48 165.27 116.65 164.73 117.81 165.48C118.1 165.66 118.36 165.91 118.66 165.57C118.99 165.2 118.6 165 118.41 164.76C116.69 162.61 116.84 160.74 118.87 158.93C119.46 158.41 120.33 158.36 120.86 158.57C121.7 158.9 120.76 159.43 120.68 159.89C120.61 160.26 120.49 160.63 120.43 161C120.3 161.79 120 162.64 120.58 163.32C120.87 163.66 123.04 162.32 123.22 161.66C123.34 161.23 123.37 160.77 123.89 160.66C124.06 160.63 124.38 160.73 124.44 160.86C124.69 161.37 124.46 161.8 124.09 162.18C123.62 162.66 123.29 163.22 123.25 163.91C123.19 164.99 122.58 165.53 121.58 165.83C120.06 166.29 119.75 166.94 120.42 168.33C120.72 168.96 120.32 169.84 121.1 170.25C121.63 170.54 122.46 170.33 122.67 171.24L122.66 171.25Z" fill="#D9AD68"/>
<path d="M179.66 80.1899C180.25 80.4899 180.59 81.0199 180.53 81.6399C180.45 82.5399 181.03 82.4699 181.57 82.4699C182.12 82.4699 182.24 82.2099 182.42 81.6199C182.78 80.4399 182.63 79.4699 181.92 78.5999C181.55 78.1499 181.2 77.7999 181.38 77.1899C181.61 76.4199 182.34 76.6299 182.76 76.7199C184.73 77.1099 185.15 76.3699 184.62 74.5799C184.47 74.0799 184.3 73.2599 184.95 72.9399C185.52 72.6699 185.65 73.4599 186.01 73.7299C186.91 74.3999 188.13 73.6899 188.5 72.3099C188.62 71.8699 188.27 70.8299 189.31 71.9199C189.65 72.2699 190.22 71.2899 190.44 70.7399C190.61 70.3099 190.32 69.7399 190.8 69.3799C190.55 71.4899 192.37 71.7299 193.63 72.3099C194.59 72.7499 195.4 73.2399 195.03 74.2999C194.58 75.5899 196.56 75.8499 196.01 76.8999C195.56 77.7599 194.85 78.4699 195.07 79.5499C193.26 79.0999 191.83 80.0499 190.47 80.9699C189.06 81.9299 189.87 83.0799 190.47 84.1499C188.76 83.3499 186.95 84.1899 185.21 83.8299C184.79 83.7399 184.22 83.8399 184.31 83.1899C184.4 82.5499 184.91 82.5999 185.3 82.8899C186.28 83.6099 187.23 82.0999 188.38 83.3099C188.21 82.1899 187.52 81.5399 188.24 80.7099C188.67 80.2099 188.1 79.7499 187.42 79.7799C187.1 79.7899 186.66 79.6799 186.49 79.8499C184.82 81.5299 182.87 82.7399 180.63 83.4999C180.37 83.5199 180.16 83.6599 179.97 83.8299C179.75 83.6099 179.53 83.3899 179.31 83.1699C179.13 82.9799 178.79 83.1099 178.65 82.8399C179.88 82.2999 180.2 81.4299 179.63 80.2199L179.66 80.1899Z" fill="#DAAD69"/>
<path d="M165.22 320.01C162.42 320.25 159.76 321.12 157.02 321.65C156.83 320.68 156.84 319.7 156.86 318.72C156.87 317.86 157.25 317.63 158 318.04C160.2 317.89 162.56 315.44 162.59 313.27C162.59 312.83 162.61 312.4 162.59 311.96C162.56 311.16 162.77 310.69 163.72 310.91C164.59 311.1 165.41 311.09 165.96 310.17C166.24 309.69 166.75 309.77 167.12 310.01C167.84 310.46 168.71 310.86 168.8 311.84C168.86 312.52 168.73 313.21 168.66 314.26C169.47 313.04 170.46 312.64 171.54 312.84C172.69 313.06 173.39 313.93 173.76 315.01C174.05 315.86 174.74 315.73 175.38 315.74C175.46 315.81 175.49 315.89 175.46 315.96C175.43 316.03 175.4 316.07 175.38 316.07C171.61 316.4 168.85 319.34 165.21 320.01H165.22Z" fill="#D2AE61"/>
<path d="M81.1799 53.3301C83.4999 51.6901 84.0799 49.2801 84.8399 46.9901C85.0099 46.4701 85.1599 46.0301 85.8199 46.2501C86.2199 46.3801 86.5499 46.4201 86.8199 46.0101C87.3299 45.2501 88.1999 44.4401 88.9099 44.7701C89.6799 45.1201 89.7599 46.3301 89.7499 47.2701C89.7299 48.8001 91.2199 49.9401 90.8299 51.5801C90.7699 51.8301 91.1899 51.9901 91.4599 51.9501C93.1299 51.7401 92.0799 53.7001 93.0999 53.9901C92.9899 54.0801 92.8999 54.2301 92.7799 54.2401C92.4099 54.2901 92.0799 54.3501 92.4299 54.8001C92.5999 55.0201 92.6799 55.5201 93.1199 55.2601C94.3099 54.5701 94.4099 55.6901 95.3099 56.5201C93.9599 56.1901 93.4099 56.6401 92.6899 57.1301C91.8699 57.6901 90.4999 57.4501 89.3699 57.5901C88.5599 57.6901 87.9799 57.8601 87.0999 57.1501C86.3099 56.5101 84.5499 56.5101 83.4599 56.9101C81.8699 57.4801 82.2299 56.5901 82.2099 55.7901C82.2099 55.6301 82.2699 55.4701 82.3299 55.3201C82.7599 54.2601 82.6499 53.4601 81.1499 53.3201L81.1799 53.3301Z" fill="#D79E65"/>
<path d="M93.3201 94.2797C92.4201 96.6797 90.5601 97.6997 88.1301 97.7997C86.1401 97.8797 84.7001 96.8597 83.6601 95.2497C81.9801 92.6397 82.7601 89.4597 85.4401 87.8697C88.1801 86.2397 91.4301 87.0897 92.9201 89.8297C93.0701 90.1097 93.2101 90.4097 93.3601 90.6897C93.7301 91.8897 93.6301 93.0797 93.3201 94.2697V94.2797Z" fill="#020102"/>
<path d="M156.82 92.2998C156.84 95.7298 154.83 97.7598 151.34 97.8198C148.66 97.8598 146.13 95.1898 146.15 92.3398C146.17 89.4998 148.76 87.0498 151.73 87.0498C154.62 87.0498 156.8 89.2998 156.82 92.2998Z" fill="#020102"/>
<path d="M213.78 299.01C212.29 299.89 210.9 300.89 209.84 302.29C208.81 302.55 208.07 303.25 207.34 303.97C206.92 304.37 206.59 304.92 205.9 304.92C206.2 303.97 207.22 303.68 207.75 302.93C207.93 302.68 208.44 302.64 208.33 302.24C208.22 301.83 207.77 301.76 207.41 301.68C206.88 301.56 206.29 301.57 205.83 301.33C205.03 300.93 203.31 301.55 203.78 299.61C203.79 299.56 203.64 299.47 203.57 299.4C200.55 296.52 200.61 294.81 203.69 292.36C204.85 291.44 206.04 291.9 207.2 292.05C207.81 292.12 208.37 292.6 208.97 292.85C210.25 293.39 210.98 294.22 211.26 295.69C211.51 297.03 212.49 298.08 213.79 298.7C213.79 298.81 213.79 298.92 213.79 299.03L213.78 299.01Z" fill="#D7A965"/>
<path d="M207.99 113C207.24 113.17 206.54 112.8 205.85 112.32C203.55 110.72 202.55 106.16 203.98 103.74C205.31 101.48 208.25 101.01 210.09 103.05C211.78 104.92 212.77 107.25 212.15 109.91C211.69 111.86 210.16 112.99 207.99 113Z" fill="#C89E57"/>
<path d="M110.76 110.37C111.82 110.41 112.12 109.27 113.03 108.92C113.78 108.63 112.44 108.52 112.49 107.99C112.64 106.18 111.72 104.75 110.71 103.38C110.47 103.05 110.43 102.49 109.82 102.6C109.56 102.64 109.48 102.87 109.47 103.09C109.46 103.57 109.29 104.12 109.71 104.48C110.05 104.77 110.79 104.59 110.86 105.19C110.95 105.99 110.19 105.37 109.91 105.66C109.43 106.16 110.71 107.07 109.63 107.23C109.06 107.31 109.16 106.04 108.37 105.92C107.95 105.85 107.53 105.76 106.91 105.64C108.48 103.87 106.64 103.4 105.84 102.51C105.14 102.38 105.55 101.68 105.17 101.23C104.75 101.97 104.26 102.54 104.5 103.44C104.63 103.93 104.49 104.24 103.81 104.44C103.16 104.63 102.63 105.33 102.31 106.04C102.23 106.23 102 106.55 102.14 106.56C103.42 106.69 103.04 107.93 103.46 108.59C103.92 109.32 103.99 110.31 104.23 111.2C103.84 111.28 103.46 111.13 103.45 110.72C103.43 110.02 103.18 109.97 102.66 110.27C101.82 110.77 101.45 111.31 101.17 109.58C100.97 108.37 100.42 107.31 100.93 106.03C101.34 104.98 100.24 105.84 100.07 105.41C102.67 103.63 104.36 101.02 106.26 98.59C106.52 98.26 106.59 97.86 106.36 97.52C106.1 97.14 105.68 97.22 105.32 97.38C105 97.52 104.71 97.96 104.36 97.47C104.28 97.35 104.23 97.14 104.28 97.01C104.5 96.39 104.91 96.89 105.23 96.87C105.95 96.83 106.67 95.86 107.4 96.87C107.49 96.99 107.8 97.06 107.79 97.13C107.53 99.24 109.28 98.47 110.18 98.71C111.96 99.19 111.98 100.7 112.25 101.99C112.34 102.42 112.23 102.96 112.51 103.35C113.26 104.38 113.75 105.4 113.41 106.76C113.15 107.78 114.14 107.93 115.04 108.28C113.4 109.2 114.09 110.76 113.7 112.01C112.94 111.87 112.27 111.44 111.45 111.43C110.95 111.43 110.37 111.12 110.75 110.37H110.76Z" fill="#D5AB63"/>
<path d="M136.03 154.66C135.35 152.4 135.82 150.15 136.48 148.04C137.21 145.7 139.18 144.65 141.6 144.49C141.82 144.6 142.04 144.71 142.25 144.82C142.67 145.23 143.05 145.59 142.7 146.3C142.49 146.73 142.04 147.4 142.9 147.77C143.57 147.78 143.59 147.15 143.89 146.79C144.4 146.48 144.95 146.43 145.53 146.46C144.55 148.53 145.3 150.67 147.45 151.85C148.09 152.2 148.71 152.53 148.81 153.35C148.79 154.27 148.49 154.72 147.71 153.85C147.08 153.14 146.38 152.81 145.61 153.39C143.9 154.69 142.98 153.39 141.98 152.37C141.78 152.16 141.78 151.72 141.34 151.8C141.02 151.86 140.93 152.14 140.94 152.42C140.97 153.27 140.44 153.4 139.77 153.35C138.32 153.23 137.47 154.81 136.01 154.66H136.03Z" fill="#D4A162"/>
<path d="M185.62 289.01C186.28 289.08 185.22 290.69 186.87 290.14C188.33 289.65 188.28 289.59 187.24 288.63C186.48 287.92 186.52 286.69 186.24 285.68C186.19 285.5 186.21 285.12 186.46 285.17C187.8 285.43 189.05 284.37 190.22 284.7C191.03 284.93 191.65 286.06 192.22 286.88C192.63 287.46 193.1 287.98 193.76 288.55C192.65 288.87 192.59 289.76 192.82 290.51C193.17 291.65 192.33 292.44 192.1 293.38C191.9 294.21 190.45 293.88 189.6 294.08C188.73 294.28 188.03 294.58 187.35 295.08C186.83 295.47 186.13 295.67 185.75 295.12C185.51 294.77 185 293.85 186.16 293.65C186.45 293.6 186.49 293.34 186.32 293.17C186.14 293 185.87 292.87 185.63 292.82C185.35 292.76 185.09 292.83 185.14 293.25C185.16 293.44 185.07 293.65 184.96 294.17C183.86 292.17 182.4 291.95 180.76 292.77C180.34 292.49 180.44 292.28 180.73 292.12C180.97 291.99 181.23 291.9 181.48 291.8C182.04 291.58 182.44 291.51 181.79 290.74C181.33 290.2 182.42 289.6 182.48 288.83C182.5 288.5 183.23 288.55 183.53 289.01C184.24 290.11 184.95 289.05 185.64 289.01H185.62Z" fill="#D8A965"/>
<path d="M35.6399 136.94C35.5299 136.94 35.4199 136.94 35.3099 136.94C34.0999 137.92 32.8999 137.91 31.6999 136.94C29.2199 134.97 28.2199 131.71 29.2099 128.84C29.8999 126.85 31.8399 126.19 33.6699 127.29C35.4399 128.35 36.5299 130.01 37.6099 131.69C38.5399 133.85 37.6899 136.12 35.6399 136.94Z" fill="#C89E57"/>
<path d="M115.25 75.7001C114.9 76.9901 114.31 78.3801 114.15 79.8901C114.1 80.3501 113.58 80.7501 113.18 80.3501C111.24 78.4401 108.99 79.6501 106.86 79.6501C106.58 79.6501 106.17 79.7201 106.24 79.4601C106.55 78.3101 105.82 77.6301 105.34 76.7601C105.1 76.3401 104.92 75.3701 105.81 74.9101C106.28 74.6601 106.18 74.1901 106.04 73.7501C105.51 72.1401 106.33 71.3001 107.96 71.2601C110.02 71.2101 111.73 72.6101 113.82 72.3801C114.53 72.3001 115.22 73.9801 115.26 75.7001H115.25Z" fill="#D8AB66"/>
<path d="M175.39 316.07V315.74C175.42 315.1 175.24 314.31 176.15 314.16C176.97 314.02 177.53 314.42 177.59 315.3C177.61 315.7 177.84 315.73 178.12 315.73C179.32 315.73 180.48 315.46 181.63 315.16C181.91 315.09 182.24 314.77 182.11 314.4C181.97 314.01 181.58 314.08 181.28 314.2C180 314.7 178.81 314.17 178.73 312.84C178.64 311.28 178.1 309.87 177.65 308.43C177.22 307.05 178.45 306.47 179.01 305.57C180.08 305.41 180.47 304.55 180.92 303.75C181.09 303.44 181.22 302.95 181.72 303.15C182.08 303.29 182.03 303.74 181.95 304.02C181.21 306.68 183.22 307.75 184.85 309C185.73 309.67 186.45 311.47 186.12 312.31C185.99 312.65 185.13 312.73 185.67 313.26C186.09 313.68 186.7 313.9 187.33 313.68C188.25 313.35 189.16 313 190.17 313.11C189.03 314.26 187.41 313.91 186.06 314.42C182.63 315.7 179.09 316.34 175.41 316.06L175.39 316.07Z" fill="#D4A663"/>
<path d="M190.16 204.85C190.1 204.48 189.42 204.09 189.75 203.91C191.55 202.92 189.71 202.79 189.36 202.21C190.13 201.94 191.04 201.65 190.16 200.59C191.16 199.69 191.87 201.12 192.78 200.92C193.41 201.32 194.22 201.4 194.5 200.73C194.88 199.8 193.49 199.99 193.27 199.3C193.42 198.8 193.87 198.95 194.22 198.95C194.84 198.95 195.28 198.71 195.47 198.11C195.72 197.33 195.04 197.4 194.64 197.21C194.26 197.02 194.1 196.7 194.12 196.27C194.14 195.97 194.28 195.78 194.59 195.69C195.15 195.54 195.16 195.95 195.32 196.3C195.45 196.59 195.69 196.9 196.06 196.83C196.47 196.75 196.13 196.25 196.22 196.19C197.14 195.58 197.37 194.29 198.2 193.81C199.13 193.27 200.38 193.21 201.49 193.71C202.4 194.12 202.79 194.81 202.08 195.63C201.74 196.02 201.46 196.38 201.83 196.69C202.34 197.12 202.2 195.97 202.83 196.19C202.98 197.08 203.14 197.76 201.97 198.39C200.94 198.94 199.57 199.59 199.67 201.22C199.13 201.23 198.6 201.16 198.24 201.75C197.52 202.93 196.5 203.12 195.28 202.55C194.51 202.19 193.94 202.11 193.54 203.16C192.97 204.69 191.53 204.77 190.15 204.83L190.16 204.85Z" fill="#D5A863"/>
<path d="M230.18 134.32C229.8 135.13 228.79 135.81 229.74 136.9C230.02 137.22 229.66 137.6 229.41 137.89C229.21 138.12 228.87 138.36 229.24 138.7C229.52 138.95 229.82 138.9 230.12 138.67C230.9 138.08 231.45 137.94 231.93 139.12C232.23 139.85 232.94 140.63 234 139.87C234.23 139.7 234.52 139.55 234.68 139.87C234.85 140.23 234.6 140.51 234.26 140.62C233.53 140.86 232.94 141.34 232.3 141.72C231.54 142.18 230.79 142.36 230.1 141.34C229.57 140.56 228.69 140.02 227.94 139.4C227.7 139.2 227.28 138.88 227.12 138.97C226.3 139.4 225.87 138.59 225.38 138.5C223.33 138.12 223.08 136.21 221.98 135.07C220.69 133.74 221.67 132.07 221.47 130.56C221.39 130 222.55 130.42 222.65 129.7C222.76 129.3 222.99 128.99 223.3 128.72C224.1 129.17 224.93 129.88 225.34 128.3C225.45 127.89 225.84 127.6 226.26 127.41C226.71 127.99 226.27 128.47 226 128.89C224.56 131.15 226.38 134.55 229.3 133.99C229.63 133.93 229.95 134.03 230.19 134.3L230.18 134.32Z" fill="#D8AE67"/>
<path d="M148.82 153.35C148.21 152.83 147.47 152.46 146.89 151.97C146.25 151.43 144.37 151.44 145.41 149.71C145.46 149.63 145.21 149.36 145.08 149.2C144.02 147.88 144.09 147.44 145.54 146.46C146.39 145.6 147.32 145.8 148.47 145.74C151.16 145.61 151.75 147.91 153.35 148.95C153.94 149.34 153.77 150.04 153.7 150.62C153.6 151.37 152.09 151.97 153.5 152.89C153.61 152.96 153.18 153.24 152.98 153.41C152.49 153.8 151.78 153.99 151.75 154.81C151.73 155.23 151.48 155.55 151.04 155.58C150.42 155.62 150.19 155.21 150.14 154.65C150.61 153.9 150.29 153.58 148.83 153.34L148.82 153.35Z" fill="#D19A60"/>
<path d="M106.06 68.6101C106.8 66.8801 108.7 66.8501 109.75 65.5401C110.16 65.0201 111.11 64.9701 111.2 63.8901C111.25 63.1901 111.92 63.7101 112.26 63.8001C113.15 64.0101 113.97 64.2801 114.18 62.9301C114.32 61.9601 115.12 62.9601 115.49 62.5801C115.6 62.3101 115.42 62.2001 115.23 62.0901C113.46 61.0001 113 60.0801 113.52 58.7101C114.12 57.1101 116.33 55.4601 117.67 55.6101C117.78 55.6201 117.89 55.6201 117.99 55.6701C118.86 56.0601 119.64 59.5601 118.97 60.2601C118.09 61.1901 117.31 62.0101 117.2 63.4901C117.08 65.0801 115.74 65.9401 114.16 65.6101C112.02 65.1501 111.3 66.7301 110.41 67.9901C109.18 69.7301 108.92 69.8701 106.91 69.0201C106.61 68.8901 106.33 68.7501 106.06 68.6201V68.6101Z" fill="#D9A667"/>
<path d="M140.18 275.04C142.07 275.45 142.85 273.78 143.98 272.77C144.58 272.23 145.09 271.6 145.84 271.25C146.25 272.13 147.04 272.69 147.34 273.75C148.47 277.86 146.15 279.69 143.51 280.8C141.84 281.5 140.51 280.49 139.39 279.49C138.17 278.4 138.48 276.82 138.73 275.4C138.88 274.55 139.63 275.15 140.18 275.04Z" fill="#D1AD5E"/>
<path d="M214.76 66.7397C215.09 67.9397 215.42 69.1497 215.74 70.3497C216.07 71.5297 216.13 72.7597 216.4 73.9597C216.75 76.7597 217.86 79.3697 218.5 82.0897C218.69 82.8797 218.85 83.6697 219.02 84.4497C218.05 83.4697 218.09 82.1097 217.72 80.9097C217.03 78.6497 216.44 76.3697 215.72 73.7897C214.69 75.2497 213.7 76.2997 212.65 77.2997C212.05 77.8697 211.74 77.8997 211.02 77.4797C209.87 76.7997 208.5 76.4897 207.54 75.4397C207.07 74.9197 206.69 74.4197 207.02 73.7097C207.26 73.1997 207.18 72.7797 206.79 72.3797C206.37 71.9597 205.96 71.5197 206.94 71.2597C207.21 71.1897 207.51 70.9097 207.28 70.6597C206.2 69.4897 207.34 67.9797 206.64 66.7497C206.42 66.3697 206.52 65.7397 206.98 65.6197C207.79 65.4097 208.63 64.9097 209.47 65.2997C210.9 65.9597 211.18 67.1597 210.27 68.4197C210.11 68.6397 209.85 68.8397 210.02 69.1197C210.18 69.3797 210.58 69.4397 210.74 69.2897C211.49 68.5997 212.55 69.8997 213.25 68.7997C213.77 67.9797 213.77 67.0997 213.83 66.2197C213.87 65.6297 213.79 65.0297 213.76 64.4297C214.76 64.9097 214.14 66.0797 214.74 66.7297L214.76 66.7397Z" fill="#D8AB66"/>
<path d="M104.23 115.9C107.74 116.43 111.28 116.65 114.81 116.87C113.85 117.46 112.71 116.72 111.74 117.26C110.29 119.31 108.45 120.61 105.81 120.65C105.31 120.65 104.24 120.63 104.4 121.8C104.43 122.05 104.08 122.23 103.95 122.12C102.5 120.87 100.64 122.17 98.71 121.13C100.68 121.37 99.69 119.97 100.23 119.43C101.37 118.29 102.04 116.62 103.86 116.22C104 116.19 104.1 116.02 104.22 115.91L104.23 115.9Z" fill="#D5AB64"/>
<path d="M81.4199 248.16C79.6699 248.95 79.3299 247 78.6999 246.19C78.1799 245.53 77.9699 244.09 79.1899 243.03C80.3299 242.04 81.1099 240.74 82.8499 241.81C82.9799 241.89 83.2399 241.74 83.4399 241.7C84.1099 241.57 84.7999 240.82 85.4099 241.3C86.3699 242.05 86.7399 244.58 86.2299 245.58C85.2199 247.58 84.1699 248.16 81.4199 248.15V248.16Z" fill="#D8A967"/>
<path d="M99.28 64.4C99.3 63.17 101.09 59.94 101.77 59.91C103.9 59.83 106.57 62.49 106.5 64.61C106.43 66.59 104.53 68.28 102.4 68.26C100.65 68.24 99.25 66.51 99.28 64.39V64.4Z" fill="#D79F65"/>
<path d="M205.56 284.74C205.82 285.77 204.85 286.25 204.46 287.01C203.71 286.55 202.79 288.34 202 286.74C201.79 286.31 200.54 285.51 199.8 287.03C199.47 287.71 198.2 288.22 197.34 288.06C196.51 287.92 195.99 287.06 196.07 286.03C196.16 284.76 197.22 284.4 198.03 283.82C198.6 283.41 198.71 284.14 199.03 284.33C199.53 284.62 200.16 284.79 200.5 284.29C200.88 283.72 200.17 283.68 199.84 283.45C199.31 283.09 198.99 282.53 199.06 281.92C199.16 281.04 199.84 281.78 200.23 281.61C200.62 281.44 201.05 281.35 201.46 281.21C202.6 280.84 203.6 280.79 203.99 282.24C204.1 282.65 204.45 282.82 204.77 283.02C205.39 283.4 205.66 283.95 205.56 284.72V284.74Z" fill="#D7A864"/>
<path d="M27.1601 248.45C27.2401 247.84 26.4501 247.87 26.5101 247.33C26.5501 247.26 26.6001 247.17 26.6501 247.08C27.0701 247.42 27.9401 246.39 28.0601 247.49C28.1301 248.1 28.3001 248.23 28.9101 248.32C29.6301 248.42 29.9201 248.85 29.8801 249.82C29.8301 251.01 30.3601 252.25 30.8001 253.41C31.1601 254.36 30.8401 254.94 30.0401 255.61C29.8301 254.52 28.2601 253.66 29.9101 252.52C29.9501 252.49 29.9001 252.19 29.8001 252.1C29.5101 251.83 29.3601 252.1 29.1501 252.28C28.0001 253.3 26.7301 253.05 25.4501 252.58C24.2601 252.14 23.3501 251.38 22.6901 250.26C22.2301 249.48 22.2201 248.52 22.5601 248C22.9701 247.37 23.9401 247.04 24.7301 246.76C25.0601 246.64 25.7001 246.98 25.6701 247.47C25.5901 248.83 26.4401 248.45 27.1601 248.45Z" fill="#CF9C5D"/>
<path d="M223.96 223.3C223.4 223.49 222.44 223.02 222.89 224.25C223.42 225.69 221.52 225.06 221.4 225.72C221.29 226.31 222.24 226.99 221.41 227.66C221.17 227.86 220.9 227.71 220.64 227.64C219.08 227.2 217.8 226.29 216.57 225.29C216.19 224.98 216.24 224.73 216.31 224.31C216.59 222.65 217.01 221.12 218.89 220.55C219.02 220.51 219.18 220.38 219.23 220.26C219.39 219.89 218.45 219.42 219.14 219.21C219.75 219.03 219.86 219.84 220.13 220.29C220.28 220.54 220.63 220.8 220.91 220.82C222.45 220.89 223.11 222.04 223.97 223.29L223.96 223.3Z" fill="#D6A964"/>
<path d="M93.3201 94.2803C93.3301 93.0903 93.3501 91.8903 93.3601 90.7003C93.7101 90.7603 94.4501 91.3403 94.0901 90.3103C93.6901 89.1903 94.4701 89.3203 94.9701 89.4403C97.0401 89.9503 99.2601 89.7603 101.19 90.9303C101.87 91.3403 102.72 91.4403 103.55 91.3403C102.56 94.3603 97.8801 96.0003 95.3001 94.2303C94.6901 93.8103 94.7501 93.0603 94.6401 92.4403C94.6001 92.2103 95.0501 91.8703 94.5101 91.7303C94.0801 91.6203 93.8101 91.8303 93.7201 92.3103C93.6001 92.9703 94.0201 93.7403 93.3201 94.2803Z" fill="#D6AB64"/>
<path d="M177.04 186.49C177.14 186.31 177.31 186.13 177.33 185.94C177.523 184.56 178.193 184.23 179.34 184.95C179.79 185.23 180.27 185.24 180.74 185.06C181.3 184.85 181.46 184.26 181.26 183.84C180.78 182.81 181.47 182.24 181.95 181.56C182.28 181.56 182.6 181.56 182.93 181.56C183.02 181.7 183.1 181.88 183.25 181.91C183.91 182.04 184.8 181.94 184.7 182.95C184.61 183.87 183.76 183.8 183.07 183.85C182.96 183.85 182.86 183.89 182.77 183.93C181.86 185.08 180.98 186.16 179.23 186.04C178.48 185.99 178.41 186.62 178.97 187.15C179.21 187.38 179.49 187.59 179.82 187.61C181.08 187.71 182.08 188.28 182.96 189.15C183.3 189.48 183.82 189.86 184.23 189.35C184.59 188.88 184.02 188.62 183.73 188.33C183.35 187.95 182.87 187.58 183.4 186.97C183.83 186.77 184.23 186.82 184.58 187.15C185.99 188.32 186.08 188.76 185.24 190.43C185.02 190.65 184.8 190.87 184.58 191.09C184.03 191.55 183.49 191.44 182.94 191.09C182.52 190.01 181.87 189.25 180.57 189.45C179.91 189.55 179.5 189.07 179 188.79C178.26 188.82 177.95 187.57 177.03 188.13C175.43 189.74 173.21 189.95 171.26 188.68C170.85 188.41 170.44 188.14 170 187.92C169.63 187.73 169.07 187.72 169.24 187.08C169.39 186.5 169.73 186.18 170.4 186.14C171.63 186.06 172.6 186.43 173.48 187.33C174.7 188.58 176.24 188.17 177.04 186.49Z" fill="#D0985E"/>
<path d="M104.02 315.41C103.55 315.3 102.66 315.74 102.6 314.7C102.56 313.83 102.2 312.66 103.42 312.36C104.28 312.15 104.33 311.36 104.9 310.97C106.45 309.91 111.16 309.7 112.71 310.71C112.98 310.88 113.31 311.1 113.23 311.47C113.12 311.94 112.74 311.74 112.44 311.67C111.16 311.4 110.29 312.52 109.09 312.65C108.6 312.7 108.89 313.48 109.02 313.95C109.15 314.41 109.33 314.97 108.83 315.29C108.3 315.63 107.95 315.24 107.64 314.81C106.99 313.92 106.28 313.95 105.7 314.85C105.29 315.48 104.73 315.45 104.03 315.43L104.02 315.41Z" fill="#D8AA66"/>
<path d="M111.62 86.7498C110.68 86.9898 109.92 86.5198 109.56 85.5498C109.29 84.8198 108.76 84.6298 108.14 84.3898C107.54 84.1498 106.89 83.7398 106.95 83.0098C107.02 82.2598 107.61 81.7898 108.35 81.5998C108.64 81.5298 108.93 81.6598 109.22 81.3498C110.03 80.4398 111.07 80.1998 112.14 80.8098C113.4 81.5298 114.33 82.5598 114.3 84.1398C114.25 86.6298 114.12 86.7598 111.62 86.7498Z" fill="#D6AC64"/>
<path d="M201.43 83.2497C201.34 81.4097 202.6 80.3897 204.73 80.3597C206.13 80.3397 207.17 81.3397 207.22 82.7697C207.26 83.6797 207.22 84.5697 207.89 85.3597C208.31 85.8597 207.46 87.2697 207.01 86.9897C205.63 86.1197 203.74 86.7797 202.55 85.3097C201.98 84.5997 201.02 84.1997 201.43 83.2597V83.2497Z" fill="#D6AB65"/>
<path d="M174.41 24.0898C174.63 24.0898 174.85 24.0898 175.06 24.0898C176.5 24.4998 178.09 24.6298 178.38 26.6398C178.6 28.1698 178.26 29.3898 177.06 30.2098C175.85 31.0298 174.17 31.1498 173.24 30.4698C171.94 29.5298 171.09 27.7498 171.51 26.4898C171.96 25.1398 173.12 24.5198 174.4 24.0898H174.41Z" fill="#CDA15A"/>
<path d="M52.71 45.9497C53.15 44.4797 53.67 42.7697 54.72 41.3897C55.68 40.1197 57.51 40.1597 58.47 41.1797C59.38 42.1497 59.23 44.1797 58.04 45.0897C56.88 45.9797 55.61 46.7497 54.33 47.4797C53.49 47.9597 52.69 47.2697 52.7 45.9497H52.71Z" fill="#C89E57"/>
<path d="M190.49 84.1196C188.88 83.1996 188.65 81.9296 190.12 80.7096C191.17 79.8396 192.49 79.2596 193.76 78.7096C194.29 78.4796 194.55 79.3696 195.09 79.5296C195.31 80.5396 195.95 81.3996 195.87 82.5396C195.74 84.3696 194.76 85.1896 193.14 84.3696C192.22 83.9096 191.32 84.6596 190.5 84.1196H190.49Z" fill="#D5A664"/>
<path d="M139.36 13.9299C139.69 13.9299 140.02 13.8899 140.34 13.9299C143.41 14.3199 143.67 14.8199 142.24 17.4499C142.06 17.7799 141.78 18.0899 141.69 18.4399C141.45 19.3399 141.32 20.4399 140.05 20.1599C138.84 19.8999 137.59 19.4799 137.64 17.7999C137.65 17.4399 137.45 17.0699 137.34 16.6999C136.77 14.8199 137.43 13.8999 139.36 13.9199V13.9299Z" fill="#D6AF65"/>
<path d="M202.95 111.39C202.94 113.04 201.66 114.61 200.32 114.62C198.87 114.63 197.36 113.01 197.39 111.48C197.42 110 198.81 108.41 200.06 108.43C201.61 108.46 202.97 109.84 202.95 111.39Z" fill="#C89E57"/>
<path d="M201.64 201.25C202.12 201.28 202.74 201.13 203.04 201.37C204.1 202.21 205.15 201.88 206.23 201.58C206.41 202.04 206.9 202.09 207.23 202.34C208.07 202.99 208.3 203.78 207.95 204.91C207.47 206.45 206.15 206.24 205.15 206.39C204.21 206.53 203.62 205.52 203.58 204.69C203.52 203.5 202.63 203.14 201.9 203.08C201.14 203.02 201.37 203.97 201.31 204.53C200.34 204.41 200.46 203.42 200 202.89C200.25 202.46 200.6 201.82 201.05 202.03C202.81 202.86 201.28 201.37 201.64 201.25Z" fill="#D5A863"/>
<path d="M138.32 139.24C138.41 140.01 139 140.77 138.37 141.57C137.93 141.63 138.04 141.27 137.98 141.06C137.89 140.74 137.83 140.37 137.39 140.48C137.1 140.55 137.06 140.87 137.02 141.15C136.91 141.94 137.36 143 136 143.17C134.84 143.32 133.76 142.7 133.33 141.94C132.85 141.08 132.25 139.84 133.11 138.74C133.84 137.81 134.73 137.12 136.03 137.26C136.06 137.6 136.08 137.94 136.12 138.32C137 137.81 137.53 138.87 138.33 139.23L138.32 139.24Z" fill="#D39F61"/>
<path d="M23.5 197.55C23.5 199.36 21.91 200.95 20.15 200.89C17.99 200.82 16.57 199.23 16.61 196.92C16.64 195.34 18.16 194.01 19.93 194.02C22.14 194.02 23.5 195.36 23.5 197.54V197.55Z" fill="#D5AA63"/>
<path d="M163.58 174.67C164.34 175.39 164.76 174.7 165.09 174.21C165.75 173.23 166.42 173.36 167.19 174.01C167.91 174.88 167.62 176.36 168.9 176.9C168.97 176.93 169 177.08 169.04 177.18C167.19 177.5 168.69 179.14 167.95 179.96C166.95 181.06 166.42 180.23 165.92 179.56C165.35 178.79 165.05 177.78 163.91 177.61C163.91 177.28 163.91 176.96 163.91 176.63C163.89 176.37 163.75 176.16 163.58 175.97C163.39 175.52 162.87 175.23 162.92 174.66C163.14 174.49 163.36 174.47 163.57 174.66L163.58 174.67Z" fill="#D0A35E"/>
<path d="M174.41 24.0896C174.24 24.4696 173.9 24.5896 173.56 24.7696C172.53 25.3096 171.57 25.9496 171.84 27.3796C172.11 28.8496 172.77 30.0896 174.24 30.5796C175.27 30.9296 177.48 29.8096 177.88 28.8496C178.43 27.5496 178.22 26.3196 177.33 25.2096C176.75 24.4796 175.59 24.9096 175.06 24.0796C177.43 24.0796 178.23 24.5796 178.66 26.2996C179.15 28.2496 178.3 30.3796 176.72 31.1896C175.68 31.7196 172.72 31.1496 171.92 30.0096C171.41 29.2896 171.19 29.4896 170.7 29.8296C170.39 30.0396 170.02 30.1996 169.66 30.2696C168.87 30.4296 167.94 30.9896 167.48 29.7396C167.22 29.0396 167.7 28.4296 168.96 27.8596C169.31 28.3696 168.29 28.6996 168.75 29.1396C169.08 29.4596 169.6 29.3896 169.98 29.1696C170.59 28.8296 171.12 28.4796 171.16 27.5896C171.25 25.2396 172.27 24.2096 174.42 24.0596L174.41 24.0896Z" fill="#D6AB64"/>
<path d="M248.88 246.18C248.88 248.63 247.67 249.8 245.13 249.8C243.33 249.8 241.64 248.08 241.67 246.27C241.71 243.89 243.24 242.35 245.63 242.3C247 242.27 248.88 244.51 248.89 246.17L248.88 246.18Z" fill="#CFA45D"/>
<path d="M110.76 110.37C110.87 111.07 111.32 111.3 111.93 111.1C112.87 110.79 113.32 111.32 113.71 112.01C113.48 112.67 112.82 112.13 112.21 112.7C114.65 112.7 116.84 112.7 119.03 112.7C114.57 113.2 110.14 112.95 105.75 112.05C106 111.88 106.59 112.31 106.52 111.6C106.52 111.55 106.44 111.47 106.45 111.46C107.16 110.66 107.74 109.61 108.62 109.15C109.51 108.69 110.55 109.08 110.75 110.38L110.76 110.37Z" fill="#D4AA63"/>
<path d="M169.19 60.2904C170.19 60.0504 170.35 60.7504 170.44 61.4004C170.55 62.1104 170.48 62.4604 169.48 62.1704C168.92 62.0104 169.11 63.0604 169.28 63.4504C169.64 64.2704 170.17 65.2504 169.16 65.6804C167.53 66.3804 165.95 65.5804 165.65 64.2404C165.57 63.8704 165.78 63.7204 166 63.4504C168.13 60.8804 168.69 60.3004 169.19 60.2904Z" fill="#D7A965"/>
<path d="M157.36 74.4403C157.56 72.6903 157.51 71.3303 158.76 70.4003C160.11 69.4003 159.53 67.8003 159.91 66.5003C159.96 66.3403 159.68 65.9403 159.48 65.8803C157.42 65.2403 158.3 64.4803 159.48 63.5703C159.67 64.2403 160.06 64.7103 160.52 65.1403C160.72 65.3203 161.07 65.6003 161.03 65.7403C160.6 67.0903 160.48 68.0503 162.4 67.1903C162.6 67.1003 162.86 67.5103 162.62 67.7803C160.82 69.7603 159.93 72.4603 157.36 74.4303V74.4403Z" fill="#D7AA65"/>
<path d="M158.01 318.04C156.88 317.99 156.89 318.73 157.13 319.45C157.38 320.22 157.44 320.93 157.03 321.65H156.7C156.28 320.91 155.87 320.21 156.61 319.36C156.84 319.1 156.86 318.47 156.43 318.19C156.01 317.92 155.79 318.09 155.47 318.58C154.94 319.38 153.09 319.19 152.39 318.41C152.28 318.29 152.18 318.17 152.07 318.05C151.59 317.53 150.18 317.32 151.47 316.2C152.59 315.22 153.87 315.19 154.68 316.2C155.11 316.72 155.23 317.03 156.12 316.48C157.32 315.74 157.55 317.25 158 318.04H158.01Z" fill="#D6AF65"/>
<path d="M187.01 30.9801C185.04 31.0001 183.58 29.9901 183.62 28.5901C183.66 27.2601 184.48 26.7001 185.77 26.7101C187.27 26.7201 188.87 28.0301 188.81 29.3101C188.76 30.4401 188.19 31.1401 187.01 30.9801Z" fill="#C89E57"/>
<path d="M22.8399 171.09C22.8399 168.65 24.4199 166.69 26.3599 166.82C28.1799 166.94 30.0899 168.24 30.0599 170.93C30.0399 173.26 28.5099 175.12 26.5299 174.97C24.3199 174.81 22.4899 173.76 22.8299 171.09H22.8399Z" fill="#D1A65F"/>
<path d="M180.42 296.51C180.76 296.08 179.88 295.38 180.68 295.26C181.32 295.16 181.21 295.95 181.44 296.34C181.71 296.81 181.25 297.3 181.6 297.74C180.95 298.07 180.79 297.44 180.41 297.31C179.82 297.12 179.63 296.63 178.64 297.08C177.57 297.56 175.77 297.2 174.44 296.49C173.95 296.23 173.45 295.61 173.98 295.18C174.52 294.74 175.13 294.02 176.06 294.42C176.64 294.67 177.36 295.72 177.67 294.1C177.75 293.69 178.17 294.2 178.43 294.32C179.37 294.77 179.39 296.02 180.43 296.51H180.42Z" fill="#D7A865"/>
<path d="M168.65 57.13C166.51 55.59 164.87 57.21 163.14 57.89C162.21 58.26 161.94 58.13 161.95 57.19C161.95 56.55 161.8 55.77 161.12 55.83C160.22 55.91 160.42 56.69 160.59 57.37C160.67 57.69 160.81 58.22 160.31 58.35C159.83 58.47 159.72 57.97 159.55 57.65C159.15 56.89 159.28 56.16 159.72 55.48C160.21 54.72 160.93 54.85 161.62 55.1C162.64 55.46 163.97 54.85 164.74 56.09C164.81 56.2 165.25 56.15 165.5 56.09C167.33 55.57 167.33 55.56 168.65 57.14V57.13Z" fill="#D6A965"/>
<path d="M230.18 134.32C229.1 134.27 228.05 134.85 226.92 134.06C224.81 132.59 224.58 130.24 225.77 128.44C225.98 128.12 226.24 127.84 226.24 127.43C228.89 126 230.31 126.02 231.64 127.47C233.14 129.12 232.76 132.43 230.94 133.72C230.68 133.91 230.43 134.12 230.18 134.32Z" fill="#D4A962"/>
<path d="M124.21 73.6305C123.66 74.9805 123.86 76.5105 123.24 77.8505C123.03 78.3105 122.92 78.8305 122.68 79.6205C121.93 77.9105 120.56 76.9605 120.72 75.0505C120.8 74.0405 120.95 73.7305 121.85 73.5705C122.75 73.4005 123.57 72.8705 124.54 72.9705C124.68 73.3105 124.51 73.5005 124.21 73.6305Z" fill="#D7A365"/>
<path d="M155.38 321.98C152.36 323.27 149.06 323.27 145.91 323.95C144.91 324.17 143.91 324.39 142.91 324.61C143.51 323.23 144.83 323.47 145.95 323.3C146.47 323.22 147.3 323.41 147.29 322.76C147.29 321.98 146.44 322.44 145.97 322.32C145.68 322.24 145.31 322.42 145.09 322.07C146.73 320.09 147.06 320.11 148.28 322.24C148.33 322.33 148.39 322.4 148.45 322.48C149.68 321.29 150.87 323.23 152.2 322.49C153.11 321.99 154.26 321.86 155.37 321.99L155.38 321.98Z" fill="#D6AF65"/>
<path d="M173.98 74.79C173.7 75.49 172.87 75.52 172.48 75.31C171.5 74.78 170.65 74 169.75 73.31C169.67 73.25 169.59 73.1 169.61 73.04C169.98 72 171.05 71.84 171.86 71.4C172.5 71.05 173.14 71.42 173.34 72.2C173.55 73.02 173.4 73.92 173.98 74.79Z" fill="#D6A865"/>
<path d="M188.19 91.9704C188.07 92.4804 187.85 93.1404 187.42 92.7404C186.64 92.0204 185.63 91.7604 184.85 91.1004C184.27 90.6104 184.07 89.9704 184.35 89.3504C184.74 88.5004 185.65 88.4304 186.45 88.4604C187.19 88.4904 187.67 88.9804 187.52 89.7804C187.36 90.6604 187.89 91.3104 188.19 91.9704Z" fill="#D9A867"/>
<path d="M161.51 183.69C161.53 184.33 161.03 184.64 160.61 184.95C160.12 185.31 159.82 184.84 159.53 184.55C158.35 183.4 157.78 181.47 158.29 180.55C158.45 180.26 158.47 179.93 158.95 180.1C159.7 180.36 161.51 182.86 161.51 183.69Z" fill="#D1A55E"/>
<path d="M48.7999 54.2601C49.8499 54.3201 50.6299 54.8501 50.6699 55.9101C50.7099 57.0301 49.9599 57.8001 48.8399 57.8201C47.6799 57.8501 46.9499 56.8901 46.9699 55.9301C46.9799 55.1001 47.5799 54.1601 48.7999 54.2501V54.2601Z" fill="#C99E57"/>
<path d="M100.92 43.2004C100.86 42.2604 101.45 41.5604 102.06 41.3604C102.72 41.1504 103.42 41.7004 103.7 42.4904C103.79 42.7304 103.88 43.1504 104.02 43.1704C105.72 43.4304 104.37 44.3104 104.17 44.5204C103.58 45.1104 102.75 45.1104 101.98 44.7804C101.28 44.4804 100.84 43.9604 100.91 43.2004H100.92Z" fill="#D7A765"/>
<path d="M20.89 179.08C20.86 180.17 20.86 181.35 19.85 181.38C18.31 181.44 18.54 179.9 18.4 178.93C18.29 178.14 18.79 177.41 19.74 177.49C20.8 177.58 20.97 178.39 20.89 179.08Z" fill="#C99F58"/>
<path d="M211.51 221.31C211.23 222.11 211.07 222.98 210.05 222.86C209.1 222.74 208.13 222.41 208.25 221.2C208.32 220.45 208.72 219.63 209.63 219.67C210.64 219.71 211.1 220.55 211.51 221.32V221.31Z" fill="#D3A762"/>
<path d="M244.92 235.11C245.01 235.99 244.91 236.68 244.44 237.26C244.13 237.65 243.68 237.99 243.18 237.84C242.61 237.67 242.34 237.05 242.38 236.54C242.5 235.3 243.4 234.34 244.4 233.99C245.28 233.67 244.67 234.85 244.92 235.11Z" fill="#C89E57"/>
<path d="M214.76 66.7398C213.88 66.2098 214.4 65.0798 213.78 64.4398C213.01 61.6298 212.24 58.8198 211.47 56.0098C211.34 55.5398 211.26 55.0698 211.15 54.5898C211.53 54.7498 211.79 55.0498 211.88 55.4298C212.77 59.2198 214.24 62.8498 214.76 66.7298V66.7398Z" fill="#CFA35F"/>
<path d="M217.43 230.95C217.16 229.45 218.39 229.88 219.03 229.65C219.8 229.38 220.02 229.94 219.98 230.55C219.9 231.58 219.18 232.42 218.33 232.56C217.14 232.76 217.69 231.48 217.42 230.95H217.43Z" fill="#D2A760"/>
<path d="M62.8399 35.8996C63.6499 35.8796 64.1899 36.1096 64.1399 36.8796C64.0899 37.8696 63.3399 38.3296 62.5099 38.3796C61.7799 38.4296 61.2799 37.7996 61.2999 37.0996C61.3299 36.1096 62.2299 36.0696 62.8399 35.8996Z" fill="#C99F57"/>
<path d="M217.24 219.92C217 220.44 216.64 220.14 216.3 220.08C215.69 219.97 214.97 219.63 214.77 220.64C214.64 221.28 214.28 221.93 213.67 221.83C212.64 221.66 213.67 221.01 213.54 220.6C213.41 220.21 212.33 219.77 213.52 219.48C214.7 219.19 215.95 219.04 217.12 219.63C217.19 219.66 217.19 219.82 217.23 219.93L217.24 219.92Z" fill="#D4A963"/>
<path d="M203.28 39.1797C204.47 39.6597 204.33 41.1297 205.25 41.8097C205.89 42.8797 206.53 43.9497 207.17 45.0097C207.49 45.5397 207.58 46.1197 207.54 46.7297C206.54 46.1297 206.23 45.0297 205.81 44.0897C205.06 42.3997 203.39 41.1897 203.27 39.1897L203.28 39.1797Z" fill="#D1A861"/>
<path d="M242.03 204.86C241.37 204.74 240.35 204.9 240.14 203.94C240.01 203.35 240.7 202.82 241.35 202.93C242.1 203.05 243.11 203 243.25 204.08C243.36 204.91 242.66 204.82 242.03 204.85V204.86Z" fill="#D4A562"/>
<path d="M182.94 191.07C183.49 191.07 184.03 191.07 184.58 191.07C185.01 192.02 184.1 193.12 184.91 194.02C183.74 194.97 183.19 193.48 182.29 193.36C183.25 192.81 183.85 192.15 182.95 191.06L182.94 191.07Z" fill="#D5A764"/>
<path d="M35.6399 136.94C37.3899 135.6 38.1899 133.91 37.6099 131.69C38.7799 132.34 39.1899 133.09 38.1599 134.28C37.6399 134.88 37.4299 135.73 37.3299 136.54C37.2899 136.87 37.6299 137.49 37.0399 137.36C36.5899 137.26 35.7599 138.1 35.6399 136.94Z" fill="#D6AA64"/>
<path d="M172.72 179.21C170.99 178.55 169.83 177.28 168.93 175.73C171.17 175.8 171.32 178.2 172.72 179.21Z" fill="#D0A35E"/>
<path d="M163 218.47C162.99 219.1 160.88 220.66 160.29 220.46C159.95 220.34 159.97 220.05 160.09 219.8C160.59 218.76 161.37 218.09 162.57 218C162.87 217.98 163.11 218.08 163 218.47Z" fill="#D3A961"/>
<path d="M124.21 73.6305C124.32 73.4105 124.43 73.1905 124.54 72.9705C124.54 72.6405 124.54 72.3105 124.54 71.9805C124.91 72.0405 125.27 72.0905 125.64 72.1505C125.26 73.1805 126.52 73.5605 126.52 74.3105C126.52 74.7605 125.76 75.0005 125.24 74.6205C124.86 74.3405 124.55 73.9605 124.21 73.6205V73.6305Z" fill="#D3A161"/>
<path d="M111.75 117.27C111.55 117.25 111.34 117.22 111.14 117.2V116.88C112.36 116.88 113.59 116.88 114.82 116.88C115.18 116.88 115.55 116.88 115.91 116.88C116.88 116.9 117.86 116.92 118.83 116.93C119.74 116.93 120.65 116.93 121.55 117.26H111.74L111.75 117.27Z" fill="#D4B47F"/>
<path d="M200 202.89C201.02 202.97 200.73 204.1 201.31 204.53C201.49 204.71 201.78 204.88 201.82 205.09C201.89 205.43 201.54 205.58 201.3 205.44C200.61 205.06 200.26 205.62 199.76 205.99C200.18 204.92 199.73 203.88 199.99 202.89H200Z" fill="#D3A862"/>
<path d="M179.01 305.53C178.11 305.75 177.2 305.81 176.92 304.74C176.84 304.43 176.3 303.99 176.79 303.64C177.12 303.41 177.6 303.14 177.94 303.22C178.45 303.33 178.42 303.92 178.27 304.32C177.97 305.09 178.72 305.18 179.01 305.54V305.53Z" fill="#D4A663"/>
<path d="M218.7 294.42C217.46 296.3 215.49 297.34 213.78 298.68C213.82 298.21 213.61 297.5 214.19 297.39C216.01 297.05 216.9 295.49 218.23 294.52C218.35 294.43 218.54 294.45 218.7 294.42Z" fill="#D7A965"/>
<path d="M193.7 239.31C193.28 239.22 192.61 239.53 192.54 238.81C192.48 238.21 192.96 237.78 193.53 237.73C194.2 237.67 194.74 238.2 194.8 238.75C194.87 239.42 194.16 239.26 193.7 239.31Z" fill="#D5AA63"/>
<path d="M249.21 251.77C249.21 252.32 248.9 252.81 248.45 252.91C247.08 253.2 246.33 254.34 245.28 255.05C245.26 253.83 246.12 253.27 247.03 252.78C247.74 252.4 248.49 252.1 249.22 251.77H249.21Z" fill="#D1A75F"/>
<path d="M223.29 128.75C223.31 129.23 223.3 129.7 222.64 129.73C222.49 129.68 222.26 129.69 222.19 129.58C221.75 128.92 220.89 127.97 221.5 127.47C222.36 126.76 222.45 128.23 223.01 128.58C223.1 128.64 223.19 128.69 223.29 128.75Z" fill="#CA9F58"/>
<path d="M31.7 136.94C32.9 137.17 34.11 137.47 35.31 136.94C34.84 137.4 34.95 138.53 33.83 138.24C33 138.02 31.9 138.2 31.7 136.94Z" fill="#D6AA64"/>
<path d="M193.44 236.27C193.41 236.72 193.46 237.34 192.99 237.22C192.29 237.04 192.25 236.09 191.66 235.63C191.47 235.48 192.01 234.79 192.45 234.85C193.25 234.96 193.27 235.74 193.45 236.27H193.44Z" fill="#D5AA63"/>
<path d="M20 262.29C20.81 262.25 21.05 262.75 21.14 263.31C21.22 263.83 20.9 264.19 20.39 264.17C19.78 264.15 19.38 263.74 19.3 263.14C19.23 262.6 19.62 262.38 20 262.29Z" fill="#CE9E5D"/>
<path d="M252.8 237.99C252.77 238.52 252.55 238.94 251.93 238.91C251.41 238.88 251.19 238.5 251.19 238.01C251.19 237.45 251.43 237.04 252.05 237.07C252.57 237.1 252.77 237.48 252.8 237.99Z" fill="#CAA058"/>
<path d="M166.82 182.55C166.1 182.55 165.49 182.35 165.36 181.56C165.31 181.29 165.74 181.04 165.94 181.13C166.55 181.41 167.45 181.39 167.66 182.12C167.81 182.64 167.15 182.48 166.83 182.55H166.82Z" fill="#D2A760"/>
<path d="M91.3599 44.3196C91.1999 44.8196 91.1099 45.4496 90.7099 45.4296C90.1899 45.3996 89.8899 44.8096 89.8299 44.2896C89.7799 43.8696 89.9499 43.3196 90.4199 43.2796C91.1399 43.2196 91.0499 43.9996 91.3599 44.3196Z" fill="#D4A462"/>
<path d="M152.26 187.54C151.8 188.73 150.88 188.18 150.24 188.39C150 188.47 149.72 188.24 149.64 187.96C149.52 187.53 149.91 187.43 150.18 187.3C150.9 186.96 151.49 187.56 152.26 187.54Z" fill="#D0A15E"/>
<path d="M31.1499 272.17C31.5099 271.37 31.8899 270.83 31.8399 270.19C31.8099 269.81 31.8499 269.55 32.2799 269.51C32.6099 269.48 32.9299 269.55 33.1199 269.86C33.3099 270.15 33.0999 270.34 32.9199 270.55C32.4699 271.07 32.1399 271.7 31.1499 272.17Z" fill="#D2A760"/>
<path d="M16.5701 189.94C16.4901 190.43 16.2301 190.74 15.7101 190.7C15.2701 190.66 15.0101 190.36 15.0201 189.94C15.0401 189.44 15.3501 189.13 15.8701 189.18C16.3101 189.22 16.5201 189.52 16.5701 189.95V189.94Z" fill="#C99F59"/>
<path d="M28.8601 264.91C29.4001 264.95 29.8301 265.31 30.0001 265.95C30.0601 266.16 29.8501 266.51 29.7101 266.4C29.2301 266.01 28.3401 266.31 28.1401 265.51C28.0501 265.13 28.3201 264.92 28.8501 264.91H28.8601Z" fill="#CB9D59"/>
<path d="M214.76 115.93C214.54 116.1 214.49 116.16 214.46 116.15C213.68 115.99 213.03 115.67 212.86 114.8C212.84 114.7 213.04 114.45 213.1 114.46C213.97 114.64 214.28 115.35 214.77 115.93H214.76Z" fill="#CCA25B"/>
<path d="M80.1499 53.4404C79.6999 52.6104 78.7399 52.9304 78.8199 52.0704C78.8499 51.7404 79.2899 51.6304 79.6299 51.6804C80.4599 51.8104 80.2299 52.4104 80.1499 53.4404Z" fill="#CF9F5E"/>
<path d="M177.03 188.12C178.17 186.88 178.37 188.49 179 188.78C178.79 188.8 178.52 188.74 178.37 188.85C177.55 189.46 177.01 189.71 177.44 188.28C177.44 188.27 177.17 188.18 177.03 188.12Z" fill="#D8A967"/>
<path d="M179.99 194.68C180.26 193.37 181.28 193.39 182.29 193.37C181.83 194.35 180.88 194.46 179.99 194.68Z" fill="#D5A764"/>
<path d="M104.96 92.0904C104.17 91.7104 103.62 91.6804 103.56 91.0204C103.54 90.8104 103.61 90.4804 103.83 90.5404C104.39 90.6904 104.57 91.2104 104.95 92.0904H104.96Z" fill="#D6AB64"/>
<path d="M25.79 244.3C26.04 243.41 26.33 243 27.05 242.55C26.91 243.39 26.76 243.9 25.79 244.3Z" fill="#CC9F59"/>
<path d="M167.94 188.44C167.85 188.82 167.71 189.2 167.29 189.3C167.05 189.36 166.89 189.15 166.91 188.91C166.93 188.56 167.13 188.3 167.48 188.2C167.69 188.14 167.92 188.11 167.94 188.44Z" fill="#CDA05A"/>
<path d="M197.98 39.6601C197.92 39.9701 197.76 40.1501 197.43 40.0801C197.09 40.0001 197.06 39.7201 197.07 39.4501C197.08 39.2401 197.12 38.9801 197.42 39.0001C197.81 39.0301 197.95 39.3101 197.98 39.6601Z" fill="#CDA35C"/>
<path d="M204.08 207.59C204.56 207.11 204.95 207.06 205.35 207.31C205.43 207.36 205.46 207.65 205.4 207.72C204.96 208.19 204.57 207.82 204.08 207.59Z" fill="#D5A863"/>
<path d="M179.95 194.75C179.42 195.29 178.94 195.76 177.95 195.94C178.56 195.03 179.3 194.9 179.95 194.75Z" fill="#D5A764"/>
<path d="M178.67 82.8096C178.94 82.8096 179.18 82.8796 179.33 83.1396C178.9 83.1596 178.67 84.0596 178.17 83.4896C177.95 83.2396 178.4 82.9696 178.67 82.8196V82.8096Z" fill="#D6A865"/>
<path d="M124.7 71.9999C124.14 71.9499 123.68 72.0899 123.25 71.6299C123.9 71.2799 124.2 71.7299 124.7 71.9999Z" fill="#D3A161"/>
<path d="M179.99 83.7998C180.06 83.3798 180.12 82.9798 180.65 83.4698C180.67 84.0498 180.35 83.9698 179.99 83.7998Z" fill="#D6A865"/>
<path d="M136.04 337.02C136.35 335.64 136.16 333.82 138.33 334.23C139 334.36 139.71 335.25 139.43 335.95C138.79 337.59 137.34 337.19 136.03 337.02H136.04Z" fill="#C8A457"/>
<path d="M142.33 334.46C142.4 334.41 142.54 334.26 142.63 334.29C142.95 334.38 142.9 334.69 142.91 334.94C142.91 335.29 142.69 335.04 142.61 335.02C142.37 334.96 142.3 334.77 142.33 334.46Z" fill="#C8A457"/>
<path d="M216.4 73.9498C215.83 72.8098 215.72 71.5898 215.74 70.3398C216.44 71.4498 216.42 72.6998 216.4 73.9498Z" fill="#C89E57"/>
<path d="M205.72 152.1C206.18 151.66 205.53 150.84 206.3 150.56C206.39 150.53 206.61 150.67 206.69 150.78C207.08 151.38 206.88 151.99 206.46 152.43C205.67 153.26 206.42 153.67 206.92 153.89C208.04 154.39 208.02 155.1 208.04 156.22C208.09 158.08 208.18 160.04 209.14 161.87C207.66 159.88 205.12 159.51 203.42 157.89C202.57 157.08 202.36 153.65 203.06 152.48C203.31 152.06 203.61 151.67 203.88 151.26C204.07 150.98 204.25 150.44 204.42 150.45C205.05 150.48 204.67 150.97 204.7 151.3C204.74 151.91 205.21 152.06 205.72 152.09V152.1Z" fill="#D9AA67"/>
<path d="M196.72 173.7C196.72 173.26 196.7 172.83 196.72 172.39C196.75 171.98 196.53 171.44 197.02 171.21C197.61 170.93 197.72 171.54 197.94 171.87C198.14 172.16 198.35 172.45 198.72 172.26C199.14 172.04 199.28 171.6 199.31 171.16C199.33 170.81 199.19 170.4 198.81 170.47C197.64 170.67 196.23 169.65 195.32 171.33C194.9 172.11 194.35 171.08 193.83 170.98C193.32 170.88 193.43 170.44 193.75 170.1C194.28 169.54 194.62 168.65 195.7 169.06C195.89 169.13 196.35 168.99 196.43 168.82C197.3 167.01 198.75 168.22 199.94 168.13C200.52 168.09 200.76 168.53 200.64 168.99C200.34 170.16 200.85 171.18 201.1 172.25C201.45 173.74 199.85 176.08 198.36 176.3C197.25 176.46 196.53 176.18 196.72 174.84C196.77 174.47 196.72 174.08 196.72 173.7Z" fill="#DBB169"/>
<path d="M195.71 175.72C195.55 176.55 195.26 177.28 194.37 177.41C193.49 177.53 192.99 177.03 192.78 176.15C192.55 175.23 192.5 174.36 190.91 174.94C190.1 175.23 188.61 174.38 187.86 173.33C187.29 172.54 187.57 171.77 188.08 171.07C188.63 170.31 189.33 170.26 190.09 170.73C190.67 171.09 191.48 171.4 190.75 172.32C190.56 172.56 190.49 172.85 190.85 172.97C191.19 173.08 191.55 173.37 191.92 173.05C192.17 172.84 192.38 172.58 192.64 172.38C193.84 171.44 194.64 171.74 195.2 173.21C195.51 174.04 195.25 174.96 195.72 175.72H195.71Z" fill="#D19A5F"/>
<path d="M195.73 192.72C195.78 192.05 195.38 191.13 196.76 191.35C197.5 191.47 197.78 190.88 197.56 190.13C197.45 189.77 197.48 189.37 197.36 189.01C197.21 188.58 197.84 187.8 196.89 187.75C196.16 187.71 195.89 188.29 195.75 188.93C195.71 189.13 195.66 189.33 195.57 189.75C194.69 188.35 193.9 187.14 193.15 185.9C192.74 185.23 192.61 184.33 191.39 184.75C190.82 184.95 190.53 184.25 190.61 183.78C190.69 183.33 191.28 182.67 191.63 183.06C192.83 184.43 194.29 183.5 195.57 183.57C196.3 183.61 196.64 183.83 196.54 184.25C196.06 186.21 197.79 187.03 198.58 188.28C199.42 189.61 199 191.66 197.48 192C196.82 192.15 196.3 192.2 196.39 193.03C196.01 193.24 195.73 193.25 195.73 192.7V192.72Z" fill="#D4A363"/>
<path d="M215.31 171.34C215.33 171.72 215.07 171.95 214.81 172.13C214.18 172.55 213.53 172.94 212.88 173.33C212.01 173.84 211.06 174.48 211.33 172.59C211.4 172.12 211.03 172.03 210.71 172.08C209.36 172.28 208.19 171.47 206.9 171.41C206.36 171.39 205.89 171.31 205.95 170.62C206 170.03 206.4 169.75 206.96 169.78C208.31 169.86 209.53 169.52 210.63 168.73C210.94 168.51 211.31 168.39 211.71 168.57C213.03 169.17 213.7 170.68 215.19 171.07C215.25 171.09 215.28 171.25 215.32 171.35L215.31 171.34Z" fill="#DBB169"/>
<path d="M191.87 166.9C191.78 167.43 191.77 168 191.58 168.49C191.43 168.88 191.71 169.75 190.96 169.56C190.35 169.41 189.7 170.14 189.15 169.37C188.67 168.69 189.31 168.41 189.54 167.98C189.95 167.17 189.31 165.53 188.39 165.06C187.93 164.82 187.91 164.39 187.82 163.96C187.66 163.22 187.48 162.49 187.23 161.78C187.11 161.44 186.65 161.05 187.07 160.79C187.58 160.47 188.05 160.91 188.21 161.36C188.44 162.01 189 162.48 189.05 163.23C189.09 163.83 189.45 164.43 190.13 164.46C191.81 164.53 191.85 165.65 191.86 166.89L191.87 166.9Z" fill="#DBB169"/>
<path d="M184.58 187.14C184.14 187.14 183.71 187.14 183.27 187.14C182.14 186.1 182.95 184.71 182.61 183.53C182.69 183.46 182.76 183.35 182.85 183.33C183.38 183.25 184.14 183.9 184.39 183.05C184.66 182.12 183.68 182.37 183.24 182.1C183.09 182.01 183.04 181.75 182.94 181.56C184 182.02 184.37 180.47 185.47 180.9C185.35 180.57 185.34 180.41 185.25 180.3C184.98 179.96 184.13 179.72 184.57 179.26C185.24 178.56 185.31 179.66 185.69 179.89C186.49 180.39 187.15 181.54 188.19 180.24C188.51 180.67 188.52 181.13 188.35 181.63C187.87 183 187.48 183.1 186.44 182.07C186.03 183.32 187.01 183.94 187.61 184.73C187.66 184.89 187.64 185.03 187.54 185.16C186.29 185.08 185.08 185.72 183.79 185.19C183.74 186.08 185.21 186.15 184.59 187.13L184.58 187.14Z" fill="#D8A866"/>
<path d="M176.71 163.52C175.22 161.58 175.43 160.77 177.59 160.12C179.29 159.61 179.53 159.79 179.73 161.61C179.75 161.82 179.9 162.01 179.99 162.21C180.16 162.63 180.02 162.95 179.66 163.19C179.44 163.3 179.22 163.41 179 163.52C178.23 163.72 177.47 164.06 176.7 163.52H176.71Z" fill="#D8A967"/>
<path d="M187.53 184.84C186.27 184.39 185.8 183.46 185.89 182.17C185.92 181.73 185.89 181.18 186.38 181.08C187.02 180.95 186.84 181.67 187.08 181.98C187.2 182.14 187.23 182.37 187.33 182.65C187.76 181.83 188.37 181.18 188.19 180.24C189.23 180.85 188.72 182.04 189.18 182.86C189.36 184.12 188.43 184.46 187.54 184.83L187.53 184.84Z" fill="#D19C60"/>
<path d="M192.54 180.08C193.65 179.55 194.33 178.74 195.43 178.94C196.08 179.06 196.66 179.39 196.62 180.04C196.59 180.65 196.62 181.53 195.57 181.57C195.36 181.57 195.1 181.57 194.94 181.68C193.91 182.43 193 183.11 193.66 180.93C193.88 180.2 193.09 180.33 192.52 180.08H192.54Z" fill="#D3A162"/>
<path d="M192.78 200.92C191.76 201.94 191.11 200.07 190.16 200.59C190.04 200.24 189.93 199.88 189.79 199.53C189.18 197.98 189.39 197.63 191.14 197.31C191.42 197.31 191.63 197.42 191.8 197.64C192.37 198.66 191.69 200.06 192.78 200.92Z" fill="#DBB169"/>
<path d="M185.42 175.52C185.66 174.89 185.95 174.27 185.63 173.5C186.35 174.2 186.89 174.76 187.92 174.75C188.8 174.75 189.02 175.76 189.1 176.47C189.18 177.18 188.48 177.61 187.96 177.95C187.46 178.27 187.03 177.44 187.07 177.37C188.43 175.11 186.3 175.89 185.41 175.53L185.42 175.52Z" fill="#D7A964"/>
<path d="M195.73 192.72C195.87 192.98 196.12 193.04 196.39 193.05C196.17 193.49 197.28 193.77 196.55 194.26C196.06 194.59 195.62 194.74 195.19 194.08C195.01 193.81 194.55 193.71 194.2 193.59C192.62 193.03 192.63 192.95 193.86 191.78C195.42 190.29 195.16 192.3 195.73 192.72Z" fill="#DBB169"/>
<path d="M187.53 184.84C187.74 183.9 189.12 183.94 189.17 182.87C189.64 183.22 189.44 183.6 189.26 184.01C189.12 184.32 188.84 184.63 189.43 184.9C190.04 185.18 190.24 185.71 189.87 186.36C189.57 186.9 189.06 186.83 188.6 186.79C187.87 186.74 187.6 186.29 187.66 185.59C187.67 185.45 187.58 185.31 187.54 185.16V184.83L187.53 184.84Z" fill="#D7A765"/>
<path d="M188.5 189.03C188.5 189.59 188.27 189.98 187.68 190.05C187.12 190.11 186.89 189.81 186.89 189.28C186.89 188.95 186.92 188.62 186.84 188.3C186.72 187.8 185.86 187.22 186.78 186.85C187.45 186.58 187.59 187.48 187.91 187.9C188.17 188.23 188.52 188.55 188.51 189.03H188.5Z" fill="#DBB169"/>
<path d="M190.1 154.03C190.79 154.06 190.82 154.5 190.8 154.96C190.77 155.56 190.49 156.09 189.89 156.14C189.37 156.18 189.23 155.58 189.24 155.17C189.24 154.61 189.47 154.1 190.1 154.03Z" fill="#DBB169"/>
<path d="M190.61 195.3C190.48 195.28 189.94 195.29 190.07 194.64C190.19 194.06 190.57 193.66 191.23 193.72C191.64 193.76 192.03 193.92 191.99 194.39C191.94 195 191.59 195.39 190.6 195.29L190.61 195.3Z" fill="#DBB169"/>
<path d="M179.66 163.19C179.77 162.86 179.88 162.53 179.99 162.21C180.18 162.31 180.37 162.41 180.57 162.5C181.05 162.73 181.43 163.05 181.2 163.63C181.04 164.03 180.74 164.46 180.25 164.37C179.63 164.25 179.68 163.68 179.67 163.19H179.66Z" fill="#DBB169"/>
<path d="M176.71 163.52H179.01C178.69 163.92 178.06 163.93 177.91 164.6C177.8 165.1 177.28 165.67 176.69 165.36C176.03 165.01 176.67 164.55 176.82 164.13C176.88 163.96 176.75 163.72 176.71 163.52Z" fill="#DAAE69"/>
<path d="M191.8 197.64C191.53 197.64 191.29 197.58 191.14 197.31C191.56 196.46 191.9 195.47 193.61 196.11C192.48 196.35 192.05 196.92 191.8 197.64Z" fill="#D5A863"/>
<path d="M185.24 190.42C185.8 189.17 185.59 188.08 184.58 187.14C186.15 187.86 186.4 189.06 185.24 190.42Z" fill="#D8A866"/>
<path d="M199.3 185.41C198.64 184.97 198.01 184.83 197.92 183.97C198.74 184.04 199.11 184.47 199.3 185.41Z" fill="#D4A363"/>
<path d="M179 168.11C178.49 167.8 177.94 167.75 177.36 167.78C178.13 166.76 178.68 166.89 179 168.11Z" fill="#DAAE69"/>
<path d="M177.36 167.78C176.81 168.11 176.27 168.44 175.72 168.76C175.81 167.67 176.62 167.78 177.36 167.78Z" fill="#DAAE69"/>
<path d="M185.41 168.94C185.67 169.04 185.82 169.2 185.77 169.43C185.75 169.52 185.55 169.65 185.45 169.64C185.24 169.61 185.06 169.45 185.13 169.21C185.16 169.1 185.33 169.02 185.42 168.95L185.41 168.94Z" fill="#DBB169"/>
<path d="M192.95 197.61C192.74 197.55 192.61 197.45 192.73 197.29C192.8 197.19 192.98 197.11 193.1 197.11C193.17 197.11 193.23 197.31 193.29 197.42C193.16 197.49 193.04 197.55 192.95 197.6V197.61Z" fill="#D5A863"/>
<path d="M159.85 152.3C159.52 152.96 159.81 153.41 160.05 153.82C161.22 155.85 160.99 158.33 162.2 160.37C162.7 161.21 161.81 161.9 161.29 162.48C160.3 163.58 161.03 164.21 161.82 164.84C161.96 164.95 162.23 165.03 162.39 164.98C163.36 164.69 163.37 164.67 163.65 165.62C163.76 165.98 163.87 166.36 163.89 166.73C163.93 167.71 164.07 168.92 162.72 169.04C161.55 169.14 160.57 168.41 160.33 167.22C159.85 164.83 159.19 162.43 158.47 160.16C157.69 157.68 158.01 154.74 155.92 152.68C155.47 152.23 155.77 151.52 155.69 150.94C155.4 148.82 155.63 146.57 154.13 144.76C153.93 144.52 153.63 144.22 154.05 143.95C154.3 143.79 154.59 143.95 154.72 144.23C154.97 144.74 155.49 144.8 155.93 144.98C157.62 145.69 158.54 146.86 158.71 148.79C158.82 150.02 159.71 151.13 159.83 152.31L159.85 152.3Z" fill="#DBB169"/>
<path d="M160.13 171.34C161.49 171.14 162.81 170.88 164.06 170.33C164.33 170.21 164.62 170.23 164.73 170.55C164.91 171.08 164.34 171.3 164.11 171.32C162.8 171.43 161.49 171.84 160.13 171.34Z" fill="#DBB169"/>
<path d="M161.52 173.36C162.55 172.9 163.2 172.21 164.13 172.07C164.46 172.02 164.84 172.05 164.96 172.42C165.1 172.86 164.69 172.91 164.4 173.04C163.58 173.42 162.81 174.03 161.52 173.36Z" fill="#CF9F5E"/>
<path d="M152.26 135.41C151.96 134.77 152.54 134.27 152.44 133.68C152.4 133.43 152.27 132.95 152.76 132.95C153.19 132.95 153.47 133.3 153.36 133.71C153.19 134.37 153.26 135.24 152.25 135.4L152.26 135.41Z" fill="#DBB169"/>
<path d="M163.58 174.67C163.36 174.67 163.14 174.67 162.93 174.67C162.68 174.94 162.43 175.2 162.01 175.65C162.24 174.31 162.76 173.79 163.92 174.2C164.07 174.25 164.07 174.26 163.59 174.68L163.58 174.67Z" fill="#DBB169"/>
<path d="M143.9 146.79C143.86 148.15 143.84 148.17 142.91 147.77C143.12 147.33 143.45 147 143.9 146.79Z" fill="#DBB169"/>
<path d="M167.18 169.45C167.39 169.47 167.64 169.46 167.64 169.75C167.64 170.04 167.38 170.05 167.18 170.05C166.97 170.05 166.71 170.04 166.72 169.75C166.72 169.47 166.97 169.46 167.19 169.45H167.18Z" fill="#DBB169"/>
<path d="M166.91 172.38C166.81 172.54 166.75 172.77 166.67 172.78C166.41 172.8 166.29 172.58 166.32 172.36C166.34 172.23 166.45 172.03 166.56 172C166.94 171.89 166.76 172.27 166.91 172.39V172.38Z" fill="#DBB169"/>
<path d="M163.58 175.98C163.99 176.05 164.41 176.12 163.91 176.64C163.33 176.66 163.41 176.34 163.58 175.98Z" fill="#DBB169"/>
<path d="M130 145.81C128.74 145.76 127.91 145.21 127.78 143.87C127.68 142.81 126.63 142.61 126.02 142.14C125.23 141.53 125.25 141.12 125.42 140.28C125.63 139.23 126.26 138.42 126.58 137.46C127.15 135.78 128.22 137.13 128.93 137.15C129.8 137.17 130.83 137.78 131.48 138.44C132.01 138.98 132.29 139.89 131.47 140.74C130.63 141.61 129.65 142.63 131.49 143.61C131.97 143.87 131.84 144.51 131.64 144.96C131.34 145.64 130.74 145.87 130.01 145.81H130Z" fill="#D29E61"/>
<path d="M126.14 142.24C126.3 143.09 126.45 143.74 125.63 144.33C124.61 145.07 124.81 143.4 124.03 143.77C124.92 143.36 125.18 142.26 126.14 142.24Z" fill="#DBB169"/>
<path d="M121.02 148.25C120.6 147.9 120.01 147.66 120.16 146.97C120.17 146.91 120.47 146.82 120.57 146.88C121.09 147.16 121.24 147.62 121.02 148.25Z" fill="#DBB169"/>
<path d="M106.48 101.91C106.53 101.98 106.68 102.12 106.65 102.21C106.56 102.53 106.25 102.48 106 102.49C105.65 102.5 105.9 102.27 105.92 102.19C105.98 101.95 106.17 101.88 106.48 101.91Z" fill="#DBB169"/>
<path d="M214.44 73.3398C214.86 75.2998 212.73 76.5298 211.21 76.5798C209.68 76.6298 208.18 75.2298 207.95 72.6198C207.85 71.5098 209.99 70.0598 211.62 70.0498C213.18 70.0498 214.44 71.5098 214.44 73.3398Z" fill="#CCA05B"/>
<path d="M182.61 183.53C183.83 184.55 182.61 186.02 183.27 187.14C183.48 187.51 183.58 188.01 184.08 188.09C185.18 188.26 185.09 189.12 184.77 189.68C184.35 190.42 183.52 190.26 182.96 189.74C181.99 188.85 181.1 188.02 179.6 188.04C178.83 188.05 177.99 187.21 177.99 186.47C177.99 185.61 178.93 185.43 179.75 185.51C180.76 185.61 181.6 185.46 181.81 184.23C181.87 183.85 182.16 183.55 182.62 183.54L182.61 183.53Z" fill="#D0965F"/>
<path d="M22.19 197.11C22.21 198.4 21.35 199.47 20.27 199.51C19.08 199.55 17.96 198.49 17.93 197.28C17.9 196.22 19.04 194.94 20.08 195.18C21 195.39 22.35 195.54 22.19 197.11Z" fill="#CFA35C"/>
<path d="M247.9 245.97C247.9 247.83 247.02 248.8 245.33 248.81C243.82 248.82 242.64 247.57 242.65 245.99C242.66 244.65 243.7 243.27 244.72 243.25C246.81 243.2 247.91 244.14 247.9 245.97Z" fill="#CA9E57"/>
<path d="M26.3899 174.02C24.3699 174.31 23.4499 172.4 23.3899 170.78C23.3199 168.95 24.6099 167.85 26.6699 167.79C28.1999 167.74 29.3699 169.11 29.4099 171C29.4499 172.87 28.3099 174.01 26.3999 174.02H26.3899Z" fill="#CA9D57"/>
<path d="M232.15 130.49C232.17 132.18 230.65 133.64 228.88 133.66C226.9 133.68 225.75 132.29 225.61 130.55C225.47 128.81 227.27 127.09 229.04 127.1C230.58 127.1 232.13 128.8 232.15 130.49Z" fill="#CB9F58"/>
</g>
<defs>
<clipPath id="clip0_382_236">
<rect width="275.01" height="343.03" fill="white"/>
</clipPath>
</defs>
</svg>
