<svg width="24" height="24" viewBox="0 0 24 24" fill="none" xmlns="http://www.w3.org/2000/svg">
<path d="M5.00038 3.00008L5.00038 21.0001C5.00095 21.1823 5.05122 21.361 5.14576 21.5168C5.2403 21.6726 5.37555 21.7996 5.53693 21.8843C5.69832 21.9689 5.87974 22.008 6.06167 21.9972C6.24359 21.9864 6.41913 21.9262 6.56938 21.8231L19.5694 12.8231C20.1084 12.4501 20.1084 11.5521 19.5694 11.1781L6.56938 2.17808C6.41944 2.07391 6.24381 2.01282 6.06159 2.00145C5.87936 1.99008 5.69751 2.02887 5.53578 2.1136C5.37405 2.19833 5.23863 2.32576 5.14424 2.48205C5.04985 2.63834 5.0001 2.8175 5.00038 3.00008Z" fill="black"/>
</svg>
