<svg width="12" height="12" viewBox="0 0 12 12" fill="none" xmlns="http://www.w3.org/2000/svg">
<path d="M3.96984 1.22691C3.82923 1.36756 3.75025 1.55829 3.75025 1.75716C3.75025 1.95604 3.82923 2.14677 3.96984 2.28741L7.68234 5.99991L3.96984 9.71241C3.83322 9.85387 3.75762 10.0433 3.75933 10.24C3.76104 10.4366 3.83992 10.6247 3.97897 10.7638C4.11803 10.9028 4.30614 10.9817 4.50279 10.9834C4.69943 10.9851 4.88888 10.9095 5.03034 10.7729L9.27309 6.53016C9.41369 6.38952 9.49268 6.19879 9.49268 5.99991C9.49268 5.80104 9.41369 5.61031 9.27309 5.46966L5.03034 1.22691C4.88969 1.08631 4.69896 1.00732 4.50009 1.00732C4.30121 1.00732 4.11048 1.08631 3.96984 1.22691Z" fill="#989898"/>
</svg>
