<svg width="27" height="24" viewBox="0 0 27 24" fill="none" xmlns="http://www.w3.org/2000/svg">
<g id="material-symbols-light:search">
<path id="Vector" d="M21.6764 20.154L14.9327 13.892C14.3942 14.318 13.775 14.6477 13.075 14.881C12.375 15.1144 11.6714 15.231 10.9642 15.231C9.23971 15.231 7.78012 14.6767 6.58546 13.568C5.39079 12.4594 4.79346 11.1044 4.79346 9.50305C4.79346 7.90171 5.39007 6.54605 6.5833 5.43605C7.77653 4.32605 9.23541 3.77038 10.9599 3.76905C12.6844 3.76771 14.1447 4.32238 15.3408 5.43305C16.5369 6.54371 17.135 7.89938 17.135 9.50005C17.135 10.1947 17.0025 10.867 16.7376 11.517C16.4727 12.167 16.1245 12.723 15.693 13.185L22.4367 19.446L21.6764 20.154ZM10.9653 14.23C12.394 14.23 13.6002 13.7734 14.5838 12.86C15.5674 11.9467 16.0592 10.8264 16.0592 9.49904C16.0592 8.17171 15.5674 7.05171 14.5838 6.13905C13.6002 5.22638 12.394 4.76971 10.9653 4.76905C9.53658 4.76838 8.33007 5.22505 7.34576 6.13905C6.36146 7.05305 5.86966 8.17305 5.87038 9.49904C5.8711 10.825 6.36289 11.945 7.34576 12.859C8.32864 13.773 9.53479 14.2297 10.9642 14.229" fill="#989898"/>
</g>
</svg>
