<svg width="630" height="400" viewBox="0 0 630 400" fill="none" xmlns="http://www.w3.org/2000/svg">
<path d="M298.94 209.826C249.709 186.469 228.734 127.627 252.092 78.3953C275.449 29.1638 334.292 8.18958 383.523 31.5473C432.755 54.9042 453.729 113.747 430.371 162.978C407.013 212.21 348.172 233.184 298.94 209.826Z" stroke="#E1E4E5" stroke-width="16" stroke-linecap="round" stroke-linejoin="round"/>
<path d="M394.768 270.88L374.377 213.675M312.854 147.79L369.605 93.5799M370.89 147.177C372.103 148.447 372.057 150.455 370.787 151.655C369.517 152.868 367.509 152.822 366.309 151.552C365.096 150.282 365.142 148.275 366.411 147.075C367.669 145.861 369.677 145.907 370.89 147.177ZM316.164 89.8202C317.377 91.0903 317.331 93.0979 316.061 94.298C314.791 95.5111 312.783 95.4653 311.583 94.1952C310.383 92.9259 310.416 90.9176 311.685 89.7174C312.955 88.5173 314.963 88.5502 316.164 89.8202Z" stroke="#E1E4E5" stroke-width="16" stroke-linecap="round" stroke-linejoin="round"/>
<path fill-rule="evenodd" clip-rule="evenodd" d="M505.692 319.186L492.511 298.718C484.871 286.853 474.075 277.351 461.334 271.281L416.075 249.718C411.979 247.766 407.495 246.763 402.957 246.782L392.811 246.826L395.69 256.236L355.646 246.638C350.987 245.521 346.418 248.79 345.972 253.561C345.843 254.946 346.083 256.34 346.668 257.602C347.253 258.864 348.161 259.949 349.301 260.746L360.393 268.497C353.479 271.865 352.559 281.346 358.695 285.98L364.333 290.238C359.014 293.559 358.738 301.205 363.805 304.9L371.983 310.865C371.49 313.416 371.86 316.058 373.034 318.375C374.209 320.693 376.121 322.553 378.469 323.664L387.203 327.793C388.497 328.405 389.843 328.901 391.224 329.274L431.579 340.183L476.691 370.146L505.692 319.186Z" fill="#F8AE9D"/>
<path fill-rule="evenodd" clip-rule="evenodd" d="M580.463 376.793L482.557 283.847L415.722 351.813L442.766 377.384L580.463 376.793Z" fill="#8B4513"/>
<path fill-rule="evenodd" clip-rule="evenodd" d="M123.077 309.573C122.715 309.768 122.306 309.857 121.897 309.829C121.487 309.802 121.094 309.66 120.761 309.42C120.428 309.178 120.169 308.848 120.013 308.467C119.858 308.086 119.813 307.669 119.882 307.264L121.466 298.059L114.756 291.537C114.465 291.249 114.26 290.886 114.164 290.488C114.067 290.091 114.084 289.674 114.21 289.285C114.336 288.896 114.568 288.551 114.88 288.287C115.192 288.023 115.571 287.852 115.975 287.792L125.252 286.449L129.396 278.067C129.579 277.7 129.86 277.39 130.209 277.174C130.558 276.957 130.961 276.842 131.371 276.842C132.208 276.842 132.972 277.316 133.346 278.067L137.489 286.449L146.766 287.792C147.171 287.852 147.55 288.023 147.862 288.287C148.174 288.551 148.406 288.896 148.532 289.285C148.659 289.674 148.675 290.091 148.578 290.488C148.482 290.886 148.277 291.249 147.986 291.537L141.272 298.055L142.857 307.26C142.927 307.666 142.882 308.084 142.727 308.465C142.572 308.847 142.313 309.177 141.979 309.419C141.647 309.66 141.253 309.802 140.843 309.83C140.433 309.857 140.023 309.768 139.662 309.573L131.367 305.231L123.077 309.573ZM166.895 309.572C166.533 309.767 166.125 309.856 165.715 309.829C165.306 309.801 164.912 309.659 164.58 309.419C164.246 309.178 163.987 308.848 163.831 308.467C163.676 308.086 163.63 307.669 163.7 307.264L165.285 298.058L158.575 291.536C158.283 291.248 158.078 290.885 157.982 290.488C157.885 290.09 157.901 289.673 158.028 289.284C158.155 288.896 158.387 288.55 158.699 288.286C159.011 288.023 159.39 287.851 159.794 287.792L169.07 286.448L173.214 278.066C173.396 277.699 173.678 277.389 174.027 277.173C174.376 276.956 174.779 276.842 175.189 276.841C176.025 276.841 176.79 277.315 177.165 278.066L181.308 286.448L190.584 287.792C190.988 287.851 191.368 288.023 191.68 288.286C191.992 288.55 192.224 288.896 192.35 289.284C192.477 289.673 192.493 290.09 192.396 290.488C192.3 290.885 192.095 291.248 191.804 291.536L185.09 298.054L186.674 307.26C186.745 307.665 186.7 308.083 186.545 308.464C186.39 308.846 186.131 309.176 185.797 309.418C185.465 309.659 185.071 309.802 184.661 309.829C184.251 309.856 183.842 309.767 183.48 309.572L175.185 305.231L166.895 309.572ZM210.713 309.572C210.351 309.767 209.942 309.856 209.533 309.829C209.123 309.801 208.73 309.659 208.397 309.419C208.064 309.178 207.805 308.848 207.65 308.467C207.494 308.086 207.448 307.669 207.518 307.264L209.103 298.058L202.392 291.536C202.101 291.248 201.896 290.885 201.8 290.488C201.703 290.09 201.719 289.673 201.846 289.284C201.972 288.896 202.204 288.55 202.516 288.286C202.828 288.023 203.208 287.851 203.612 287.792L212.888 286.448L217.032 278.066C217.215 277.699 217.497 277.39 217.846 277.174C218.195 276.958 218.597 276.843 219.007 276.843C219.418 276.843 219.82 276.958 220.169 277.174C220.518 277.39 220.8 277.699 220.982 278.066L225.126 286.448L234.403 287.792C234.807 287.851 235.186 288.023 235.498 288.287C235.81 288.55 236.042 288.896 236.168 289.284C236.295 289.673 236.311 290.09 236.214 290.488C236.118 290.885 235.913 291.248 235.621 291.536L228.908 298.054L230.492 307.26C230.562 307.665 230.518 308.083 230.362 308.464C230.207 308.846 229.948 309.176 229.615 309.418C229.282 309.659 228.889 309.802 228.479 309.829C228.069 309.856 227.66 309.767 227.298 309.572L219.004 305.231L210.713 309.572ZM254.53 309.572C254.169 309.767 253.76 309.856 253.351 309.829C252.941 309.801 252.548 309.659 252.215 309.419C251.882 309.178 251.623 308.848 251.468 308.467C251.312 308.086 251.267 307.669 251.336 307.264L252.92 298.058L246.21 291.536C245.919 291.248 245.714 290.885 245.618 290.488C245.521 290.09 245.537 289.673 245.664 289.284C245.79 288.896 246.022 288.55 246.334 288.286C246.646 288.023 247.026 287.851 247.43 287.792L256.707 286.448L260.85 278.066C261.033 277.699 261.314 277.389 261.663 277.173C262.012 276.957 262.414 276.842 262.825 276.841C263.661 276.841 264.426 277.315 264.8 278.066L268.944 286.448L278.221 287.792C278.625 287.851 279.004 288.023 279.316 288.287C279.628 288.55 279.86 288.896 279.986 289.284C280.112 289.673 280.129 290.09 280.032 290.487C279.936 290.885 279.731 291.248 279.44 291.536L272.726 298.054L274.31 307.26C274.381 307.665 274.336 308.083 274.181 308.464C274.026 308.846 273.767 309.176 273.434 309.418C273.101 309.659 272.707 309.802 272.297 309.829C271.887 309.856 271.478 309.767 271.116 309.572L262.822 305.231L254.53 309.572ZM298.348 309.572C297.987 309.767 297.578 309.856 297.169 309.829C296.759 309.801 296.365 309.659 296.033 309.419C295.7 309.178 295.441 308.848 295.286 308.467C295.13 308.086 295.085 307.669 295.154 307.264L296.738 298.058L290.028 291.536C289.737 291.248 289.532 290.885 289.436 290.487C289.339 290.09 289.355 289.673 289.482 289.284C289.608 288.896 289.84 288.55 290.152 288.287C290.464 288.023 290.843 287.851 291.247 287.792L300.524 286.448L304.668 278.066C304.851 277.699 305.132 277.389 305.481 277.173C305.83 276.956 306.233 276.842 306.643 276.841C307.48 276.841 308.244 277.315 308.618 278.066L312.762 286.448L322.038 287.792C322.443 287.851 322.822 288.023 323.134 288.286C323.446 288.55 323.678 288.896 323.804 289.284C323.931 289.673 323.947 290.09 323.85 290.487C323.754 290.885 323.549 291.248 323.258 291.536L316.544 298.054L318.129 307.26C318.199 307.665 318.154 308.083 317.999 308.464C317.844 308.846 317.585 309.176 317.251 309.418C316.919 309.659 316.525 309.802 316.115 309.829C315.705 309.856 315.295 309.767 314.934 309.572L306.639 305.231L298.348 309.572ZM21.317 277.223H25.6542C26.1563 277.223 26.6376 277.423 26.9926 277.778C27.3476 278.133 27.5473 278.614 27.5477 279.116V283.453C27.5473 283.955 27.3476 284.436 26.9926 284.791C26.6376 285.146 26.1563 285.346 25.6542 285.346H21.317C20.8155 285.344 20.3351 285.144 19.9806 284.79C19.626 284.435 19.4261 283.954 19.4244 283.453V279.116C19.4155 278.076 20.2687 277.223 21.317 277.223ZM36.3538 277.223H40.691C41.1924 277.225 41.6727 277.425 42.0272 277.779C42.3818 278.134 42.5818 278.614 42.5837 279.116V283.453C42.5835 283.955 42.384 284.436 42.0292 284.791C41.6743 285.146 41.193 285.346 40.691 285.346H36.3538C35.8524 285.344 35.3721 285.144 35.0176 284.789C34.6631 284.435 34.4631 283.954 34.4612 283.453V279.116C34.4631 278.614 34.6631 278.134 35.0176 277.779C35.3722 277.425 35.8525 277.225 36.3538 277.223ZM51.4011 277.223H55.7375C56.2391 277.225 56.7196 277.425 57.0742 277.78C57.4289 278.134 57.629 278.615 57.6309 279.116V283.453C57.6305 283.955 57.4309 284.436 57.0759 284.791C56.7209 285.146 56.2395 285.346 55.7375 285.346H51.4011C50.8995 285.344 50.419 285.144 50.0643 284.79C49.7096 284.435 49.5095 283.954 49.5076 283.453V279.116C49.4988 278.076 50.3519 277.223 51.4011 277.223ZM66.4379 277.223H70.7743C71.2759 277.225 71.7564 277.425 72.111 277.78C72.4657 278.134 72.6658 278.615 72.6677 279.116V283.453C72.6673 283.955 72.4677 284.436 72.1127 284.791C71.7577 285.146 71.2763 285.346 70.7743 285.346H66.4371C65.9342 285.346 65.4519 285.147 65.0956 284.792C64.7393 284.437 64.5379 283.956 64.5356 283.453V279.116C64.5408 278.614 64.7432 278.134 65.0991 277.78C65.455 277.426 65.9358 277.226 66.4379 277.223ZM81.4755 277.223H85.8119C86.3147 277.223 86.7971 277.422 87.1536 277.777C87.5101 278.131 87.7116 278.613 87.7141 279.116V283.453C87.7138 283.702 87.6644 283.949 87.5685 284.179C87.4727 284.409 87.3324 284.618 87.1557 284.794C86.979 284.97 86.7694 285.109 86.5388 285.204C86.3082 285.299 86.0612 285.347 85.8119 285.346H81.4755C80.9739 285.344 80.4934 285.144 80.1387 284.79C79.784 284.435 79.5839 283.954 79.582 283.453V279.116C79.5839 278.614 79.784 278.134 80.1387 277.779C80.4934 277.425 80.974 277.225 81.4755 277.223ZM36.9057 293.62H41.2429C41.7444 293.622 42.2249 293.822 42.5794 294.177C42.934 294.531 43.1339 295.012 43.1356 295.513V299.859C43.1337 300.361 42.9337 300.841 42.5791 301.195C42.2246 301.55 41.7443 301.75 41.2429 301.752H36.9057C36.4038 301.752 35.9224 301.552 35.5674 301.197C35.2123 300.843 35.0127 300.361 35.0123 299.859V295.522C35.0108 295.273 35.0587 295.025 35.1532 294.794C35.2477 294.564 35.387 294.354 35.563 294.177C35.739 294 35.9483 293.86 36.1787 293.764C36.4091 293.669 36.6562 293.619 36.9057 293.62ZM51.9425 293.62H56.2789C56.7805 293.622 57.261 293.822 57.6157 294.176C57.9704 294.531 58.1705 295.012 58.1724 295.513V299.859C58.1705 300.361 57.9703 300.841 57.6156 301.196C57.2609 301.55 56.7804 301.75 56.2789 301.752H51.9425C51.441 301.75 50.9605 301.55 50.6058 301.196C50.2511 300.841 50.051 300.361 50.0491 299.859V295.522C50.0476 295.273 50.0955 295.025 50.19 294.794C50.2845 294.564 50.4238 294.354 50.5998 294.177C50.7758 294 50.985 293.86 51.2155 293.764C51.4459 293.669 51.693 293.619 51.9425 293.62ZM66.9801 293.62H71.3165C71.8195 293.62 72.302 293.819 72.6585 294.174C73.015 294.529 73.2165 295.01 73.2188 295.513V299.859C73.2163 300.362 73.0147 300.843 72.6582 301.198C72.3018 301.553 71.8194 301.752 71.3165 301.752H66.9801C66.4786 301.75 65.9981 301.55 65.6434 301.196C65.2887 300.841 65.0886 300.361 65.0867 299.859V295.522C65.0867 295.019 65.2859 294.537 65.6407 294.18C65.9955 293.824 66.4771 293.622 66.9801 293.62ZM51.4011 259.608H55.7375C56.239 259.61 56.7195 259.81 57.0742 260.164C57.4289 260.519 57.629 260.999 57.6309 261.501V265.838C57.6305 266.34 57.4309 266.821 57.0759 267.176C56.7209 267.531 56.2395 267.731 55.7375 267.732H51.4011C50.8995 267.73 50.419 267.53 50.0643 267.175C49.7096 266.82 49.5095 266.34 49.5076 265.838V261.501C49.4988 260.461 50.3519 259.608 51.4011 259.608ZM66.4379 259.608H70.7743C71.2758 259.61 71.7563 259.81 72.111 260.164C72.4657 260.519 72.6658 260.999 72.6677 261.501V265.838C72.6673 266.34 72.4677 266.821 72.1127 267.176C71.7577 267.531 71.2763 267.731 70.7743 267.732H66.4371C65.9342 267.731 65.4519 267.532 65.0956 267.177C64.7393 266.822 64.5379 266.341 64.5356 265.838V261.501C64.541 260.999 64.7435 260.519 65.0994 260.165C65.4552 259.811 65.9359 259.611 66.4379 259.608ZM519.025 229.582H523.804C524.357 229.582 524.887 229.802 525.278 230.193C525.669 230.584 525.889 231.115 525.889 231.668V236.447C525.889 237 525.669 237.53 525.278 237.921C524.887 238.312 524.357 238.532 523.804 238.533H519.025C518.472 238.531 517.942 238.31 517.552 237.92C517.161 237.529 516.94 236.999 516.938 236.447V231.668C516.929 230.522 517.869 229.582 519.025 229.582ZM535.593 229.582H540.372C540.925 229.584 541.454 229.805 541.845 230.195C542.235 230.586 542.456 231.115 542.458 231.668V236.447C542.458 237 542.238 237.53 541.847 237.921C541.456 238.312 540.926 238.532 540.372 238.533H535.593C535.041 238.531 534.511 238.31 534.121 237.919C533.73 237.529 533.509 236.999 533.507 236.447V231.668C533.509 231.115 533.73 230.586 534.121 230.195C534.511 229.804 535.041 229.584 535.593 229.582ZM552.173 229.582H556.952C557.505 229.584 558.034 229.805 558.425 230.195C558.815 230.586 559.036 231.115 559.038 231.668V236.447C559.038 237 558.818 237.53 558.427 237.921C558.036 238.312 557.506 238.532 556.952 238.533H552.173C551.621 238.531 551.091 238.31 550.701 237.919C550.31 237.529 550.089 236.999 550.087 236.447V231.668C550.078 230.522 551.017 229.582 552.173 229.582ZM568.742 229.582H573.521C574.074 229.584 574.603 229.805 574.994 230.195C575.385 230.586 575.605 231.115 575.607 231.668V236.447C575.607 237 575.387 237.53 574.996 237.921C574.605 238.312 574.074 238.532 573.521 238.533H568.742C568.188 238.533 567.657 238.313 567.264 237.922C566.871 237.531 566.649 237.001 566.646 236.447V231.668C566.657 230.522 567.597 229.582 568.742 229.582ZM585.313 229.582H590.092C590.646 229.582 591.177 229.801 591.57 230.192C591.963 230.583 592.185 231.113 592.187 231.668V236.447C592.187 236.721 592.132 236.993 592.027 237.247C591.921 237.5 591.767 237.73 591.572 237.924C591.377 238.118 591.146 238.271 590.892 238.376C590.638 238.48 590.366 238.534 590.092 238.533H585.313C584.76 238.53 584.231 238.31 583.84 237.919C583.45 237.528 583.229 236.999 583.227 236.447V231.668C583.229 231.115 583.45 230.586 583.84 230.195C584.231 229.805 584.76 229.584 585.313 229.582ZM536.201 247.65H540.98C541.532 247.652 542.062 247.872 542.453 248.263C542.844 248.654 543.064 249.183 543.066 249.736V254.525C543.064 255.077 542.843 255.607 542.453 255.997C542.062 256.388 541.532 256.608 540.98 256.61H536.201C535.648 256.61 535.118 256.39 534.727 255.999C534.336 255.608 534.116 255.078 534.115 254.525V249.746C534.114 249.471 534.166 249.198 534.27 248.944C534.374 248.69 534.528 248.458 534.722 248.264C534.916 248.069 535.146 247.914 535.4 247.809C535.654 247.704 535.926 247.65 536.201 247.65ZM552.77 247.65H557.549C558.102 247.652 558.631 247.872 559.022 248.263C559.413 248.654 559.633 249.184 559.635 249.736V254.525C559.633 255.077 559.412 255.606 559.022 255.997C558.631 256.388 558.102 256.608 557.549 256.61H552.77C552.218 256.608 551.688 256.388 551.297 255.997C550.907 255.607 550.686 255.077 550.684 254.525V249.746C550.682 249.471 550.735 249.198 550.839 248.944C550.944 248.69 551.097 248.458 551.291 248.264C551.485 248.069 551.715 247.914 551.969 247.809C552.223 247.704 552.495 247.65 552.77 247.65ZM569.34 247.65H574.119C574.673 247.65 575.205 247.869 575.598 248.26C575.99 248.651 576.212 249.182 576.215 249.736V254.525C576.212 255.079 575.99 255.609 575.597 256C575.204 256.391 574.673 256.61 574.119 256.61H569.34C568.787 256.608 568.258 256.388 567.868 255.997C567.477 255.606 567.257 255.077 567.254 254.525V249.746C567.254 249.192 567.474 248.66 567.865 248.267C568.255 247.875 568.786 247.653 569.34 247.65ZM552.173 210.172H556.952C557.505 210.174 558.034 210.395 558.425 210.785C558.816 211.176 559.036 211.706 559.038 212.258V217.037C559.037 217.59 558.818 218.12 558.427 218.511C558.036 218.902 557.505 219.122 556.952 219.123H552.173C551.621 219.121 551.092 218.9 550.701 218.51C550.31 218.119 550.089 217.59 550.087 217.037V212.258C550.078 211.112 551.017 210.172 552.173 210.172ZM568.742 210.172H573.521C574.074 210.174 574.603 210.395 574.994 210.785C575.385 211.176 575.605 211.706 575.607 212.258V217.037C575.607 217.59 575.387 218.12 574.995 218.511C574.604 218.902 574.074 219.122 573.521 219.123H568.742C568.188 219.122 567.657 218.903 567.264 218.512C566.871 218.121 566.649 217.591 566.646 217.037V212.258C566.657 211.112 567.597 210.172 568.742 210.172ZM125.711 67.6791H129.987C130.482 67.6793 130.957 67.8759 131.307 68.2258C131.657 68.5757 131.854 69.0503 131.854 69.5452V73.8222C131.854 74.3172 131.657 74.7918 131.307 75.1418C130.957 75.4919 130.482 75.6887 129.987 75.6891H125.711C125.216 75.6872 124.743 75.4899 124.393 75.1402C124.043 74.7905 123.846 74.3167 123.844 73.8222V69.5452C123.835 68.5202 124.676 67.6791 125.711 67.6791ZM140.538 67.6783H144.815C145.31 67.6804 145.783 67.8778 146.133 68.2275C146.482 68.5772 146.679 69.0508 146.681 69.5452V73.8222C146.681 74.317 146.484 74.7914 146.134 75.1412C145.784 75.4911 145.31 75.6879 144.815 75.6883H140.538C140.044 75.6864 139.57 75.4892 139.22 75.1397C138.871 74.7901 138.673 74.3166 138.671 73.8222V69.5452C138.673 69.0507 138.871 68.5771 139.22 68.2274C139.57 67.8778 140.044 67.6804 140.538 67.6783ZM155.376 67.6791H159.653C160.147 67.681 160.621 67.8782 160.97 68.2277C161.32 68.5772 161.517 69.0508 161.52 69.5452V73.8222C161.519 74.3171 161.322 74.7916 160.972 75.1416C160.622 75.4916 160.148 75.6885 159.653 75.6891H155.376C154.881 75.687 154.408 75.4896 154.058 75.1399C153.709 74.7902 153.511 74.3166 153.51 73.8222V69.5452C153.501 68.5202 154.342 67.6791 155.376 67.6791ZM170.204 67.6791H174.481C174.975 67.681 175.449 67.8782 175.798 68.2278C176.148 68.5773 176.345 69.0509 176.347 69.5452V73.8222C176.346 74.317 176.15 74.7915 175.8 75.1415C175.45 75.4915 174.975 75.6885 174.481 75.6891H170.204C169.708 75.6889 169.232 75.4924 168.881 75.1426C168.529 74.7928 168.33 74.3181 168.328 73.8222V69.5452C168.334 69.0504 168.533 68.5776 168.884 68.2285C169.235 67.8795 169.709 67.6822 170.204 67.6791ZM185.032 67.6783H189.309C189.805 67.6785 190.281 67.875 190.632 68.2248C190.983 68.5747 191.182 69.0494 191.184 69.5452V73.8222C191.184 74.0679 191.135 74.311 191.041 74.5378C190.946 74.7646 190.808 74.9706 190.634 75.1439C190.46 75.3172 190.253 75.4545 190.026 75.5479C189.798 75.6413 189.555 75.689 189.309 75.6883H185.032C184.538 75.6864 184.064 75.4892 183.715 75.1397C183.365 74.7901 183.168 74.3166 183.165 73.8222V69.5452C183.168 69.0507 183.365 68.5771 183.715 68.2274C184.064 67.8778 184.538 67.6804 185.032 67.6783ZM141.082 83.8478H145.359C145.854 83.8497 146.327 84.047 146.677 84.3967C147.027 84.7464 147.224 85.2202 147.226 85.7147V89.9997C147.224 90.4942 147.027 90.968 146.677 91.3177C146.327 91.6674 145.854 91.8647 145.359 91.8666H141.082C140.587 91.8662 140.113 91.6694 139.763 91.3193C139.413 90.9693 139.216 90.4946 139.216 89.9997V85.7235C139.214 85.4776 139.261 85.2337 139.354 85.0061C139.448 84.7784 139.585 84.5714 139.758 84.397C139.932 84.2227 140.138 84.0843 140.365 83.9901C140.592 83.8958 140.836 83.8474 141.082 83.8478ZM155.91 83.8478H160.187C160.681 83.8497 161.155 84.047 161.505 84.3967C161.854 84.7465 162.051 85.2202 162.053 85.7147V89.9997C162.051 90.4942 161.854 90.9679 161.505 91.3177C161.155 91.6674 160.681 91.8647 160.187 91.8666H155.91C155.415 91.8649 154.941 91.6677 154.592 91.3179C154.242 90.9682 154.045 90.4943 154.043 89.9997V85.7235C154.042 85.4775 154.089 85.2337 154.182 85.006C154.275 84.7783 154.412 84.5714 154.586 84.397C154.759 84.2226 154.966 84.0843 155.193 83.9901C155.42 83.8958 155.664 83.8474 155.91 83.8478ZM170.739 83.8478H175.015C175.511 83.8478 175.987 84.0442 176.338 84.394C176.69 84.7439 176.888 85.2188 176.891 85.7147V89.9997C176.888 90.4956 176.69 90.9705 176.338 91.3204C175.987 91.6702 175.511 91.8666 175.015 91.8666H170.739C170.244 91.8649 169.77 91.6677 169.42 91.3179C169.071 90.9682 168.873 90.4943 168.872 89.9997V85.7235C168.872 85.2276 169.068 84.7518 169.418 84.4003C169.768 84.0488 170.243 83.8501 170.739 83.8478ZM155.376 50.3086H159.653C160.147 50.3105 160.621 50.5078 160.971 50.8575C161.32 51.2072 161.518 51.681 161.52 52.1755V56.4517C161.519 56.9467 161.322 57.4213 160.972 57.7713C160.622 58.1214 160.148 58.3182 159.653 58.3186H155.376C154.881 58.3167 154.408 58.1194 154.058 57.7697C153.708 57.4199 153.511 56.9462 153.51 56.4517V52.1755C153.501 51.1497 154.342 50.3086 155.376 50.3086ZM170.204 50.3086H174.481C174.975 50.3105 175.449 50.5078 175.798 50.8576C176.148 51.2073 176.345 51.6811 176.347 52.1755V56.4517C176.347 56.9466 176.15 57.4212 175.8 57.7713C175.45 58.1213 174.976 58.3182 174.481 58.3186H170.204C169.708 58.3186 169.232 58.1222 168.88 57.7724C168.529 57.4225 168.33 56.9476 168.328 56.4517V52.1755C168.333 51.6806 168.533 51.2075 168.884 50.8583C169.235 50.5091 169.709 50.3117 170.204 50.3086Z" fill="#F2C32D"/>
<path fill-rule="evenodd" clip-rule="evenodd" d="M480.281 89.174C480.281 82.7939 485.453 77.6221 491.832 77.6221H602.326C608.706 77.6221 613.877 82.7939 613.877 89.174C613.877 95.5533 608.706 100.725 602.326 100.725H491.832C485.453 100.725 480.281 95.5533 480.281 89.174ZM191.782 133.128C191.782 127.026 186.835 122.079 180.733 122.079H30.059C23.9569 122.079 19.0099 127.026 19.0099 133.128C19.0099 139.231 23.9569 144.177 30.059 144.177H180.733C186.835 144.177 191.782 139.231 191.782 133.128ZM480.281 128.886C480.281 122.507 485.453 117.335 491.832 117.335H553.106C559.485 117.335 564.657 122.507 564.657 128.886C564.657 135.266 559.485 140.438 553.106 140.438H491.832C485.453 140.438 480.281 135.266 480.281 128.886ZM148.588 171.917C148.588 165.537 143.417 160.365 137.037 160.365H28.5527C22.1727 160.365 17.0008 165.537 17.0008 171.917C17.0008 178.297 22.1727 183.468 28.5527 183.468H137.037C143.417 183.468 148.588 178.297 148.588 171.917ZM480.281 167.245C480.281 161.42 485.003 156.698 490.828 156.698H554.11C559.935 156.698 564.657 161.42 564.657 167.245C564.657 173.07 559.935 177.792 554.11 177.792H490.828C485.003 177.792 480.281 173.07 480.281 167.245ZM148.588 210.276C148.588 204.451 143.866 199.729 138.041 199.729H27.5478C21.7228 199.729 17 204.451 17 210.276C17 216.101 21.7228 220.823 27.5478 220.823H138.041C143.866 220.823 148.588 216.101 148.588 210.276Z" fill="white" stroke="#E1E4E5" stroke-width="4" stroke-linecap="round" stroke-linejoin="round"/>
<path d="M288.148 205.817C288.148 177.322 265.049 154.223 236.554 154.223C208.059 154.223 184.96 177.322 184.96 205.817C184.96 234.311 208.059 257.411 236.554 257.411C265.049 257.411 288.148 234.311 288.148 205.817Z" fill="#8B4513"/>
<path d="M253.324 196.543L230.826 218.775L217.328 205.436" stroke="white" stroke-width="9.368" stroke-linecap="round" stroke-linejoin="round"/>
</svg>
