<svg width="1024" height="1024" viewBox="0 0 1024 1024" fill="none" xmlns="http://www.w3.org/2000/svg">
<path d="M512.5 390.6C482.6 390.6 454.6 402.2 433.4 423.4C412.3 444.6 400.6 472.6 400.6 502.5C400.6 532.4 412.3 560.4 433.4 581.6C454.6 602.7 482.6 614.4 512.5 614.4C542.4 614.4 570.4 602.7 591.6 581.6C612.7 560.4 624.401 532.4 624.401 502.5C624.401 472.6 612.7 444.6 591.6 423.4C581.246 412.966 568.921 404.693 555.342 399.062C541.763 393.431 527.201 390.555 512.5 390.6ZM924.8 626.1L859.401 570.2C862.501 551.2 864.1 531.8 864.1 512.5C864.1 493.2 862.501 473.7 859.401 454.8L924.8 398.9C929.741 394.67 933.277 389.037 934.938 382.75C936.599 376.462 936.307 369.817 934.1 363.7L933.201 361.1C915.202 310.769 888.233 264.115 853.6 223.4L851.8 221.3C847.595 216.355 841.99 212.8 835.724 211.105C829.458 209.409 822.826 209.651 816.701 211.8L735.5 240.7C705.5 216.1 672.101 196.7 635.901 183.2L620.201 98.2998C619.016 91.904 615.913 86.02 611.305 81.4296C606.697 76.8391 600.801 73.7595 594.401 72.5998L591.701 72.0998C539.701 62.6998 484.9 62.6998 432.9 72.0998L430.201 72.5998C423.8 73.7595 417.904 76.8391 413.296 81.4296C408.688 86.02 405.585 91.904 404.4 98.2998L388.6 183.6C352.743 197.207 319.34 216.56 289.701 240.9L207.9 211.8C201.777 209.634 195.14 209.383 188.87 211.08C182.6 212.777 176.996 216.341 172.8 221.3L171 223.4C136.429 264.158 109.467 310.8 91.4005 361.1L90.5005 363.7C86.0005 376.2 89.7005 390.2 99.8005 398.9L166 455.4C162.9 474.2 161.4 493.4 161.4 512.4C161.4 531.6 162.9 550.8 166 569.4L100 625.9C95.0601 630.129 91.5241 635.762 89.8629 642.05C88.2016 648.338 88.4938 654.982 90.7005 661.1L91.6005 663.7C109.7 714 136.4 760.5 171.2 801.4L173 803.5C177.206 808.445 182.811 811.999 189.077 813.695C195.343 815.391 201.975 815.149 208.1 813L289.9 783.9C319.7 808.4 352.9 827.8 388.8 841.2L404.6 926.5C405.785 932.896 408.888 938.78 413.496 943.37C418.104 947.961 424 951.04 430.4 952.2L433.1 952.7C485.612 962.15 539.389 962.15 591.901 952.7L594.6 952.2C601.001 951.04 606.897 947.961 611.505 943.37C616.113 938.78 619.216 932.896 620.401 926.5L636.1 841.6C672.3 828 705.701 808.7 735.701 784.1L816.901 813C823.024 815.166 829.661 815.417 835.931 813.72C842.201 812.023 847.805 808.458 852 803.5L853.8 801.4C888.6 760.3 915.301 714 933.401 663.7L934.3 661.1C938.6 648.7 934.9 634.8 924.8 626.1ZM512.5 678.3C415.4 678.3 336.701 599.6 336.701 502.5C336.701 405.4 415.4 326.7 512.5 326.7C609.6 326.7 688.3 405.4 688.3 502.5C688.3 599.6 609.6 678.3 512.5 678.3Z" fill="#989898"/>
</svg>
