<svg width="73" height="73" viewBox="0 0 73 73" fill="none" xmlns="http://www.w3.org/2000/svg">
<path d="M66.8088 32.7501L53.9768 43.8227L57.8863 60.3818C58.102 61.2807 58.0465 62.2233 57.7267 63.0907C57.4069 63.9581 56.8372 64.7112 56.0896 65.255C55.342 65.7987 54.4501 66.1087 53.5264 66.1458C52.6027 66.1829 51.6887 65.9453 50.9 65.4633L36.4996 56.6006L22.0906 65.4633C21.302 65.9426 20.3891 66.1778 19.467 66.1394C18.5449 66.1009 17.6548 65.7905 16.9088 65.2472C16.1627 64.7039 15.5941 63.9521 15.2746 63.0863C14.955 62.2205 14.8987 61.2795 15.1129 60.3818L19.0366 43.8227L6.20458 32.7501C5.5068 32.147 5.00215 31.3518 4.75365 30.4636C4.50516 29.5754 4.52384 28.6337 4.80736 27.7561C5.09087 26.8785 5.62666 26.1038 6.34781 25.5289C7.06896 24.954 7.94351 24.6042 8.86223 24.5234L25.6865 23.166L32.1766 7.45961C32.5279 6.60362 33.1258 5.87143 33.8943 5.35612C34.6628 4.84082 35.5672 4.56567 36.4924 4.56567C37.4177 4.56567 38.3221 4.84082 39.0906 5.35612C39.8591 5.87143 40.457 6.60362 40.8083 7.45961L47.2956 23.166L64.1198 24.5234C65.0404 24.6012 65.9175 24.949 66.6412 25.5231C67.365 26.0973 67.9033 26.8722 68.1885 27.7509C68.4738 28.6296 68.4935 29.5729 68.245 30.4627C67.9965 31.3525 67.491 32.1492 66.7917 32.753L66.8088 32.7501Z" fill="#FFBF00"/>
</svg>
