<svg width="42" height="42" viewBox="0 0 42 42" fill="none" xmlns="http://www.w3.org/2000/svg">
<circle cx="21" cy="21" r="21" fill="#EFEFEF"/>
<path d="M35.5711 31.9842C33.4889 28.3844 30.2801 25.8031 26.5354 24.5795C28.3877 23.4768 29.8268 21.7966 30.6318 19.7968C31.4367 17.797 31.563 15.5883 30.9911 13.5099C30.4193 11.4314 29.181 9.59812 27.4664 8.29155C25.7518 6.98497 23.6557 6.27734 21.5 6.27734C19.3444 6.27734 17.2483 6.98497 15.5337 8.29155C13.8191 9.59812 12.5808 11.4314 12.009 13.5099C11.4371 15.5883 11.5634 17.797 12.3683 19.7968C13.1733 21.7966 14.6124 23.4768 16.4647 24.5795C12.72 25.8018 9.51118 28.383 7.42896 31.9842C7.3526 32.1087 7.30195 32.2472 7.28 32.3916C7.25805 32.536 7.26524 32.6834 7.30116 32.8249C7.33707 32.9665 7.40098 33.0995 7.4891 33.2159C7.57723 33.3324 7.68779 33.4301 7.81426 33.5031C7.94074 33.5762 8.08056 33.6231 8.22549 33.6413C8.37042 33.6594 8.51751 33.6484 8.65809 33.6087C8.79867 33.5691 8.92988 33.5017 9.044 33.4105C9.15811 33.3194 9.25281 33.2063 9.32251 33.0779C11.8983 28.6264 16.451 25.9686 21.5 25.9686C26.5491 25.9686 31.1018 28.6264 33.6776 33.0779C33.7473 33.2063 33.842 33.3194 33.9561 33.4105C34.0702 33.5017 34.2014 33.5691 34.342 33.6087C34.4826 33.6484 34.6297 33.6594 34.7746 33.6413C34.9195 33.6231 35.0594 33.5762 35.1858 33.5031C35.3123 33.4301 35.4229 33.3324 35.511 33.2159C35.5991 33.0995 35.663 32.9665 35.6989 32.8249C35.7349 32.6834 35.742 32.536 35.7201 32.3916C35.6981 32.2472 35.6475 32.1087 35.5711 31.9842ZM13.8438 16.1248C13.8438 14.6105 14.2928 13.1303 15.1341 11.8712C15.9754 10.6122 17.1711 9.63084 18.5701 9.05136C19.9691 8.47188 21.5085 8.32026 22.9937 8.61568C24.4789 8.91109 25.8431 9.64028 26.9138 10.711C27.9846 11.7818 28.7138 13.146 29.0092 14.6312C29.3046 16.1163 29.153 17.6557 28.5735 19.0547C27.994 20.4537 27.0127 21.6495 25.7536 22.4908C24.4946 23.332 23.0143 23.7811 21.5 23.7811C19.4702 23.7789 17.524 22.9716 16.0887 21.5362C14.6533 20.1008 13.846 18.1547 13.8438 16.1248Z" fill="white"/>
</svg>
