<svg width="723" height="482" viewBox="0 0 723 482" fill="none" xmlns="http://www.w3.org/2000/svg">
<g clip-path="url(#clip0_142_3884)">
<path d="M359.863 284.034C310.632 260.677 289.657 201.835 313.015 152.603C336.372 103.372 395.215 82.3976 444.446 105.755C493.678 129.112 514.652 187.955 491.294 237.186C467.936 286.418 409.095 307.392 359.863 284.034Z" stroke="#E1E4E5" stroke-width="16" stroke-linecap="round" stroke-linejoin="round"/>
<path d="M455.691 345.088L435.3 287.883M373.776 221.998L430.527 167.788M431.812 221.385C433.026 222.655 432.98 224.663 431.71 225.863C430.44 227.076 428.432 227.03 427.232 225.76C426.019 224.49 426.065 222.483 427.334 221.283C428.591 220.069 430.599 220.115 431.812 221.385ZM377.086 164.028C378.299 165.298 378.253 167.306 376.983 168.506C375.713 169.719 373.706 169.673 372.506 168.403C371.305 167.134 371.338 165.126 372.608 163.925C373.878 162.725 375.886 162.758 377.086 164.028Z" stroke="#E1E4E5" stroke-width="16" stroke-linecap="round" stroke-linejoin="round"/>
<path fill-rule="evenodd" clip-rule="evenodd" d="M566.614 393.394L553.434 372.926C545.794 361.061 534.997 351.559 522.257 345.489L476.998 323.926C472.901 321.974 468.418 320.971 463.88 320.99L453.733 321.034L456.612 330.444L416.569 320.846C411.909 319.729 407.341 322.998 406.895 327.769C406.766 329.154 407.006 330.548 407.591 331.81C408.175 333.072 409.084 334.157 410.224 334.954L421.315 342.705C414.402 346.073 413.481 355.554 419.618 360.188L425.256 364.446C419.936 367.767 419.661 375.413 424.727 379.108L432.905 385.073C432.412 387.624 432.782 390.266 433.957 392.583C435.131 394.901 437.043 396.761 439.392 397.872L448.126 402.002C449.42 402.613 450.765 403.109 452.147 403.482L492.502 414.391L537.614 444.354L566.614 393.394Z" fill="#F8AE9D"/>
<path fill-rule="evenodd" clip-rule="evenodd" d="M641.385 451.001L543.48 358.055L476.645 426.021L503.688 451.592L641.385 451.001Z" fill="#8B4513"/>
<path fill-rule="evenodd" clip-rule="evenodd" d="M183.999 383.781C183.638 383.976 183.229 384.065 182.819 384.037C182.41 384.01 182.016 383.868 181.683 383.628C181.35 383.386 181.091 383.056 180.936 382.675C180.781 382.294 180.735 381.877 180.805 381.472L182.389 372.267L175.679 365.745C175.388 365.457 175.183 365.094 175.086 364.696C174.99 364.299 175.006 363.882 175.133 363.493C175.259 363.104 175.491 362.759 175.803 362.495C176.115 362.231 176.494 362.06 176.898 362L186.175 360.657L190.319 352.275C190.501 351.908 190.783 351.598 191.132 351.382C191.481 351.165 191.883 351.05 192.294 351.05C193.13 351.05 193.894 351.524 194.269 352.275L198.412 360.657L207.689 362C208.093 362.06 208.473 362.231 208.785 362.495C209.097 362.759 209.329 363.104 209.455 363.493C209.581 363.882 209.598 364.299 209.501 364.696C209.405 365.094 209.199 365.457 208.908 365.745L202.195 372.263L203.779 381.468C203.849 381.874 203.804 382.292 203.649 382.673C203.494 383.055 203.235 383.385 202.902 383.627C202.569 383.868 202.175 384.01 201.765 384.038C201.355 384.065 200.946 383.976 200.584 383.781L192.29 379.439L183.999 383.781ZM227.817 383.78C227.456 383.975 227.047 384.064 226.638 384.037C226.228 384.009 225.835 383.867 225.502 383.627C225.169 383.386 224.91 383.056 224.754 382.675C224.599 382.294 224.553 381.877 224.622 381.472L226.207 372.266L219.497 365.744C219.206 365.456 219.001 365.093 218.904 364.696C218.808 364.298 218.824 363.881 218.951 363.492C219.077 363.104 219.309 362.758 219.621 362.494C219.933 362.231 220.313 362.059 220.717 362L229.993 360.656L234.136 352.274C234.319 351.907 234.601 351.597 234.95 351.381C235.299 351.164 235.701 351.05 236.112 351.049C236.948 351.049 237.713 351.523 238.087 352.274L242.231 360.656L251.507 362C251.911 362.059 252.29 362.231 252.602 362.494C252.914 362.758 253.146 363.104 253.273 363.492C253.399 363.881 253.415 364.298 253.319 364.696C253.222 365.093 253.017 365.456 252.726 365.744L246.013 372.262L247.597 381.468C247.667 381.873 247.622 382.291 247.467 382.672C247.312 383.054 247.053 383.384 246.72 383.626C246.387 383.867 245.993 384.01 245.584 384.037C245.174 384.064 244.764 383.975 244.403 383.78L236.108 379.439L227.817 383.78ZM271.635 383.78C271.274 383.975 270.865 384.064 270.455 384.037C270.046 384.009 269.652 383.867 269.32 383.627C268.987 383.386 268.728 383.056 268.572 382.675C268.417 382.294 268.371 381.877 268.44 381.472L270.025 372.266L263.315 365.744C263.024 365.456 262.819 365.093 262.722 364.696C262.626 364.298 262.642 363.881 262.769 363.492C262.895 363.104 263.127 362.758 263.439 362.494C263.751 362.231 264.13 362.059 264.534 362L273.811 360.656L277.955 352.274C278.138 351.907 278.419 351.598 278.768 351.382C279.117 351.166 279.52 351.051 279.93 351.051C280.34 351.051 280.743 351.166 281.092 351.382C281.44 351.598 281.722 351.907 281.905 352.274L286.049 360.656L295.325 362C295.729 362.06 296.109 362.231 296.42 362.495C296.732 362.758 296.964 363.104 297.09 363.492C297.217 363.881 297.233 364.298 297.137 364.696C297.04 365.093 296.835 365.456 296.544 365.744L289.831 372.262L291.415 381.468C291.485 381.873 291.44 382.291 291.285 382.672C291.13 383.054 290.871 383.384 290.538 383.626C290.205 383.867 289.811 384.01 289.401 384.037C288.992 384.064 288.582 383.975 288.221 383.78L279.926 379.439L271.635 383.78ZM315.453 383.78C315.092 383.975 314.683 384.064 314.273 384.037C313.864 384.009 313.47 383.867 313.138 383.627C312.804 383.386 312.545 383.056 312.39 382.675C312.235 382.294 312.189 381.877 312.259 381.472L313.843 372.266L307.133 365.744C306.842 365.456 306.637 365.093 306.54 364.696C306.444 364.298 306.46 363.881 306.587 363.492C306.713 363.104 306.945 362.758 307.257 362.494C307.569 362.231 307.948 362.059 308.352 362L317.629 360.656L321.773 352.274C321.955 351.907 322.237 351.597 322.586 351.381C322.935 351.165 323.337 351.05 323.747 351.049C324.584 351.049 325.348 351.523 325.723 352.274L329.866 360.656L339.143 362C339.547 362.059 339.926 362.231 340.238 362.495C340.55 362.758 340.782 363.104 340.908 363.492C341.035 363.881 341.051 364.298 340.955 364.695C340.859 365.093 340.654 365.456 340.363 365.744L333.648 372.262L335.233 381.468C335.303 381.873 335.258 382.291 335.103 382.672C334.948 383.054 334.69 383.384 334.356 383.626C334.024 383.867 333.63 384.01 333.22 384.037C332.81 384.064 332.4 383.975 332.039 383.78L323.744 379.439L315.453 383.78ZM359.271 383.78C358.909 383.975 358.501 384.064 358.091 384.037C357.682 384.009 357.288 383.867 356.956 383.627C356.622 383.386 356.364 383.056 356.208 382.675C356.053 382.294 356.007 381.877 356.077 381.472L357.661 372.266L350.951 365.744C350.66 365.456 350.455 365.093 350.358 364.695C350.262 364.298 350.278 363.881 350.404 363.492C350.531 363.104 350.763 362.758 351.075 362.495C351.387 362.231 351.766 362.059 352.17 362L361.447 360.656L365.591 352.274C365.773 351.907 366.055 351.597 366.404 351.381C366.753 351.164 367.155 351.05 367.566 351.049C368.402 351.049 369.166 351.523 369.541 352.274L373.684 360.656L382.961 362C383.365 362.059 383.745 362.231 384.057 362.494C384.368 362.758 384.601 363.104 384.727 363.492C384.853 363.881 384.869 364.298 384.773 364.695C384.676 365.093 384.471 365.456 384.181 365.744L377.466 372.262L379.051 381.468C379.122 381.873 379.077 382.291 378.922 382.672C378.766 383.054 378.508 383.384 378.174 383.626C377.841 383.867 377.447 384.01 377.037 384.037C376.627 384.064 376.218 383.975 375.856 383.78L367.562 379.439L359.271 383.78ZM82.2396 351.431H86.5768C87.0789 351.431 87.5602 351.631 87.9152 351.986C88.2702 352.341 88.4699 352.822 88.4703 353.324V357.661C88.4699 358.163 88.2702 358.644 87.9152 358.999C87.5602 359.354 87.0789 359.554 86.5768 359.554H82.2396C81.7381 359.552 81.2577 359.352 80.9032 358.998C80.5486 358.643 80.3487 358.162 80.347 357.661V353.324C80.3382 352.284 81.1913 351.431 82.2396 351.431ZM97.2764 351.431H101.614C102.115 351.433 102.595 351.633 102.95 351.987C103.304 352.342 103.504 352.822 103.506 353.324V357.661C103.506 358.163 103.307 358.644 102.952 358.999C102.597 359.354 102.116 359.554 101.614 359.554H97.2764C96.775 359.552 96.2947 359.352 95.9402 358.997C95.5857 358.643 95.3857 358.162 95.3838 357.661V353.324C95.3857 352.822 95.5857 352.342 95.9402 351.987C96.2948 351.633 96.7751 351.433 97.2764 351.431ZM112.324 351.431H116.66C117.162 351.433 117.642 351.633 117.997 351.988C118.352 352.342 118.552 352.823 118.554 353.324V357.661C118.553 358.163 118.353 358.644 117.998 358.999C117.643 359.354 117.162 359.554 116.66 359.554H112.324C111.822 359.552 111.342 359.352 110.987 358.998C110.632 358.643 110.432 358.162 110.43 357.661V353.324C110.421 352.284 111.275 351.431 112.324 351.431ZM127.36 351.431H131.697C132.198 351.433 132.679 351.633 133.034 351.988C133.388 352.342 133.588 352.823 133.59 353.324V357.661C133.59 358.163 133.39 358.644 133.035 358.999C132.68 359.354 132.199 359.554 131.697 359.554H127.36C126.857 359.554 126.375 359.355 126.018 359C125.662 358.645 125.461 358.164 125.458 357.661V353.324C125.463 352.822 125.666 352.342 126.022 351.988C126.378 351.634 126.858 351.434 127.36 351.431ZM142.398 351.431H146.734C147.237 351.431 147.72 351.63 148.076 351.985C148.433 352.339 148.634 352.821 148.637 353.324V357.661C148.636 357.91 148.587 358.157 148.491 358.387C148.395 358.617 148.255 358.826 148.078 359.002C147.902 359.178 147.692 359.317 147.461 359.412C147.231 359.507 146.984 359.555 146.734 359.554H142.398C141.896 359.552 141.416 359.352 141.061 358.998C140.707 358.643 140.507 358.162 140.505 357.661V353.324C140.507 352.822 140.707 352.342 141.061 351.987C141.416 351.633 141.897 351.433 142.398 351.431ZM97.8283 367.828H102.166C102.667 367.83 103.147 368.03 103.502 368.385C103.857 368.739 104.056 369.22 104.058 369.721V374.067C104.056 374.569 103.856 375.049 103.502 375.403C103.147 375.758 102.667 375.958 102.166 375.96H97.8283C97.3264 375.96 96.845 375.76 96.49 375.405C96.1349 375.051 95.9353 374.569 95.9349 374.067V369.73C95.9334 369.481 95.9813 369.233 96.0758 369.002C96.1703 368.772 96.3096 368.562 96.4856 368.385C96.6616 368.208 96.8709 368.068 97.1013 367.972C97.3318 367.877 97.5788 367.827 97.8283 367.828ZM112.865 367.828H117.202C117.703 367.83 118.184 368.03 118.538 368.384C118.893 368.739 119.093 369.22 119.095 369.721V374.067C119.093 374.569 118.893 375.049 118.538 375.404C118.184 375.758 117.703 375.958 117.202 375.96H112.865C112.364 375.958 111.883 375.758 111.528 375.404C111.174 375.049 110.974 374.569 110.972 374.067V369.73C110.97 369.481 111.018 369.233 111.113 369.002C111.207 368.772 111.346 368.562 111.522 368.385C111.698 368.208 111.908 368.068 112.138 367.972C112.369 367.877 112.616 367.827 112.865 367.828ZM127.903 367.828H132.239C132.742 367.828 133.225 368.027 133.581 368.382C133.938 368.737 134.139 369.218 134.141 369.721V374.067C134.139 374.57 133.937 375.052 133.581 375.406C133.224 375.761 132.742 375.96 132.239 375.96H127.903C127.401 375.958 126.921 375.758 126.566 375.404C126.211 375.049 126.011 374.569 126.009 374.067V369.73C126.009 369.227 126.208 368.745 126.563 368.388C126.918 368.032 127.4 367.83 127.903 367.828ZM112.324 333.816H116.66C117.162 333.818 117.642 334.018 117.997 334.372C118.351 334.727 118.552 335.207 118.554 335.709V340.046C118.553 340.548 118.353 341.03 117.998 341.385C117.643 341.74 117.162 341.939 116.66 341.94H112.324C111.822 341.938 111.342 341.738 110.987 341.383C110.632 341.028 110.432 340.548 110.43 340.046V335.709C110.421 334.669 111.275 333.816 112.324 333.816ZM127.36 333.816H131.697C132.198 333.818 132.679 334.018 133.034 334.372C133.388 334.727 133.588 335.207 133.59 335.709V340.046C133.59 340.548 133.39 341.03 133.035 341.385C132.68 341.74 132.199 341.939 131.697 341.94H127.36C126.857 341.939 126.375 341.74 126.018 341.385C125.662 341.03 125.461 340.549 125.458 340.046V335.709C125.464 335.207 125.666 334.727 126.022 334.373C126.378 334.019 126.859 333.819 127.36 333.816ZM579.947 303.79H584.726C585.279 303.79 585.809 304.01 586.2 304.401C586.591 304.792 586.811 305.323 586.812 305.876V310.655C586.812 311.208 586.592 311.738 586.201 312.129C585.81 312.52 585.279 312.74 584.726 312.741H579.947C579.395 312.739 578.865 312.519 578.474 312.128C578.083 311.737 577.863 311.207 577.861 310.655V305.876C577.851 304.73 578.791 303.79 579.947 303.79ZM596.516 303.79H601.295C601.847 303.792 602.377 304.013 602.767 304.403C603.158 304.794 603.378 305.323 603.38 305.876V310.655C603.38 311.208 603.161 311.738 602.769 312.129C602.378 312.52 601.848 312.74 601.295 312.741H596.516C595.963 312.739 595.434 312.518 595.043 312.127C594.652 311.737 594.432 311.207 594.43 310.655V305.876C594.432 305.323 594.652 304.794 595.043 304.403C595.434 304.012 595.963 303.792 596.516 303.79ZM613.096 303.79H617.875C618.427 303.792 618.957 304.013 619.347 304.403C619.738 304.794 619.958 305.323 619.961 305.876V310.655C619.96 311.208 619.741 311.738 619.349 312.129C618.958 312.52 618.428 312.74 617.875 312.741H613.096C612.543 312.739 612.014 312.518 611.623 312.127C611.232 311.737 611.012 311.207 611.01 310.655V305.876C611 304.73 611.94 303.79 613.096 303.79ZM629.665 303.79H634.444C634.996 303.792 635.526 304.013 635.916 304.403C636.307 304.794 636.528 305.323 636.53 305.876V310.655C636.529 311.208 636.309 311.738 635.918 312.129C635.527 312.52 634.997 312.74 634.444 312.741H629.665C629.111 312.741 628.579 312.521 628.186 312.13C627.794 311.739 627.572 311.209 627.569 310.655V305.876C627.579 304.73 628.519 303.79 629.665 303.79ZM646.235 303.79H651.014C651.568 303.79 652.1 304.009 652.492 304.4C652.885 304.791 653.107 305.321 653.11 305.876V310.655C653.11 310.929 653.055 311.201 652.949 311.455C652.844 311.708 652.689 311.938 652.495 312.132C652.3 312.326 652.069 312.479 651.815 312.584C651.561 312.688 651.289 312.742 651.014 312.741H646.235C645.683 312.738 645.153 312.518 644.763 312.127C644.372 311.736 644.152 311.207 644.15 310.655V305.876C644.152 305.323 644.372 304.794 644.763 304.403C645.153 304.013 645.683 303.792 646.235 303.79ZM597.123 321.858H601.902C602.455 321.86 602.985 322.08 603.375 322.471C603.766 322.862 603.987 323.391 603.989 323.944V328.733C603.987 329.285 603.766 329.815 603.375 330.205C602.984 330.596 602.455 330.816 601.902 330.818H597.123C596.57 330.818 596.04 330.598 595.649 330.207C595.258 329.816 595.038 329.286 595.038 328.733V323.954C595.036 323.679 595.089 323.406 595.193 323.152C595.297 322.898 595.45 322.666 595.644 322.472C595.838 322.277 596.069 322.122 596.322 322.017C596.576 321.912 596.849 321.858 597.123 321.858ZM613.693 321.858H618.472C619.025 321.86 619.554 322.08 619.945 322.471C620.335 322.862 620.555 323.392 620.557 323.944V328.733C620.555 329.285 620.335 329.814 619.944 330.205C619.554 330.596 619.024 330.816 618.472 330.818H613.693C613.14 330.816 612.611 330.596 612.22 330.205C611.829 329.815 611.609 329.285 611.607 328.733V323.954C611.605 323.679 611.658 323.406 611.762 323.152C611.866 322.898 612.02 322.666 612.214 322.472C612.407 322.277 612.638 322.122 612.892 322.017C613.146 321.912 613.418 321.858 613.693 321.858ZM630.262 321.858H635.042C635.596 321.858 636.127 322.077 636.52 322.468C636.913 322.859 637.135 323.39 637.137 323.944V328.733C637.135 329.287 636.913 329.817 636.52 330.208C636.127 330.599 635.596 330.818 635.042 330.818H630.262C629.71 330.816 629.181 330.596 628.79 330.205C628.4 329.814 628.179 329.285 628.177 328.733V323.954C628.177 323.4 628.396 322.868 628.787 322.475C629.178 322.083 629.708 321.861 630.262 321.858ZM613.096 284.38H617.875C618.428 284.382 618.957 284.603 619.348 284.993C619.738 285.384 619.959 285.914 619.961 286.466V291.245C619.96 291.798 619.74 292.328 619.349 292.719C618.958 293.11 618.428 293.33 617.875 293.331H613.096C612.544 293.329 612.014 293.108 611.623 292.718C611.233 292.327 611.012 291.798 611.01 291.245V286.466C611 285.32 611.94 284.38 613.096 284.38ZM629.665 284.38H634.444C634.996 284.382 635.526 284.603 635.917 284.993C636.307 285.384 636.528 285.914 636.53 286.466V291.245C636.529 291.798 636.309 292.328 635.918 292.719C635.527 293.11 634.997 293.33 634.444 293.331H629.665C629.111 293.33 628.579 293.111 628.187 292.72C627.794 292.329 627.572 291.799 627.569 291.245V286.466C627.579 285.32 628.519 284.38 629.665 284.38ZM186.634 141.887H190.91C191.405 141.887 191.879 142.084 192.229 142.434C192.579 142.784 192.776 143.258 192.777 143.753V148.03C192.776 148.525 192.579 149 192.229 149.35C191.879 149.7 191.405 149.897 190.91 149.897H186.634C186.139 149.895 185.665 149.698 185.316 149.348C184.966 148.998 184.769 148.525 184.767 148.03V143.753C184.758 142.728 185.599 141.887 186.634 141.887ZM201.461 141.886H205.738C206.232 141.888 206.706 142.086 207.055 142.435C207.405 142.785 207.602 143.259 207.604 143.753V148.03C207.603 148.525 207.407 148.999 207.057 149.349C206.707 149.699 206.233 149.896 205.738 149.896H201.461C200.966 149.894 200.493 149.697 200.143 149.348C199.793 148.998 199.596 148.525 199.594 148.03V143.753C199.596 143.259 199.793 142.785 200.143 142.435C200.493 142.086 200.966 141.888 201.461 141.886ZM216.298 141.887H220.575C221.07 141.889 221.543 142.086 221.893 142.436C222.243 142.785 222.44 143.259 222.442 143.753V148.03C222.442 148.525 222.245 149 221.895 149.35C221.545 149.7 221.07 149.896 220.575 149.897H216.298C215.804 149.895 215.33 149.698 214.981 149.348C214.631 148.998 214.434 148.525 214.432 148.03V143.753C214.423 142.728 215.264 141.887 216.298 141.887ZM231.126 141.887H235.403C235.898 141.889 236.371 142.086 236.721 142.436C237.07 142.785 237.267 143.259 237.269 143.753V148.03C237.269 148.525 237.072 149 236.722 149.35C236.372 149.7 235.898 149.896 235.403 149.897H231.126C230.63 149.897 230.155 149.7 229.803 149.351C229.452 149.001 229.253 148.526 229.25 148.03V143.753C229.256 143.258 229.456 142.786 229.807 142.437C230.158 142.088 230.631 141.89 231.126 141.887ZM245.955 141.886H250.232C250.728 141.886 251.203 142.083 251.555 142.433C251.906 142.783 252.105 143.257 252.107 143.753V148.03C252.106 148.276 252.058 148.519 251.963 148.746C251.869 148.973 251.73 149.179 251.556 149.352C251.382 149.525 251.176 149.663 250.948 149.756C250.721 149.849 250.478 149.897 250.232 149.896H245.955C245.461 149.894 244.987 149.697 244.637 149.348C244.288 148.998 244.09 148.525 244.088 148.03V143.753C244.09 143.259 244.288 142.785 244.637 142.435C244.987 142.086 245.46 141.888 245.955 141.886ZM202.005 158.056H206.282C206.776 158.058 207.25 158.255 207.6 158.605C207.949 158.954 208.147 159.428 208.148 159.923V164.208C208.147 164.702 207.949 165.176 207.6 165.526C207.25 165.875 206.776 166.073 206.282 166.075H202.005C201.51 166.074 201.035 165.877 200.685 165.527C200.335 165.177 200.139 164.703 200.138 164.208V159.932C200.137 159.686 200.184 159.442 200.277 159.214C200.37 158.986 200.507 158.779 200.681 158.605C200.854 158.431 201.061 158.292 201.288 158.198C201.515 158.104 201.759 158.055 202.005 158.056ZM216.833 158.056H221.109C221.604 158.058 222.078 158.255 222.427 158.605C222.777 158.954 222.974 159.428 222.976 159.923V164.208C222.974 164.702 222.777 165.176 222.427 165.526C222.078 165.875 221.604 166.073 221.109 166.075H216.833C216.338 166.073 215.864 165.876 215.514 165.526C215.165 165.176 214.967 164.702 214.966 164.208V159.932C214.964 159.686 215.011 159.442 215.105 159.214C215.198 158.986 215.335 158.779 215.509 158.605C215.682 158.431 215.888 158.292 216.116 158.198C216.343 158.104 216.587 158.055 216.833 158.056ZM231.661 158.056H235.937C236.433 158.056 236.909 158.252 237.261 158.602C237.612 158.952 237.811 159.427 237.813 159.923V164.208C237.811 164.704 237.612 165.178 237.261 165.528C236.909 165.878 236.433 166.075 235.937 166.075H231.661C231.167 166.073 230.693 165.876 230.343 165.526C229.993 165.176 229.796 164.702 229.794 164.208V159.932C229.794 159.436 229.991 158.96 230.341 158.608C230.69 158.257 231.165 158.058 231.661 158.056ZM216.298 124.517H220.575C221.07 124.519 221.544 124.716 221.893 125.066C222.243 125.415 222.44 125.889 222.442 126.384V130.66C222.442 131.155 222.245 131.629 221.895 131.979C221.545 132.329 221.07 132.526 220.575 132.527H216.298C215.804 132.525 215.33 132.327 214.981 131.978C214.631 131.628 214.434 131.154 214.432 130.66V126.384C214.423 125.358 215.264 124.517 216.298 124.517ZM231.126 124.517H235.403C235.898 124.519 236.371 124.716 236.721 125.066C237.071 125.415 237.268 125.889 237.269 126.384V130.66C237.269 131.155 237.072 131.629 236.723 131.979C236.373 132.329 235.898 132.526 235.403 132.527H231.126C230.63 132.527 230.155 132.33 229.803 131.98C229.451 131.63 229.253 131.156 229.25 130.66V126.384C229.256 125.889 229.456 125.416 229.806 125.066C230.157 124.717 230.631 124.52 231.126 124.517Z" fill="#F2C32D"/>
<path fill-rule="evenodd" clip-rule="evenodd" d="M541.203 163.382C541.203 157.002 546.375 151.83 552.754 151.83H663.248C669.628 151.83 674.8 157.002 674.8 163.382C674.8 169.761 669.628 174.933 663.248 174.933H552.754C546.375 174.933 541.203 169.761 541.203 163.382ZM252.705 207.336C252.705 201.234 247.758 196.287 241.656 196.287H90.9816C84.8795 196.287 79.9325 201.234 79.9325 207.336C79.9325 213.439 84.8795 218.385 90.9816 218.385H241.656C247.758 218.385 252.705 213.439 252.705 207.336ZM541.203 203.094C541.203 196.715 546.375 191.543 552.754 191.543H614.029C620.408 191.543 625.58 196.715 625.58 203.094C625.58 209.474 620.408 214.646 614.029 214.646H552.754C546.375 214.646 541.203 209.474 541.203 203.094ZM209.511 246.125C209.511 239.745 204.34 234.573 197.96 234.573H89.4753C83.0953 234.573 77.9234 239.745 77.9234 246.125C77.9234 252.505 83.0953 257.676 89.4753 257.676H197.96C204.34 257.676 209.511 252.505 209.511 246.125ZM541.203 241.453C541.203 235.628 545.925 230.906 551.75 230.906H615.033C620.858 230.906 625.58 235.628 625.58 241.453C625.58 247.278 620.858 252 615.033 252H551.75C545.925 252 541.203 247.278 541.203 241.453ZM209.511 284.484C209.511 278.659 204.789 273.937 198.964 273.937H88.4704C82.6454 273.937 77.9226 278.659 77.9226 284.484C77.9226 290.309 82.6454 295.031 88.4704 295.031H198.964C204.789 295.031 209.511 290.309 209.511 284.484Z" fill="white" stroke="#E1E4E5" stroke-width="4" stroke-linecap="round" stroke-linejoin="round"/>
<path d="M349.071 280.025C349.071 251.53 325.972 228.431 297.477 228.431C268.982 228.431 245.883 251.53 245.883 280.025C245.883 308.519 268.982 331.619 297.477 331.619C325.972 331.619 349.071 308.519 349.071 280.025Z" fill="#8B4513"/>
<path d="M314.246 270.751L291.749 292.983L278.25 279.644" stroke="white" stroke-width="9.368" stroke-linecap="round" stroke-linejoin="round"/>
</g>
<defs>
<clipPath id="clip0_142_3884">
<rect width="723" height="482" fill="white"/>
</clipPath>
</defs>
</svg>
