<svg width="256" height="256" viewBox="0 0 256 256" fill="none" xmlns="http://www.w3.org/2000/svg">
<path d="M243.66 126.38C243.32 125.62 235.14 107.49 216.83 89.18C199.87 72.22 170.7 52 128 52C85.3 52 56.13 72.22 39.17 89.18C20.86 107.49 12.68 125.62 12.34 126.38C12.1173 126.893 12.0024 127.446 12.0024 128.005C12.0024 128.564 12.1173 129.117 12.34 129.63C12.68 130.4 20.86 148.52 39.17 166.83C56.17 183.83 85.31 204 128 204C170.69 204 199.87 183.79 216.83 166.83C235.14 148.52 243.32 130.4 243.66 129.63C243.883 129.117 243.998 128.564 243.998 128.005C243.998 127.446 243.883 126.893 243.66 126.38ZM210.96 161.38C187.89 184.38 159.96 196 127.96 196C95.96 196 68.07 184.35 44.96 161.38C35.1268 151.574 26.8572 140.316 20.44 128C26.8694 115.682 35.1526 104.424 45 94.62C68.11 71.65 96 60 128 60C160 60 187.89 71.65 211 94.62C220.846 104.425 229.129 115.682 235.56 128C229.131 140.318 220.847 151.576 211 161.38H210.96ZM128 84C119.298 84 110.791 86.5806 103.555 91.4153C96.3192 96.2501 90.6796 103.122 87.3493 111.162C84.0191 119.202 83.1477 128.049 84.8455 136.584C86.5432 145.119 90.7338 152.959 96.8873 159.113C103.041 165.266 110.881 169.457 119.416 171.155C127.951 172.852 136.798 171.981 144.838 168.651C152.878 165.32 159.75 159.681 164.585 152.445C169.419 145.209 172 136.702 172 128C171.987 116.335 167.347 105.151 159.098 96.9019C150.849 88.6532 139.665 84.0132 128 84ZM128 164C120.88 164 113.92 161.889 107.999 157.933C102.079 153.977 97.4651 148.355 94.7403 141.777C92.0156 135.198 91.3027 127.96 92.6917 120.977C94.0808 113.993 97.5095 107.579 102.544 102.544C107.579 97.5095 113.993 94.0808 120.977 92.6917C127.96 91.3027 135.198 92.0156 141.777 94.7403C148.355 97.4651 153.977 102.079 157.933 107.999C161.889 113.92 164 120.88 164 128C164 137.548 160.207 146.705 153.456 153.456C146.705 160.207 137.548 164 128 164Z" fill="black"/>
</svg>
