<svg width="256" height="256" viewBox="0 0 256 256" fill="none" xmlns="http://www.w3.org/2000/svg">
<path d="M51 37.3101C50.2866 36.5145 49.2863 36.0348 48.2192 35.9767C47.1521 35.9185 46.1057 36.2867 45.31 37.0001C44.5144 37.7135 44.0347 38.7138 43.9766 39.7809C43.9184 40.848 44.2866 41.8945 45 42.6901L67.59 67.5001C29.34 89.0001 13 124.81 12.34 126.38C12.1173 126.893 12.0024 127.446 12.0024 128.005C12.0024 128.564 12.1173 129.117 12.34 129.63C12.68 130.4 20.86 148.52 39.17 166.83C56.17 183.83 85.31 204 128 204C146.338 204.121 164.47 200.126 181.06 192.31L205.06 218.69C205.411 219.086 205.838 219.408 206.314 219.638C206.791 219.868 207.309 220.001 207.837 220.03C208.366 220.058 208.895 219.981 209.394 219.804C209.892 219.627 210.351 219.352 210.742 218.996C211.134 218.64 211.451 218.21 211.676 217.73C211.9 217.251 212.027 216.731 212.049 216.203C212.071 215.674 211.988 215.146 211.804 214.649C211.621 214.153 211.341 213.698 210.98 213.31L51 37.3101ZM149.1 157.16C141.925 162.315 133.104 164.651 124.318 163.724C115.531 162.797 107.393 158.671 101.451 152.131C95.5099 145.592 92.1808 137.096 92.0975 128.262C92.0143 119.427 95.1829 110.87 101 104.22L149.1 157.16ZM128 196C96 196 68.11 184.35 45 161.38C35.1538 151.575 26.8707 140.318 20.44 128C24.09 120.77 40.53 91.1901 73.12 73.5701L95.57 98.2701C88.1193 106.361 83.9687 116.948 83.9363 127.947C83.9038 138.946 87.9918 149.557 95.3946 157.692C102.798 165.826 112.978 170.893 123.931 171.894C134.884 172.895 145.815 169.758 154.57 163.1L175.46 186.1C160.524 192.738 144.344 196.113 128 196ZM134.78 92.6401C133.74 92.4406 132.821 91.8364 132.225 90.9603C131.63 90.0841 131.406 89.0076 131.604 87.9667C131.801 86.9259 132.403 86.0058 133.278 85.4084C134.153 84.811 135.229 84.5851 136.27 84.7801C145.617 86.5926 154.127 91.378 160.532 98.4226C166.937 105.467 170.893 114.393 171.81 123.87C171.907 124.926 171.582 125.976 170.905 126.792C170.228 127.608 169.255 128.121 168.2 128.22H167.82C166.82 128.224 165.855 127.854 165.115 127.182C164.374 126.51 163.912 125.586 163.82 124.59C163.069 116.846 159.836 109.553 154.603 103.795C149.37 98.038 142.417 94.1253 134.78 92.6401ZM243.66 129.64C243.25 130.55 233.46 152.22 211.28 172.09C210.543 172.74 209.593 173.096 208.61 173.09C207.795 173.095 206.999 172.851 206.327 172.391C205.654 171.931 205.139 171.277 204.848 170.516C204.558 169.755 204.507 168.923 204.702 168.132C204.897 167.341 205.329 166.629 205.94 166.09C217.994 155.25 228.023 142.353 235.56 128C229.127 115.684 220.844 104.427 211 94.6201C187.89 71.6501 160 60.0001 128 60.0001C121.3 59.9933 114.611 60.5385 108 61.6301C106.958 61.7945 105.894 61.5409 105.039 60.9246C104.183 60.3082 103.605 59.379 103.431 58.339C103.257 57.299 103.501 56.2324 104.109 55.3712C104.718 54.5099 105.642 53.9237 106.68 53.7401C113.726 52.5723 120.857 51.9903 128 52.0001C170.7 52.0001 199.87 72.2201 216.83 89.1801C235.14 107.49 243.32 125.62 243.66 126.38C243.883 126.893 243.998 127.446 243.998 128.005C243.998 128.564 243.883 129.117 243.66 129.63V129.64Z" fill="black"/>
</svg>
