<svg width="12" height="12" viewBox="0 0 12 12" fill="none" xmlns="http://www.w3.org/2000/svg">
<path d="M8.03016 1.22691C8.17077 1.36756 8.24975 1.55829 8.24975 1.75716C8.24975 1.95604 8.17077 2.14677 8.03016 2.28741L4.31766 5.99991L8.03016 9.71241C8.16678 9.85387 8.24238 10.0433 8.24067 10.24C8.23896 10.4366 8.16008 10.6247 8.02103 10.7638C7.88197 10.9028 7.69386 10.9817 7.49721 10.9834C7.30057 10.9851 7.11112 10.9095 6.96966 10.7729L2.72691 6.53016C2.58631 6.38952 2.50732 6.19879 2.50732 5.99991C2.50732 5.80104 2.58631 5.61031 2.72691 5.46966L6.96966 1.22691C7.11031 1.08631 7.30104 1.00732 7.49991 1.00732C7.69879 1.00732 7.88952 1.08631 8.03016 1.22691Z" fill="#989898"/>
</svg>
