<svg width="6" height="12" viewBox="0 0 6 12" fill="none" xmlns="http://www.w3.org/2000/svg">
<path d="M3.50637 1.22691C3.56776 1.36756 3.60225 1.55829 3.60225 1.75716C3.60225 1.95604 3.56776 2.14677 3.50637 2.28741L1.88524 5.99991L3.50637 9.71241C3.56602 9.85387 3.59903 10.0433 3.59829 10.24C3.59754 10.4366 3.5631 10.6247 3.50238 10.7638C3.44166 10.9028 3.35951 10.9817 3.27365 10.9834C3.18778 10.9851 3.10505 10.9095 3.04328 10.7729L1.19061 6.53016C1.12922 6.38952 1.09473 6.19879 1.09473 5.99991C1.09473 5.80104 1.12922 5.61031 1.19061 5.46966L3.04328 1.22691C3.1047 1.08631 3.18798 1.00732 3.27482 1.00732C3.36167 1.00732 3.44495 1.08631 3.50637 1.22691Z" fill="#989898"/>
</svg>
