<svg width="6" height="12" viewBox="0 0 6 12" fill="none" xmlns="http://www.w3.org/2000/svg">
<path d="M2.49363 1.22691C2.43224 1.36756 2.39775 1.55829 2.39775 1.75716C2.39775 1.95604 2.43224 2.14677 2.49363 2.28741L4.11476 5.99991L2.49363 9.71241C2.43398 9.85387 2.40097 10.0433 2.40171 10.24C2.40246 10.4366 2.4369 10.6247 2.49762 10.7638C2.55834 10.9028 2.64049 10.9817 2.72635 10.9834C2.81222 10.9851 2.89495 10.9095 2.95672 10.7729L4.80939 6.53016C4.87078 6.38952 4.90527 6.19879 4.90527 5.99991C4.90527 5.80104 4.87078 5.61031 4.80939 5.46966L2.95672 1.22691C2.8953 1.08631 2.81202 1.00732 2.72518 1.00732C2.63833 1.00732 2.55505 1.08631 2.49363 1.22691Z" fill="#989898"/>
</svg>
